<svg width="645" height="276" viewBox="0 0 645 276" fill="none" xmlns="http://www.w3.org/2000/svg">
<path d="M630.378 110.306C630.268 111.677 629.909 113.196 630.287 114.361C632.603 121.568 631.83 129.276 630.251 137.034C628.149 145.969 625.519 154.849 623.35 163.788C622.405 167.721 622.089 171.702 621.408 175.662C621.191 176.776 620.869 177.941 620.456 179.023C619.572 181.411 615.415 183.519 618.717 186.395C618.809 186.477 617.381 188.327 616.732 189.424C615.802 190.979 612.472 192.199 615.096 194.544C615.158 194.584 613.727 196.786 612.737 197.641C594.327 213.226 573.945 218.634 552.818 219.995C548.89 220.24 545.036 221.36 541.111 219.976C538.828 219.15 534.739 221.254 531.948 223.056C529.014 224.956 527.256 224.537 525.656 222.612C523.289 219.722 521.432 220.894 518.64 223.666C516.852 225.45 513.852 226.385 511.354 226.981C503.938 228.676 496.578 228.87 489.212 233.907C484.326 237.249 478.15 238.558 472.503 239.923C466.957 241.281 461.304 241.105 455.737 242.332C453.11 242.892 452.945 242.242 452.836 240.092C452.748 238.38 452.295 236.648 451.575 235.24C451.159 234.43 449.982 233.887 449.022 233.814C448.624 233.795 447.92 235.424 447.299 236.255C446.487 237.318 445.419 239.233 444.791 239.184C443.495 239.133 442.009 238.345 441.286 237.29C438.42 233.11 438.53 233.016 434.556 237.841C433.753 238.816 432.975 239.877 432.028 240.64C430.789 241.642 429.367 242.479 428.041 243.354C428.194 241.891 428.658 240.322 428.356 239.064C428.034 237.675 427.013 236.595 426.275 235.364C424.983 236.545 421.7 233.492 421.976 238.185C422.012 238.799 420.878 239.75 420.296 240.535C420.044 239.758 419.973 238.838 419.539 238.205L419.517 238.175C418.995 237.464 418.331 236.561 417.522 236.438C416.307 236.249 414.709 236.217 413.574 236.86C408.154 239.883 403.237 241.598 399.652 236.011C399.206 235.261 398.918 235.773 397.67 237.989L397.596 238.12C396.815 239.533 395.264 240.642 393.953 241.692C393.733 241.882 392.742 241.151 392.361 240.647C391.637 239.591 391.227 237.46 390.396 237.424C388.069 237.349 385.62 238.117 383.223 238.707C382.576 238.835 381.931 239.58 381.28 240.061C381.369 234.421 376.464 239.216 374.5 237.578C373.764 236.963 372.12 237.374 370.873 237.496C370.163 237.584 369.382 238.029 368.654 238.294C368.696 237.896 368.626 237.284 368.808 237.14C369.564 236.609 370.378 236.162 371.174 235.892C372.87 235.302 374.586 234.843 376.312 234.296C375.001 232.792 373.886 231.013 372.298 229.923C370.369 228.591 367.075 230.425 365.871 233.009C365.271 234.279 364.157 235.361 363.658 236.625C363.168 237.8 363.235 239.072 363.043 240.273C361.54 239.97 359.846 239.9 358.548 239.232C356.303 238.052 354.486 235.964 351.298 238.055C351.011 238.249 350.478 238.238 350.228 238.078C349.132 237.398 348.073 236.671 346.981 235.947C347.155 237.477 347.151 239.106 347.565 240.577C348.65 244.559 347.291 245.744 343.976 244.586C337.024 247.265 335.959 240.86 332.983 238.052C329.218 234.501 323.61 234.85 321.025 240.426C319.512 243.734 318.98 246.584 315.508 243.103C313.88 241.443 311.461 242.563 310.083 244.894C306.769 250.427 301.181 251.215 296.508 253.795C295.871 254.143 294.237 253.496 293.976 252.808C293.104 250.618 292.548 248.275 292.064 245.884C291.492 243.059 287.454 240.845 285.002 242.275C284.471 242.572 283.813 243.757 283.93 244.234C284.369 246.1 284.975 247.955 285.802 249.62C286.402 250.903 287.466 251.893 288.171 253.126C288.229 253.211 286.913 254.305 286.249 254.919C284.278 250.155 282.114 255.22 280.615 256.15C274.368 260.061 271.47 260.022 265.948 255.083C265.462 254.629 264.331 254.92 263.471 254.841C262.968 257.426 261.864 257.451 261.018 255.655C260.278 254.116 258.598 252.636 260.892 250.16C263.224 247.637 262.943 244.265 260.501 243.053C260.309 242.977 259.39 243.782 259.133 244.327C258.414 245.78 259.181 248.021 256.273 248.071C253.433 248.116 250.546 248.604 247.678 248.914C248.024 247.836 248.148 246.332 248.832 245.849C251.938 243.587 251.939 241.341 250.653 238.648C250.266 237.88 250.631 236.625 250.637 235.612C250.621 235.129 250.609 234.601 250.593 234.118C246.641 238.414 246.903 231.443 244.133 232.408C244.028 232.458 243.681 230.983 243.429 230.206C244.24 230.112 245.012 230.064 245.789 229.971C246.734 229.868 247.64 229.812 248.585 229.709C248.045 228.818 247.752 227.472 246.93 227.039C244.877 225.934 242.594 225.108 240.294 224.459C238.901 224.062 237.018 223.563 235.879 224.25C231.747 226.752 230.485 224.146 228.916 221.602C227.917 219.992 226.769 218.523 225.665 216.963C224.542 219.41 220.513 219.969 221.262 223.972C221.468 225.192 218.933 227.419 217.62 229.129C217.429 229.361 216.993 229.389 216.681 229.496C216.414 227.268 217.535 224.204 214.107 223.802C213.776 223.778 210.192 218.499 209.594 219.109C208.777 219.908 208.047 221.142 207.869 222.21C207.103 226.659 205.361 228 201.544 227.182C199.196 226.668 196.619 226.74 194.314 226.136C193.079 225.816 192.058 224.736 191.267 223.684C190.477 222.633 190.429 220.215 189.575 220.092C186.915 219.686 184.042 220.041 181.222 220.216C180.919 220.235 180.534 221.052 180.185 221.514C180.589 221.797 180.99 222.432 181.397 222.362C182.515 222.205 183.726 221.469 184.753 221.537C185.814 221.603 187.058 222.142 187.537 222.992C187.904 223.63 187.189 225.039 186.977 226.109C185.902 225.868 184.314 226.055 183.856 225.335C182.277 222.88 180.193 223.67 177.884 224.694C175.82 225.615 174.266 225.8 173.718 223.061C172.848 218.625 168.848 220.503 165.84 220.559C165.739 220.565 164.7 223.799 165.109 224.038C167.264 225.444 166.762 227.368 165.132 228.923C164.357 229.631 162.57 229.17 161.275 229.119C160.243 229.095 159.133 228.548 158.194 228.915C156.526 229.547 154.073 234.498 154.104 228.465C152.891 228.893 151.568 229.108 150.496 229.791C147.777 231.545 146.024 232.358 143.041 230.255C140.612 228.602 136.649 228.849 134.862 225.526C134.697 225.185 133.349 225.313 132.746 225.658C130.654 226.845 130.678 226.932 130.606 224.427C130.589 223.636 130.749 222.745 130.516 222.1C130.279 221.498 129.615 221.143 129.167 220.643C128.771 221.24 128.342 221.839 128.042 222.474C127.685 223.332 127.424 224.229 127.097 225.13C126.652 224.277 125.829 223.536 125.763 222.572C125.58 219.854 124.408 220.851 123.425 222.277C121.693 224.806 120.415 225.854 119.075 222.724C118.746 222.041 117.608 221.759 116.729 221.55C115.063 221.214 113.344 221.057 111.669 220.809C111.838 222.383 111.796 224.058 112.176 225.531C113.491 230.82 112.302 232.303 107.09 232.055C104.335 231.919 101.487 232.36 98.6903 232.623C96.0328 232.832 93.1473 233.628 92.5384 229.881C92.5523 229.748 91.0227 230.019 91.018 230.063C90.506 234.321 88.936 232.746 87.037 231.764C86.0517 231.297 84.4607 231.837 83.1511 231.918C83.8793 232.929 84.574 233.943 85.3741 234.905C85.5478 235.158 86.0943 235.036 86.3734 235.239L86.3735 235.239C87.2638 235.976 88.1542 236.713 88.9299 237.589C89.0214 237.671 88.1193 238.96 87.9896 238.924C86.9186 238.639 85.8996 238.174 84.9189 237.663C84.0632 237.232 83.3176 236.706 82.5047 236.185C82.1295 237.22 81.5864 238.267 81.4126 239.29C80.8013 238.756 70.4553 239.753 69.7107 239.535C68.7115 239.201 67.4505 239.456 66.413 239.168C65.1208 238.764 63.9189 238.135 62.6741 237.596C63.8298 237.392 64.9807 237.232 66.112 236.942C66.5961 236.78 67.3047 236.383 67.4807 235.976C67.6521 235.613 67.2515 234.978 66.9192 234.647C65.4893 233.327 59.006 234.391 58.442 236.275C57.5178 239.37 56.0971 237.962 55.0018 237.59C51.9415 236.548 56.4793 236.222 55.5368 235.664C54.0941 234.785 52.1211 233.236 50.9284 233.794C45.8705 236.222 47.7512 230.999 46.9929 229.637C45.6984 227.341 48.3813 227.526 50.0105 226.94C53.2643 225.813 54.9561 223.991 52.1715 220.951C50.8562 219.492 54.9591 210.564 56.9438 210.089C57.1453 210.076 57.4752 211.068 57.5829 211.633C57.9452 213.592 58.274 215.552 58.6363 217.511C59.1007 217.218 59.8962 216.948 60.0004 216.589C60.8875 213.849 64.9357 212.144 63.478 208.537C62.8192 206.861 62.6248 204.892 62.1814 203.071C61.5088 200.252 61.4614 197.834 65.5049 197.449C66.0422 197.416 66.6247 196.631 67.2036 196.199C66.766 195.918 66.3711 195.547 65.8906 195.357C62.5269 194.025 59.2732 192.599 55.1914 195.583C54.0763 196.357 52.2468 195.987 50.7786 195.99C49.8766 196.002 49.0452 195.658 48.1432 195.67C44.4251 195.814 40.5842 196.493 37.0318 196.01C32.8888 195.432 35.4052 189.553 32.6634 187.699C32.1342 187.335 30.4413 187.573 30.0163 188.128C26.855 192.198 25.9298 192.432 24.8485 188.098C24.118 185.194 23.2149 184.898 20.6442 186.511C19.9981 186.947 18.839 186.227 17.893 186.022C18.6562 184.786 19.263 182.811 20.2021 182.444C22.291 181.61 24.6242 181.949 26.6842 181.072C27.6569 180.703 28.2394 178.642 29.0072 177.362C28.1422 177.019 27.0642 176.162 26.4609 176.508C24.2249 177.792 22.098 174.843 19.5145 178.173C18.1678 179.886 16.9463 177.849 17.9468 175.938C19.3233 173.264 18.5995 173.256 16.2211 173.23L16.195 173.23C14.3284 173.214 12.719 171.377 11.0644 170.292C11.0065 170.207 11.4246 169.081 11.7453 168.885C13.0098 168.278 14.4005 168.059 15.6406 167.365C16.5936 166.866 17.3672 165.849 18.2183 165.048C17.402 164.879 16.5335 164.889 15.8365 164.536C14.8222 164.027 13.0622 162.992 13.1953 162.676C14.094 160.463 15.1941 158.237 16.6891 156.383C17.458 155.411 19.2331 155.344 20.3864 154.524C20.7118 154.284 20.8207 152.604 20.4305 152.188C18.7586 150.311 16.9384 148.576 15.0036 146.98C13.0978 145.426 13.9847 145.238 15.893 144.855C19.4699 144.148 23.0317 143.266 26.6224 142.426C27.0972 142.352 27.5754 141.926 28.0733 141.631C27.7074 141.302 27.4272 140.791 27.0092 140.641C23.9871 139.553 20.8886 138.557 17.8711 137.425C14.849 136.336 14.6129 134.766 18.0068 132.618C18.7537 132.175 19.3362 131.391 20.0055 130.733C19.3235 130.555 18.6079 130.38 17.9687 130.111C17.2381 129.761 16.5503 129.319 15.8243 128.924L17.9191 127.077C18.622 126.417 19.3202 125.801 20.0231 125.141C17.118 123.253 18.7485 120.422 19.5777 117.597C20.0988 115.804 19.4587 112.674 20.1141 112.149C22.9962 110.429 26.2442 109.038 29.3707 108.491C31.6819 108.083 33.9942 109.26 36.3274 109.598C37.2491 109.717 39.0577 109.648 39.1956 109.288C39.8996 107.659 40.3919 105.823 40.3954 104.194C40.3931 103.578 38.9411 102.788 38.0391 102.801C36.403 102.815 34.5515 102.974 33.0334 103.773C28.6563 106.071 25.4652 103.408 21.8167 102.887C20.8278 102.773 19.9757 100.713 19.8553 99.3116C19.8053 98.5363 21.2581 97.2427 22.2162 96.3896L22.2674 96.344C25.4623 93.5477 28.804 92.8552 32.463 93.5957C36.2806 94.4142 39.8818 93.7937 42.2674 88.8468C43.3721 86.5769 49.3413 85.3246 51.3328 86.6971C51.5493 86.8597 51.2552 87.7585 51.1278 88.3387C50.8776 89.4548 50.5556 90.6194 50.2673 91.7819C51.2608 91.852 52.216 91.9686 53.2188 91.9501C53.7897 91.9145 54.3686 91.4823 54.9013 91.4931C55.5972 91.5378 56.2653 91.8483 56.9137 92.028C56.3405 92.724 55.846 93.9434 55.2277 94.114C49.6823 95.7802 52.3743 99.7063 51.9295 102.683C51.8589 103.04 53.5505 103.771 54.4618 103.67C56.9606 103.382 59.1433 103.246 59.1269 106.593C59.875 106.458 60.9263 106.613 61.3085 106.149C67.0498 99.0999 68.559 90.7301 70.9377 82.6582C71.1462 81.9409 70.7641 81.1283 70.6414 80.3876C70.0811 76.8128 71.2911 78.3222 73.3616 76.3883C77.6507 72.3793 82.8911 77.7754 86.2228 71.7571C86.2992 71.6643 87.3077 71.9096 87.8172 72.142C91.2874 73.7306 92.7186 72.805 94.81 68.7568C95.6867 67.0735 93.4717 63.6899 97.6217 63.5633C97.5187 62.9535 97.6021 62.1559 97.3173 61.6894C96.9792 61.0942 96.0714 60.8426 95.8341 60.2411C93.5231 54.2663 93.3692 54.1439 86.8339 54.1109C85.6968 54.1377 84.5122 54.2996 83.4701 54.0564C82.2022 53.7392 80.1469 53.295 80.0671 52.4636C79.9224 50.9759 80.9229 49.0647 81.6606 47.434C81.832 47.0712 82.9737 47.0001 83.6638 46.781C83.6279 47.4435 83.6591 48.1019 83.5561 48.7686C83.3823 49.7919 83.1461 50.7751 82.9387 51.8004C84.5702 51.8308 86.24 51.8148 87.8715 51.8452C87.8484 50.7902 87.662 49.7013 87.8739 48.6316C88.006 48.0071 88.7506 46.9482 89.2635 46.8282C90.5291 46.5292 91.8538 46.6228 93.1206 46.6319C97.5635 46.5751 102.031 46.6049 106.483 46.4595C107.222 46.4135 108.049 45.5256 108.834 45.0364C108.257 44.8082 107.69 44.4914 107.108 44.3076C105.268 43.7179 103.395 43.1303 101.555 42.5406C103.828 42.1789 106.125 41.9037 108.408 41.4533C108.983 41.3734 109.571 40.8525 110.175 40.5068C109.679 40.1415 109.15 39.7783 108.616 39.4594C107.991 39.0582 107.323 38.7476 106.693 38.3907C107.488 38.121 108.279 37.8957 109.05 37.5395C109.822 37.1833 111.029 36.7999 111.219 36.2598C113.061 30.7746 116.248 33.7894 116.877 35.1149C118.381 38.2786 123.724 36.317 123.678 40.8979C125.361 40.4409 127.616 40.5645 128.567 39.4487C132.705 34.6568 136.748 36.826 140.803 36.9695C142.233 37.0124 143.716 37.1841 144.966 37.6785C146.152 38.1328 147.192 39.0364 148.098 39.9485C148.247 40.1152 147.433 41.8387 147.164 41.8555C145.826 41.8949 144.519 41.316 143.161 41.5327C141.233 41.7849 139.235 42.3936 137.434 43.3422C137.114 43.5383 137.311 46.4313 138.001 47.4888C138.344 48.0397 140.776 47.7561 141.416 47.0559C144.059 44.118 146.033 44.6993 148.141 46.5488C148.753 47.083 149.877 47.4971 150.702 47.2697C154.786 46.1788 158.204 46.6701 161.522 48.7524C162.552 49.4366 165.06 47.7836 166.915 47.2718C167.844 46.9938 169.023 46.5682 169.725 46.8766C173.666 48.7439 173.595 48.7924 174.602 43.6233C175.031 41.4396 175.661 39.2433 176.387 37.0851C176.577 36.545 177.588 36.1299 178.205 35.6512C178.371 36.3012 178.709 36.8964 178.702 37.6012C178.715 38.7449 178.557 39.9433 178.47 41.0932C179.576 40.408 180.831 39.8896 181.821 39.0356C185.24 36.0052 193.199 38.0624 193.92 42.3315C193.935 42.5066 192.522 43.255 191.751 43.6112C190.769 44.0685 189.763 44.4394 188.757 44.8102C189.317 45.8318 189.553 47.4018 190.447 47.7863C192.61 48.7961 195.824 48.6838 193.269 53.025C192.949 53.5291 193.706 54.5824 193.959 55.3591C194.979 54.8553 196.728 54.3941 196.889 53.8118C197.821 50.0121 201.473 46.3509 199.054 42.3637C198.682 41.7706 199.786 39.1926 199.887 39.1864C202.113 39.2677 204.279 39.617 206.453 39.8777C205.728 41.0674 205.066 42.2972 204.341 43.4869C203.859 44.2653 203.315 45.0035 202.8 45.784C203.497 46.1367 204.244 46.9706 204.929 46.7958C207.053 46.2673 210.238 47.3894 210.341 42.8929C210.353 42.1438 211.845 40.6422 212.664 40.4591C215.153 39.9519 217.662 39.8835 220.18 39.7266C220.886 39.6827 221.511 40.0839 222.13 40.2214C221.592 41.2234 221.199 42.7445 220.5 43.0522C219.278 43.5686 217.832 43.0424 216.581 43.5165C215.604 43.9296 214.774 45.1699 213.885 46.0177C214.731 46.5372 215.805 47.7468 216.337 47.4496C219.1 45.9128 219.97 47.7954 221.396 49.1593C224.791 52.4253 228.707 55.1747 227.2 61.6075C227.03 62.2784 228.376 63.1189 229.032 63.8704L230.39 61.4087C230.714 60.8602 230.913 60.2316 231.267 59.7253C231.973 58.7129 232.771 57.7827 233.54 56.8104C234.224 57.6041 234.875 58.4 235.631 59.1452C236.599 60.0974 237.672 60.9989 238.678 61.9047C238.985 60.5649 239.326 59.2231 239.599 57.8855C240.622 52.8915 237.148 52.9319 234.056 52.5082C233.331 52.4213 232.758 51.8408 232.128 51.4838C232.477 51.0219 232.944 50.0684 233.208 50.096C237.345 50.4104 240.217 45.9175 244.015 45.3286C245.405 45.1099 246.795 45.8597 248.116 46.3056C248.409 46.3754 248.57 47.0697 248.524 47.5128C248.441 48.6184 244.985 46.8969 246.98 49.1937C247.486 49.7785 251.507 51.2007 252.462 47.1794C252.939 45.1687 254.544 41.9433 250.939 41.6396C249.648 41.544 248.263 42.0265 246.972 41.9309C246.176 41.8925 245.468 41.3203 244.704 40.9717C245.555 40.1703 246.466 38.7929 247.205 38.7469C252.367 38.5133 257.54 38.4991 262.665 38.6199C263.264 38.6266 263.643 39.7915 264.144 40.4206C263.382 40.6882 262.597 41.1773 261.858 41.2233C260.343 41.3618 258.811 41.0171 257.339 41.3729C256.586 41.5519 255.886 42.8281 255.136 43.6232C255.8 44.2861 256.429 45.6115 257.139 45.5233C258.764 45.2899 260.46 44.3919 262.122 43.8041C266.378 42.3504 268.607 44.3244 267.779 48.7341C267.614 49.6687 267.187 50.8839 267.52 51.5234C268.976 54.5142 267.838 55.8176 264.698 56.4975C263.778 56.6869 262.16 57.8002 262.1 58.3762C261.993 59.3953 262.899 60.3074 263.401 61.2445C264.205 60.5781 264.975 59.9139 265.774 59.2918C266.247 58.9101 266.726 58.4841 267.248 58.2755C272.883 55.4725 272.88 55.4595 271.493 49.2653L271.47 49.1643C271.036 47.2545 271.418 45.5139 274.154 45.8276C276.794 46.1033 279.494 47.0796 282.19 44.2703C282.458 43.9455 283.654 44.3112 284.183 44.6744C291.355 49.4659 299.361 48.835 307.677 43.9587C308.673 43.3684 311.004 41.8145 311.12 40.7068C311.747 33.7565 314.866 37.7441 317.285 37.9015C320.433 38.1015 323.682 38.2952 326.88 37.6997C330.419 37.039 333.93 35.3676 337.472 34.3545C340.942 33.3899 339.731 36.6788 340.309 38.4917C340.677 39.4372 341.065 40.5135 341.815 40.995C342.19 41.2358 343.429 40.2341 344.248 39.7429C345.497 38.9607 346.859 37.4232 347.996 37.3964C350.879 37.2607 354.105 38.9526 354.776 33.4963C355.928 33.6446 357.166 33.6115 358.266 33.9391C361.955 35.0298 365.563 36.2577 369.257 37.3041C369.776 37.4478 371.074 36.8387 371.254 36.3873C373.421 30.6617 375.535 34.0515 376.516 35.8393C377.695 37.9668 378.761 37.02 380.67 36.945C384.393 36.7571 389.488 33.9744 391.647 39.1663C391.749 39.4681 393.605 39.2644 393.954 38.8025C396.47 35.4762 398.014 36.3485 400.539 38.04C402.343 39.2922 405.679 38.336 408.347 38.3458C411.778 38.3961 415.199 38.5351 418.644 38.4525C427.635 38.2884 436.342 40.211 445.847 36.4051C448.842 35.2061 452.437 36.8749 455.801 36.9294C457.567 36.9514 459.46 36.3933 461.267 36.0165C461.776 35.9408 462.492 35.1478 462.776 35.3062C469.79 38.7429 478.308 36.7154 485.834 38.4475C491.76 39.839 498.194 39.8782 504.453 40.3246C505.648 40.3822 507.036 39.5474 508.311 39.1598C509.174 38.8859 510.823 38.431 510.842 38.5618C511.78 42.9935 515.4 39.6425 517.647 40.1627C520.582 40.8163 523.44 41.8707 526.469 42.2542C529.167 42.6143 532.121 42.1221 534.867 42.3472C541.481 42.9035 547.467 44.9956 551.621 49.9311C553.993 52.7767 556.497 52.7527 559.975 51.0834C561.416 50.3772 563.139 50.49 564.717 50.3916C568.953 50.0837 573.283 50.4742 577.409 49.2926C579.197 48.785 580.012 48.6461 581.627 49.1618C586.502 50.7069 591.797 49.8487 597.161 48.634C607.155 46.3437 616.452 48.0008 625.711 49.6512L626.531 49.7972C630.165 50.4511 630.011 54.1585 630.267 57.1359C630.572 60.5945 630.159 64.2299 630.397 67.6927C630.922 74.7912 632.2 81.7108 632.218 88.885C632.215 95.9285 631.023 103.178 630.378 110.306Z" fill="#DFF5B0"/>
</svg>
