<svg width="1211" height="362" viewBox="0 0 1211 362" fill="none" xmlns="http://www.w3.org/2000/svg">
<path d="M1195.5 144.554C1195.53 146.186 1195.1 147.997 1196.04 149.379C1201.8 157.924 1201.68 167.101 1200.01 176.346C1197.54 186.997 1194.03 197.589 1191.43 208.246C1190.31 212.934 1190.4 217.673 1189.79 222.391C1189.57 223.719 1189.16 225.108 1188.55 226.4C1187.27 229.25 1179.61 231.805 1186.51 235.187C1186.7 235.284 1184.27 237.501 1183.21 238.813C1181.69 240.672 1175.47 242.161 1180.96 244.921C1181.09 244.968 1178.71 247.604 1176.95 248.631C1144.16 267.378 1105.75 274.043 1065.18 275.902C1057.63 276.237 1050.38 277.614 1042.55 276.012C1038 275.056 1030.47 277.604 1025.4 279.78C1020.07 282.073 1016.6 281.595 1013.17 279.323C1008.08 275.913 1004.7 277.329 999.801 280.656C996.665 282.799 991.035 283.945 986.316 284.683C972.29 286.783 958.106 287.098 944.773 293.173C935.927 297.203 924.23 298.831 913.563 300.518C903.09 302.196 892.138 302.051 881.603 303.575C876.627 304.27 876.192 303.499 875.599 300.943C875.125 298.909 873.942 296.853 872.301 295.187C871.354 294.227 868.982 293.595 867.115 293.52C866.342 293.502 865.272 295.447 864.22 296.442C862.841 297.716 861.119 300.006 859.896 299.955C857.384 299.909 854.374 298.989 852.788 297.742C846.508 292.804 846.704 292.689 839.885 298.474C838.508 299.643 837.193 300.913 835.499 301.832C833.284 303.037 830.686 304.049 828.28 305.105C828.315 303.364 828.933 301.492 828.126 299.999C827.257 298.351 825.092 297.077 823.446 295.622C821.162 297.042 814.275 293.448 815.644 299.026C815.823 299.756 813.802 300.9 812.816 301.84C812.19 300.919 811.89 299.826 810.939 299.078L810.892 299.043C809.756 298.203 808.314 297.136 806.728 296.999C804.348 296.789 801.255 296.768 799.177 297.546C789.244 301.203 780.051 303.299 772.13 296.694C771.136 295.808 770.67 296.42 768.653 299.07L768.534 299.226C767.275 300.916 764.477 302.253 762.132 303.517C761.741 303.745 759.696 302.887 758.87 302.292C757.284 301.045 756.111 298.514 754.501 298.48C749.992 298.418 745.397 299.36 740.872 300.089C739.644 300.249 738.53 301.141 737.359 301.721C736.528 295.011 727.905 300.771 723.82 298.845C722.288 298.122 719.185 298.629 716.797 298.788C715.442 298.902 714.013 299.439 712.653 299.763C712.663 299.289 712.42 298.562 712.746 298.389C714.112 297.748 715.605 297.208 717.094 296.878C720.266 296.157 723.499 295.591 726.735 294.92C723.936 293.147 721.465 291.044 718.205 289.766C714.241 288.203 708.203 290.422 706.336 293.509C705.403 295.026 703.444 296.326 702.704 297.835C701.967 299.238 702.323 300.75 702.165 302.181C699.207 301.838 695.922 301.773 693.296 300.994C688.749 299.615 684.868 297.153 679.081 299.677C678.561 299.911 677.53 299.904 677.019 299.716C674.779 298.92 672.606 298.068 670.367 297.219C670.975 299.036 671.258 300.974 672.318 302.719C675.122 307.443 672.709 308.868 666.099 307.528C653.144 310.793 649.948 303.187 643.7 299.881C635.794 295.701 625.022 296.18 621.021 302.841C618.685 306.793 618.165 310.189 610.838 306.088C607.398 304.133 602.924 305.491 600.676 308.279C595.258 314.898 584.605 315.899 576.035 319.022C574.867 319.443 571.596 318.692 570.968 317.877C568.894 315.281 567.404 312.501 566.044 309.663C564.436 306.309 556.24 303.722 551.759 305.45C550.785 305.81 549.725 307.227 550.036 307.793C551.215 310.007 552.717 312.206 554.611 314.178C555.997 315.697 558.229 316.863 559.811 318.321C559.938 318.421 557.591 319.737 556.416 320.475C551.762 314.832 548.482 320.881 545.752 322.004C534.379 326.726 528.773 326.712 517.227 320.902C516.207 320.367 514.073 320.726 512.4 320.642C511.886 323.722 509.759 323.764 507.804 321.637C506.101 319.816 502.592 318.074 506.584 315.103C510.64 312.077 509.497 308.069 504.564 306.655C504.179 306.567 502.548 307.535 502.149 308.185C501.018 309.922 502.897 312.579 497.289 312.671C491.81 312.757 486.32 313.37 480.834 313.772C481.312 312.486 481.283 310.695 482.52 310.113C488.117 307.387 487.72 304.717 484.756 301.528C483.872 300.619 484.354 299.121 484.185 297.917C484.067 297.342 483.951 296.715 483.834 296.14C476.963 301.295 476.229 293 471.05 294.18C470.856 294.241 469.924 292.49 469.299 291.569C470.848 291.448 472.331 291.382 473.816 291.263C475.623 291.13 477.364 291.052 479.171 290.919C477.968 289.866 477.163 288.268 475.498 287.762C471.335 286.472 466.78 285.515 462.219 284.769C459.458 284.312 455.732 283.74 453.653 284.571C446.116 287.594 443.215 284.508 439.731 281.501C437.515 279.597 435.037 277.863 432.625 276.02C430.891 278.943 423.208 279.654 425.367 284.407C425.982 285.855 421.481 288.533 419.248 290.582C418.921 290.861 418.082 290.898 417.5 291.029C416.587 288.382 418.207 284.726 411.514 284.286C410.871 284.262 403.006 278.023 401.961 278.755C400.523 279.715 399.334 281.191 399.179 282.463C398.491 287.764 395.365 289.379 387.845 288.449C383.217 287.864 378.253 287.98 373.691 287.287C371.25 286.921 369.085 285.647 367.37 284.406C365.656 283.165 365.134 280.289 363.461 280.153C358.251 279.699 352.764 280.155 347.346 280.396C346.766 280.422 346.166 281.397 345.575 281.95C346.406 282.282 347.293 283.033 348.068 282.946C350.198 282.746 352.407 281.857 354.404 281.926C356.464 281.993 358.965 282.619 360.04 283.625C360.862 284.379 359.733 286.064 359.513 287.338C357.393 287.064 354.359 287.304 353.345 286.453C349.86 283.552 345.974 284.515 341.695 285.76C337.871 286.879 334.902 287.116 333.357 283.865C330.886 278.599 323.493 280.878 317.692 280.978C317.498 280.987 316.067 284.845 316.899 285.124C321.312 286.773 320.685 289.067 317.812 290.934C316.441 291.786 312.908 291.258 310.396 291.211C308.398 291.195 306.156 290.557 304.407 291.004C301.298 291.775 297.441 297.691 296.426 290.516C294.16 291.038 291.642 291.308 289.692 292.133C284.751 294.25 281.509 295.238 275.373 292.77C270.386 290.832 262.775 291.17 258.731 287.239C258.352 286.834 255.771 287.002 254.667 287.42C250.836 288.856 250.898 288.958 250.314 285.98C250.14 285.039 250.291 283.978 249.726 283.213C249.161 282.5 247.816 282.086 246.861 281.496C246.202 282.21 245.479 282.927 245.012 283.686C244.476 284.711 244.132 285.781 243.659 286.856C242.649 285.847 240.926 284.975 240.628 283.829C239.791 280.598 237.704 281.798 236.059 283.505C233.162 286.533 230.881 287.794 227.734 284.086C226.977 283.277 224.728 282.955 222.993 282.716C219.715 282.335 216.367 282.168 213.086 281.892C213.693 283.763 213.91 285.756 214.906 287.504C218.387 293.779 216.353 295.556 206.241 295.321C200.895 295.19 195.471 295.748 190.115 296.091C185.019 296.371 179.586 297.351 177.743 292.9C177.746 292.742 174.839 293.082 174.838 293.135C174.607 298.205 171.293 296.349 167.45 295.203C165.464 294.659 162.486 295.318 159.97 295.43C161.557 296.625 163.08 297.822 164.796 298.958C165.177 299.257 166.211 299.106 166.786 299.344C168.637 300.21 170.489 301.076 172.143 302.109C172.334 302.206 170.821 303.749 170.564 303.708C168.444 303.381 166.393 302.84 164.408 302.243C162.678 301.74 161.144 301.123 159.481 300.512C158.94 301.748 158.077 302.999 157.923 304.218C156.647 303.59 136.838 304.893 135.361 304.643C133.371 304.257 130.98 304.574 128.925 304.244C126.356 303.779 123.923 303.044 121.422 302.417C123.618 302.161 125.813 301.958 127.947 301.599C128.853 301.401 130.152 300.922 130.42 300.435C130.686 300.002 129.799 299.251 129.098 298.86C126.101 297.307 113.766 298.647 113.011 300.894C111.777 304.586 108.781 302.927 106.599 302.497C100.502 301.293 109.21 300.852 107.29 300.2C104.347 299.171 100.26 297.351 98.0548 298.028C88.7157 300.974 91.4197 294.74 89.7125 293.129C86.8033 290.413 92.0192 290.602 95.0624 289.887C101.148 288.509 104.092 286.322 98.1716 282.738C95.3712 281.018 101.709 270.353 105.459 269.765C105.846 269.747 106.66 270.923 106.968 271.595C108.017 273.92 109 276.248 110.049 278.573C110.894 278.219 112.382 277.889 112.52 277.462C113.746 274.192 121.263 272.118 117.806 267.845C116.235 265.859 115.509 263.519 114.329 261.358C112.528 258.013 112.006 255.137 119.749 254.634C120.781 254.588 121.767 253.648 122.809 253.128C121.913 252.799 121.084 252.361 120.122 252.14C113.387 250.595 106.848 248.936 99.4932 252.532C97.4766 253.465 93.8764 253.045 91.0406 253.066C89.3002 253.091 87.6329 252.691 85.8925 252.715C78.7353 252.929 71.4362 253.781 64.4875 253.247C56.381 252.606 60.1965 245.584 54.5698 243.41C53.483 242.984 50.2548 243.286 49.5325 243.951C44.1494 248.829 42.4037 249.117 39.5438 243.974C37.616 240.528 35.8186 240.187 31.1394 242.134C29.9688 242.661 27.6016 241.817 25.7375 241.584C26.9919 240.105 27.813 237.75 29.5619 237.303C33.449 236.287 38.0166 236.663 41.8402 235.597C43.6537 235.147 44.4124 232.689 45.6678 231.157C43.936 230.76 41.701 229.753 40.597 230.171C36.5058 231.723 31.8723 228.24 27.4738 232.231C25.1768 234.283 22.4547 231.874 24.0476 229.59C26.2312 226.394 24.8315 226.393 20.2322 226.389L20.1816 226.389C16.5729 226.391 13.1371 224.225 9.74753 222.953C9.62067 222.853 10.2279 221.508 10.8127 221.271C13.1475 220.535 15.7951 220.259 18.0676 219.42C19.8197 218.815 21.1333 217.597 22.6349 216.634C21.0278 216.442 19.3519 216.464 17.9426 216.052C15.8925 215.458 12.3084 214.248 12.5094 213.87C13.8518 211.227 15.5812 208.568 18.1394 206.346C19.4519 205.18 22.8692 205.081 24.9514 204.092C25.5372 203.803 25.4489 201.804 24.6211 201.314C21.0573 199.1 17.2323 197.057 13.2107 195.181C9.2524 193.354 10.9326 193.121 14.5509 192.644C21.3351 191.762 28.059 190.672 34.8463 189.632C35.7504 189.539 36.5985 189.027 37.5079 188.67C36.7425 188.283 36.1103 187.678 35.2761 187.505C29.2443 186.245 23.0813 185.096 17.0505 183.783C11.0186 182.523 10.2832 180.659 16.4576 178.065C17.8217 177.529 18.8074 176.59 19.9834 175.799C18.6343 175.596 17.2206 175.395 15.9381 175.083C14.4643 174.675 13.0571 174.158 11.5843 173.696L15.3025 171.475C16.5429 170.682 17.7823 169.942 19.0228 169.148C13.0747 166.936 15.721 163.55 16.8204 160.181C17.5082 158.042 15.7147 154.327 16.8875 153.695C22.1493 151.616 28.1766 149.925 34.1191 149.239C38.5114 148.727 43.1877 150.1 47.7553 150.476C49.557 150.607 53.0389 150.505 53.2409 150.074C54.3114 148.129 54.9358 145.94 54.6529 144.003C54.5389 143.27 51.5933 142.347 49.8529 142.372C46.6946 142.407 43.1461 142.617 40.3556 143.585C32.3085 146.368 25.6702 143.237 18.529 142.659C16.5983 142.534 14.5857 140.094 14.104 138.429C13.8695 137.507 16.446 135.952 18.145 134.927L18.2359 134.872C23.9104 131.509 30.2431 130.648 37.4434 131.487C44.9641 132.417 51.8106 131.638 55.5391 125.727C57.2696 123.015 68.5783 121.457 72.6698 123.067C73.117 123.258 72.7086 124.33 72.5657 125.022C72.281 126.352 71.8662 127.741 71.5158 129.127C73.4476 129.199 75.3138 129.327 77.2477 129.293C78.3441 129.244 79.3858 128.724 80.4167 128.731C81.769 128.776 83.1149 129.137 84.3995 129.344C83.416 130.178 82.6776 131.634 81.5134 131.844C71.097 133.889 76.9959 138.528 76.6662 142.074C76.5932 142.499 79.9913 143.349 81.7338 143.219C86.5099 142.848 90.7023 142.661 91.266 146.642C92.6871 146.473 94.7457 146.645 95.4014 146.089C105.239 137.64 106.666 127.667 109.825 118.04C110.1 117.184 109.218 116.222 108.849 115.342C107.13 111.097 109.736 112.878 113.392 110.555C120.965 105.738 132.049 112.096 137.414 104.9C137.545 104.789 139.537 105.069 140.563 105.34C147.55 107.189 150.15 106.072 153.47 101.234C154.864 99.2215 149.983 95.2222 157.978 95.0245C157.67 94.3003 157.69 93.3507 157.056 92.7991C156.297 92.095 154.499 91.8062 153.933 91.0934C148.406 84.0133 148.087 83.8694 135.456 83.9046C133.264 83.9495 131.004 84.1555 128.948 83.8781C126.442 83.5153 122.393 83.0104 122.09 82.0224C121.546 80.2546 123.139 77.97 124.274 76.0221C124.541 75.5886 126.734 75.4909 128.028 75.2225C128.076 76.0109 128.254 76.7936 128.173 77.5878C128.02 78.8069 127.738 79.979 127.52 81.2009C130.677 81.2185 133.9 81.1804 137.057 81.198C136.825 79.9434 136.271 78.6504 136.49 77.3757C136.634 76.6314 137.885 75.3635 138.854 75.2149C141.246 74.8449 143.822 74.9411 146.27 74.9375C154.843 74.8194 163.479 74.8039 172.054 74.5803C173.473 74.5172 174.912 73.4517 176.342 72.861C175.187 72.5961 174.035 72.2258 172.879 72.0137C169.22 71.3333 165.496 70.6558 161.837 69.9754C166.164 69.5192 170.553 69.1657 174.882 68.6041C175.979 68.5025 177.023 67.8763 178.127 67.4582C177.105 67.0293 176.018 66.6034 174.93 66.2301C173.65 65.76 172.305 65.3983 171.024 64.9809C172.513 64.6511 174.001 64.3741 175.427 63.9416C176.854 63.5092 179.119 63.0394 179.39 62.3949C181.971 55.8498 188.665 59.3994 190.116 60.9687C193.584 64.7146 203.556 62.3205 204.283 67.7696C207.452 67.2069 211.832 67.3282 213.47 65.9903C220.611 60.2437 228.808 62.7776 236.667 62.9022C239.437 62.937 242.333 63.1243 244.835 63.6981C247.208 64.2249 249.378 65.2879 251.289 66.3623C251.607 66.559 250.341 68.6182 249.825 68.6412C247.246 68.7033 244.618 68.0297 242.035 68.3028C238.355 68.6247 234.602 69.3715 231.293 70.5203C230.708 70.7571 231.605 74.1958 233.126 75.4457C233.886 76.0971 238.533 75.7321 239.646 74.892C244.228 71.3675 248.145 72.0364 252.548 74.2123C253.824 74.8406 256.069 75.3204 257.622 75.0405C265.317 73.6965 272.008 74.242 278.789 76.6808C280.9 77.4829 285.451 75.4883 288.943 74.8585C290.69 74.5172 292.892 73.9975 294.302 74.3564C302.249 76.5326 302.119 76.591 303.146 70.4314C303.585 67.8292 304.411 65.2098 305.43 62.6346C305.701 61.9901 307.58 61.4848 308.687 60.9084C309.123 61.6796 309.882 62.3837 309.994 63.222C310.224 64.5822 310.13 66.0094 310.167 67.3781C312.182 66.5506 314.514 65.9196 316.275 64.8926C322.342 61.2493 338.082 63.6056 340.235 68.675C340.295 68.8831 337.699 69.7893 336.272 70.2217C334.457 70.7769 332.579 71.2294 330.701 71.682C331.965 72.8906 332.701 74.7553 334.496 75.2025C338.854 76.3788 345.044 76.2087 340.879 81.4012C340.351 82.0045 342.001 83.2487 342.627 84.1695C344.508 83.5587 347.806 82.9903 348.013 82.2959C349.136 77.7658 355.541 73.3697 350.159 68.6548C349.335 67.9536 351.009 64.8749 351.202 64.8663C355.518 64.9377 359.763 65.3285 364.011 65.6137C362.822 67.037 361.761 68.5073 360.572 69.9306C359.78 70.8619 358.86 71.7461 358.003 72.6803C359.413 73.0919 361.004 74.0752 362.297 73.8595C366.305 73.2067 372.659 74.5051 372.058 69.1558C371.948 68.2647 374.562 66.4617 376.113 66.2345C380.83 65.6029 385.665 65.4931 390.503 65.2778C391.857 65.2175 393.136 65.6876 394.358 65.844C393.495 67.042 393.008 68.8557 391.711 69.2296C389.443 69.8577 386.556 69.2483 384.224 69.8265C382.41 70.3289 381.026 71.8135 379.459 72.832C381.186 73.4403 383.477 74.8668 384.451 74.5072C389.515 72.6479 391.532 74.8772 394.528 76.4831C401.668 80.3291 409.722 83.5546 407.955 91.2229C407.746 92.0228 410.497 93.0072 411.896 93.8936L414.083 90.9502C414.611 90.2941 414.884 89.5441 415.477 88.938C416.661 87.7257 418.037 86.6103 419.35 85.4451C420.813 86.3814 422.211 87.3205 423.805 88.1983C425.844 89.3198 428.078 90.3799 430.183 91.4457C430.537 89.8488 430.956 88.2489 431.247 86.6548C432.334 80.7033 425.63 80.7909 419.582 80.3222C418.167 80.2271 416.956 79.5431 415.676 79.1258C416.267 78.5724 416.999 77.433 417.514 77.4627C425.562 77.7897 430.311 72.413 437.543 71.6694C440.191 71.3935 443.009 72.2695 445.64 72.7848C446.219 72.8645 446.653 73.6884 446.642 74.216C446.68 75.5319 439.697 73.5237 443.959 76.2328C445.041 76.9226 453.063 78.5683 454.191 73.7745C454.755 71.3776 457.282 67.523 450.264 67.2029C447.753 67.1039 445.164 67.6935 442.652 67.5945C441.107 67.5579 439.638 66.8853 438.1 66.4795C439.601 65.5166 441.117 63.868 442.536 63.8048C452.467 63.4681 462.456 63.3924 472.379 63.4778C473.538 63.4788 474.477 64.8601 475.557 65.6026C474.133 65.9296 472.703 66.5203 471.285 66.5834C468.381 66.7654 465.36 66.3728 462.58 66.8128C461.158 67.0342 460.032 68.5601 458.724 69.5144C460.125 70.2953 461.576 71.8646 462.931 71.7516C466.03 71.4555 469.146 70.3681 472.253 69.65C480.216 67.8725 484.873 70.1951 484.057 75.4493C483.906 76.5629 483.296 78.013 484.054 78.7699C487.398 82.3105 485.433 83.8737 479.487 84.7182C477.743 84.954 474.816 86.2965 474.802 86.9823C474.777 88.1957 476.688 89.2701 477.826 90.379C479.26 89.5773 480.629 88.7784 482.062 88.0295C482.909 87.5701 483.757 87.058 484.729 86.8039C495.117 83.4058 495.109 83.3904 491.327 76.0389L491.265 75.919C490.087 73.6524 490.515 71.5778 495.857 71.9198C501.006 72.2176 506.396 73.348 511.104 69.9761C511.563 69.5867 513.939 70.008 515.026 70.434C529.733 76.0513 545.087 75.2097 560.286 69.3152C562.105 68.6018 566.331 66.7271 566.358 65.4082C566.333 57.1345 573.068 61.8417 577.769 62.0014C583.886 62.2034 590.198 62.3969 596.27 61.6522C602.989 60.826 609.474 58.798 616.137 57.5527C622.669 56.3659 620.914 60.2916 622.353 62.4413L622.484 62.6094C623.327 63.6867 624.249 64.8655 625.708 65.4016C626.475 65.6836 628.691 64.4782 630.185 63.8846C632.46 62.9401 634.817 61.0958 637.009 61.0509C642.555 60.8568 649.087 62.8323 649.413 56.335C651.665 56.4983 654.05 56.4448 656.233 56.822C663.554 58.0773 670.743 59.4966 678.065 60.6991C679.092 60.8642 681.492 60.1249 681.76 59.5859C684.928 52.7512 689.615 56.7591 691.827 58.8742C694.483 61.3913 696.375 60.253 700.05 60.1421C707.208 59.8761 716.556 56.5085 721.651 62.6591C721.902 63.0169 725.451 62.7535 726.042 62.2001C730.312 58.2152 733.449 59.2351 738.628 61.2182C742.336 62.6871 748.61 61.5117 753.766 61.4931C760.403 61.5139 767.038 61.6402 773.678 61.5027C791.018 61.2051 808.18 63.3928 825.866 58.7579C831.437 57.2976 838.68 59.2416 845.188 59.2681C848.603 59.2742 852.161 58.5888 855.586 58.1201C856.555 58.0243 857.798 57.0729 858.375 57.2581C872.535 61.2659 888.631 58.7573 903.477 60.7318C915.173 62.3194 927.61 62.2928 939.78 62.7525C942.099 62.8074 944.633 61.7986 947.027 61.3231C948.645 60.9875 951.749 60.4277 951.81 60.5831C954.41 65.8434 960.807 61.8165 965.241 62.4097C971.026 63.1536 976.736 64.3752 982.656 64.7968C987.932 65.1945 993.551 64.5754 998.895 64.8119C1011.77 65.3982 1023.71 67.8184 1032.61 73.6414C1037.7 76.999 1042.53 76.9419 1048.95 74.9168C1051.61 74.0605 1054.96 74.175 1057.99 74.04C1066.12 73.6255 1074.55 74.0407 1082.32 72.5883C1085.68 71.9642 1087.23 71.7898 1090.44 72.3848C1100.13 74.1669 1110.21 73.086 1120.36 71.5801C1139.26 68.7423 1157.51 70.6074 1175.69 72.465L1177.3 72.6293C1184.44 73.3657 1184.8 77.7769 1185.82 81.3154C1187.03 85.4255 1186.88 89.7542 1187.95 93.8701C1190.23 102.307 1193.93 110.523 1195.24 119.056C1196.49 127.433 1195.48 136.069 1195.5 144.554Z" fill="#DFF5B0"/>
<path d="M84.4849 86.1049C86.0909 85.4593 87.8931 84.9652 89.2364 84.0614C91.2827 82.6468 93.0469 79.7393 94.8545 79.5819C101.894 79.1376 95.2224 82.4162 96.0838 83.7462C96.2828 84.0661 97.3166 84.0323 97.8374 84.2679C99.2683 84.8178 100.635 85.4293 102.003 86.0409C101.3 86.5517 100.597 87.0625 99.8936 87.5734C100.893 89.4534 101.893 91.3895 102.892 93.2696C105.331 92.158 109.325 91.2483 109.886 89.9068C111.691 85.4784 107.027 80.8263 112.645 76.3468C112.061 76.1729 111.342 75.6735 110.826 75.7746C103.554 77.8129 100.121 73.3346 94.612 72.4093C91.5655 71.8877 87.3623 71.8041 84.7942 72.9269C82.6753 73.842 81.8822 76.8336 81.1403 78.9776C80.7697 80.0777 81.6311 81.4077 82.1662 82.5414C82.833 83.8321 83.7553 84.932 84.4849 86.1049Z" fill="#DFF5B0"/>
</svg>
