<svg width="331" height="164" viewBox="0 0 331 164" fill="none" xmlns="http://www.w3.org/2000/svg">
<path d="M321.623 64.5238C321.592 65.3163 321.436 66.1952 321.649 66.8662C322.955 71.0172 322.699 75.4717 322.034 79.959C321.124 85.1284 319.944 90.2684 318.999 95.4406C318.589 97.716 318.498 100.017 318.222 102.307C318.132 102.951 317.989 103.625 317.798 104.252C317.391 105.635 315.314 106.872 317.045 108.517C317.093 108.564 316.399 109.639 316.089 110.275C315.644 111.177 313.971 111.897 315.348 113.24C315.38 113.262 314.691 114.541 314.203 115.039C305.115 124.124 294.843 127.342 284.12 128.226C282.126 128.385 280.186 129.05 278.164 128.269C276.989 127.803 274.946 129.037 273.558 130.091C272.099 131.201 271.198 130.968 270.349 129.863C269.094 128.205 268.17 128.891 266.799 130.504C265.921 131.543 264.412 132.097 263.152 132.453C259.409 133.466 255.669 133.612 252.012 136.555C249.585 138.508 246.467 139.292 243.619 140.107C240.822 140.917 237.943 140.841 235.133 141.576C233.807 141.911 233.711 141.537 233.617 140.296C233.542 139.308 233.281 138.309 232.89 137.5C232.664 137.034 232.055 136.726 231.566 136.688C231.363 136.679 231.034 137.623 230.733 138.106C230.339 138.723 229.829 139.834 229.509 139.809C228.849 139.785 228.079 139.337 227.692 138.731C226.16 136.331 226.214 136.276 224.279 139.081C223.888 139.647 223.511 140.264 223.042 140.709C222.43 141.293 221.721 141.783 221.063 142.294C221.114 141.449 221.323 140.541 221.147 139.816C220.958 139.015 220.42 138.396 220.022 137.689C219.386 138.377 217.661 136.629 217.885 139.338C217.915 139.692 217.355 140.247 217.073 140.703C216.93 140.255 216.878 139.724 216.646 139.361L216.634 139.344C216.356 138.935 216.003 138.417 215.589 138.35C214.967 138.246 214.154 138.235 213.588 138.612C210.884 140.382 208.414 141.396 206.491 138.186C206.251 137.755 206.113 138.052 205.518 139.338L205.482 139.413C205.11 140.233 204.341 140.881 203.693 141.493C203.584 141.604 203.067 141.187 202.864 140.897C202.478 140.291 202.231 139.062 201.808 139.045C200.622 139.012 199.39 139.468 198.181 139.819C197.854 139.897 197.54 140.329 197.217 140.61C197.162 137.353 194.752 140.145 193.724 139.208C193.339 138.856 192.51 139.101 191.877 139.177C191.518 139.232 191.129 139.492 190.763 139.649C190.777 139.418 190.731 139.065 190.821 138.982C191.196 138.671 191.602 138.409 192.002 138.25C192.855 137.901 193.719 137.628 194.587 137.304C193.894 136.442 193.295 135.42 192.468 134.798C191.463 134.037 189.82 135.112 189.253 136.61C188.971 137.346 188.423 137.976 188.192 138.708C187.963 139.389 188.02 140.123 187.944 140.817C187.174 140.65 186.311 140.617 185.639 140.237C184.476 139.566 183.514 138.369 181.93 139.591C181.787 139.705 181.516 139.701 181.386 139.609C180.816 139.222 180.265 138.807 179.697 138.394C179.812 139.277 179.839 140.217 180.076 141.065C180.698 143.359 180.028 144.05 178.322 143.397C174.833 144.976 174.177 141.282 172.613 139.675C170.635 137.641 167.788 137.869 166.573 141.101C165.862 143.018 165.642 144.667 163.813 142.672C162.956 141.722 161.745 142.379 161.086 143.732C159.498 146.942 156.67 147.423 154.339 148.935C154.021 149.139 153.178 148.773 153.033 148.377C152.551 147.116 152.226 145.766 151.938 144.388C151.596 142.758 149.503 141.499 148.281 142.336C148.016 142.51 147.702 143.198 147.77 143.472C148.027 144.548 148.368 145.616 148.818 146.574C149.146 147.312 149.705 147.879 150.086 148.588C150.117 148.636 149.467 149.274 149.14 149.632C148.053 146.89 147.042 149.825 146.296 150.369C143.188 152.656 141.713 152.647 138.816 149.821C138.561 149.561 137.99 149.734 137.552 149.693C137.342 151.188 136.781 151.207 136.318 150.174C135.914 149.289 135.034 148.442 136.156 147.001C137.298 145.534 137.095 143.588 135.831 142.899C135.732 142.856 135.279 143.326 135.158 143.641C134.818 144.484 135.248 145.774 133.77 145.816C132.326 145.856 130.866 146.151 129.412 146.344C129.569 145.719 129.606 144.85 129.945 144.568C131.485 143.247 131.446 141.951 130.743 140.401C130.533 139.96 130.696 139.233 130.681 138.648C130.664 138.369 130.649 138.065 130.632 137.786C128.698 140.285 128.707 136.258 127.316 136.828C127.263 136.858 127.061 136.007 126.918 135.56C127.329 135.502 127.721 135.47 128.115 135.413C128.594 135.35 129.054 135.313 129.533 135.249C129.242 134.737 129.069 133.961 128.643 133.715C127.579 133.086 126.403 132.62 125.221 132.256C124.506 132.033 123.539 131.753 122.972 132.156C120.915 133.62 120.226 132.12 119.383 130.659C118.846 129.734 118.236 128.891 117.647 127.995C117.119 129.413 115.079 129.755 115.532 132.063C115.658 132.766 114.408 134.064 113.771 135.058C113.678 135.193 113.456 135.211 113.299 135.274C113.124 133.989 113.64 132.215 111.889 131.998C111.72 131.986 109.803 128.954 109.51 129.309C109.108 129.774 108.759 130.49 108.687 131.107C108.377 133.681 107.515 134.463 105.558 134.008C104.354 133.722 103.045 133.776 101.862 133.438C101.228 133.259 100.689 132.64 100.268 132.036C99.8474 131.433 99.7804 130.037 99.3435 129.97C97.9833 129.747 96.5282 129.966 95.0965 130.08C94.9431 130.093 94.7614 130.566 94.5923 130.834C94.8029 130.996 95.018 131.361 95.2241 131.319C95.7897 131.223 96.3928 130.792 96.9164 130.827C97.4572 130.86 98.0999 131.165 98.3583 131.654C98.5563 132.02 98.2179 132.837 98.1291 133.456C97.5777 133.322 96.7734 133.437 96.5274 133.024C95.681 131.613 94.6348 132.079 93.4784 132.682C92.4446 133.223 91.6574 133.337 91.3301 131.758C90.8084 129.2 88.8073 130.303 87.278 130.349C87.2269 130.354 86.756 132.226 86.9681 132.362C88.0893 133.164 87.8684 134.277 87.0666 135.183C86.6852 135.595 85.7681 135.337 85.1081 135.314C84.5828 135.305 84.0083 134.994 83.5371 135.21C82.7001 135.583 81.5405 138.454 81.4487 134.97C80.8396 135.222 80.1701 135.352 79.6368 135.752C78.2849 136.777 77.4076 137.255 75.8529 136.055C74.5878 135.111 72.5766 135.272 71.6081 133.362C71.5184 133.165 70.8351 133.246 70.5343 133.448C69.491 134.143 69.5049 134.193 69.4239 132.747C69.4011 132.29 69.4665 131.775 69.3367 131.403C69.2052 131.057 68.8614 130.855 68.6246 130.568C68.4338 130.915 68.2259 131.263 68.0846 131.631C67.9184 132.128 67.8018 132.647 67.6511 133.169C67.4098 132.679 66.9778 132.255 66.9271 131.698C66.7858 130.13 66.2074 130.711 65.7327 131.539C64.8964 133.007 64.2653 133.619 63.5277 131.817C63.3482 131.424 62.7642 131.267 62.3134 131.15C61.4599 130.964 60.583 130.881 59.7263 130.746C59.8402 131.654 59.8488 132.622 60.0681 133.47C60.8311 136.518 60.2525 137.38 57.597 137.261C56.1933 137.195 54.7521 137.464 53.3343 137.628C51.9862 137.761 50.5325 138.234 50.1561 136.073C50.1608 135.996 49.3875 136.16 49.386 136.186C49.2012 138.647 48.3746 137.745 47.3911 137.186C46.8816 136.921 46.0818 137.24 45.4171 137.293C45.8056 137.874 46.177 138.456 46.6011 139.008C46.6939 139.153 46.9698 139.08 47.1153 139.196C47.5814 139.617 48.0474 140.039 48.4576 140.541C48.5056 140.588 48.0696 141.337 48.003 141.317C47.4531 141.157 46.9265 140.893 46.4185 140.602C45.9756 140.358 45.5869 140.057 45.1642 139.76C44.9917 140.36 44.7341 140.967 44.6639 141.558C44.3434 141.253 39.0982 141.876 38.7156 141.754C38.2013 141.566 37.5644 141.719 37.0315 141.558C36.367 141.331 35.7444 140.973 35.1017 140.667C35.6859 140.544 36.2685 140.447 36.8389 140.274C37.0822 140.178 37.4356 139.945 37.5179 139.709C37.5987 139.499 37.3836 139.134 37.2086 138.944C36.4578 138.189 33.1787 138.834 32.9253 139.924C32.5103 141.716 31.7625 140.909 31.1987 140.7C29.6234 140.112 31.926 139.902 31.4366 139.585C30.6871 139.084 29.6559 138.198 29.0591 138.526C26.5294 139.952 27.3932 136.927 26.9832 136.144C26.2839 134.824 27.652 134.919 28.4703 134.573C30.1055 133.907 30.9337 132.847 29.4631 131.104C28.768 130.268 30.6964 125.093 31.6976 124.809C31.7998 124.801 31.9853 125.372 32.0501 125.698C32.2693 126.828 32.4714 127.958 32.6905 129.087C32.9215 128.916 33.3214 128.757 33.368 128.549C33.7705 126.962 35.7995 125.959 34.9938 123.883C34.6289 122.918 34.495 121.782 34.2371 120.733C33.8448 119.108 33.7777 117.711 35.8278 117.471C36.1005 117.449 36.3828 116.993 36.6696 116.741C36.442 116.581 36.2346 116.368 35.9867 116.261C34.252 115.507 32.5715 114.699 30.5482 116.441C29.9947 116.893 29.0575 116.688 28.3107 116.697C27.852 116.708 27.423 116.513 26.9644 116.524C25.0756 116.624 23.1339 117.035 21.3182 116.772C19.2004 116.457 20.3759 113.051 18.9482 111.993C18.6726 111.785 17.8156 111.93 17.6093 112.253C16.0736 114.618 15.6071 114.757 14.98 112.259C14.5567 110.586 14.092 110.419 12.8131 111.363C12.4921 111.618 11.8897 111.207 11.4049 111.093C11.7711 110.376 12.0447 109.233 12.5158 109.016C13.5636 108.525 14.7565 108.71 15.7888 108.194C16.277 107.976 16.5367 106.783 16.9045 106.04C16.4584 105.847 15.8948 105.357 15.5941 105.559C14.4795 106.311 13.3451 104.618 12.0901 106.553C11.4355 107.549 10.7779 106.378 11.2529 105.27C11.9056 103.719 11.5372 103.718 10.3269 103.714L10.3136 103.714C9.36382 103.714 8.51247 102.66 7.65148 102.041C7.62053 101.993 7.81317 101.34 7.97284 101.226C8.60528 100.869 9.30881 100.736 9.92733 100.33C10.4032 100.037 10.7786 99.4466 11.1973 98.9799C10.7791 98.886 10.3375 98.8958 9.97663 98.6954C9.45161 98.4061 8.53792 97.8167 8.60004 97.6333C9.01783 96.3512 9.53788 95.061 10.2654 93.9834C10.6392 93.4183 11.541 93.3716 12.1131 92.8926C12.2744 92.7523 12.2999 91.7819 12.094 91.5436C11.2101 90.4676 10.2534 89.4739 9.24079 88.5611C8.24366 87.6726 8.69153 87.5603 9.65543 87.3303C11.4624 86.9053 13.2585 86.3793 15.0702 85.8775C15.3104 85.8328 15.5461 85.5846 15.7941 85.4118C15.6021 85.2234 15.4505 84.9297 15.2352 84.845C13.6785 84.2306 12.0846 83.6702 10.5295 83.0302C8.97286 82.4158 8.82482 81.5102 10.5131 80.2538C10.8852 79.9947 11.1675 79.5389 11.4963 79.1558C11.1462 79.0565 10.779 78.9584 10.4491 78.8065C10.0712 78.6074 9.71353 78.3557 9.3372 78.131L10.3699 77.0545C10.7158 76.67 11.06 76.3112 11.4058 75.9268C9.89443 74.8501 10.6735 73.2078 11.0451 71.5726C11.2783 70.5346 10.897 68.7304 11.2211 68.4241C12.6566 67.4173 14.2841 66.599 15.8647 66.2686C17.0332 66.0222 18.2303 66.6909 19.4232 66.8757C19.8942 66.9399 20.813 66.8918 20.8767 66.6829C21.2059 65.7391 21.4237 64.6769 21.3965 63.7362C21.3844 63.3804 20.6317 62.931 20.1731 62.9423C19.3411 62.9579 18.402 63.0586 17.644 63.527C15.4583 64.8741 13.7877 63.3515 11.9224 63.0676C11.4174 63.0061 10.9473 61.8205 10.8612 61.012C10.8219 60.5645 11.5379 59.8108 12.0101 59.3137L12.0354 59.2871C13.6108 57.6575 15.2985 57.2421 17.1729 57.6527C19.1295 58.1076 20.9503 57.7325 22.0758 54.8648C22.5975 53.5489 25.6116 52.798 26.6491 53.5814C26.7622 53.6742 26.6285 54.1946 26.574 54.5302C26.4666 55.1759 26.3235 55.8499 26.1975 56.5225C26.7041 56.5584 27.1921 56.6213 27.7019 56.606C27.9917 56.5828 28.2785 56.3305 28.5496 56.3343C28.9044 56.3568 29.2498 56.533 29.5829 56.6338C29.3037 57.0384 29.0738 57.7448 28.7623 57.8462C25.9711 58.8341 27.4102 61.0888 27.2369 62.81C27.2073 63.0163 28.0809 63.4305 28.5426 63.3681C29.8086 63.1903 30.9165 63.1016 30.9677 65.0342C31.3458 64.9529 31.8834 65.0373 32.0695 64.7676C34.8647 60.6705 35.4836 55.8302 36.5501 51.1579C36.6434 50.7427 36.4346 50.2752 36.359 49.8481C36.0104 47.7864 36.6528 48.6524 37.6716 47.526C39.7821 45.191 42.5439 48.2827 44.1316 44.7919C44.1689 44.738 44.6863 44.8749 44.9495 45.0067C46.7431 45.908 47.4546 45.3668 48.4465 43.0195C48.8625 42.0433 47.6757 40.0997 49.7845 40.0073C49.7212 39.6556 49.7495 39.1947 49.5963 38.9266C49.4137 38.5845 48.9474 38.4434 48.816 38.0972C47.5342 34.6577 47.4537 34.5877 44.1287 34.599C43.5507 34.6198 42.9511 34.7188 42.4166 34.5832C41.766 34.4059 40.7126 34.159 40.6572 33.6792C40.5572 32.8208 41.0321 31.7125 41.3784 30.7674C41.4591 30.5571 42.0386 30.5107 42.3858 30.381C42.3793 30.7638 42.4069 31.1438 42.3663 31.5293C42.2961 32.121 42.1934 32.6898 42.1062 33.2829C42.9367 33.2929 43.7858 33.2759 44.6162 33.2859C44.5857 32.6767 44.4715 32.0488 44.5603 31.4301C44.6164 31.0689 44.9763 30.4539 45.2351 30.3823C45.8736 30.2037 46.5491 30.2516 47.1937 30.251C49.4527 30.1975 51.7257 30.194 53.9879 30.0893C54.3629 30.0593 54.7677 29.5427 55.1584 29.2566C54.861 29.1275 54.5667 28.9472 54.2678 28.8438C53.3214 28.5118 52.3579 28.1812 51.4115 27.8492C52.5613 27.6298 53.725 27.4602 54.878 27.1895C55.1693 27.1407 55.4593 26.8372 55.76 26.6347C55.5014 26.4261 55.2258 26.2188 54.9486 26.0371C54.6234 25.8083 54.278 25.6321 53.9513 25.4289C54.3511 25.2695 54.7494 25.1357 55.1354 24.9264C55.5214 24.7171 56.1289 24.4901 56.2159 24.1774C57.0551 21.0013 58.7302 22.7274 59.0735 23.4899C59.8949 25.3099 62.5778 24.1523 62.6361 26.7978C63.4839 26.5261 64.6335 26.587 65.0973 25.9383C67.1167 23.1519 69.2121 24.3857 71.2774 24.4497C72.0056 24.4679 72.7632 24.5601 73.4075 24.8398C74.0194 25.0966 74.5644 25.6136 75.0412 26.1361C75.1201 26.2317 74.7366 27.2307 74.6003 27.2417C73.9201 27.2706 73.2448 26.9424 72.5583 27.0738C71.582 27.2284 70.5762 27.5893 69.6771 28.1454C69.5175 28.2601 69.6695 29.9298 70.0394 30.5373C70.2235 30.8538 71.4554 30.6787 71.7687 30.2714C73.0607 28.5626 74.0753 28.8891 75.1807 29.9473C75.5012 30.253 76.0805 30.4869 76.4959 30.3517C78.554 29.7028 80.3015 29.9706 82.0266 31.1576C82.5624 31.548 83.8089 30.5818 84.7434 30.2776C85.2114 30.1127 85.8035 29.8615 86.1659 30.0363C88.2041 31.0964 88.1685 31.1247 88.5891 28.135C88.7683 26.872 89.0497 25.6008 89.3807 24.3512C89.4677 24.0384 89.9745 23.794 90.28 23.5147C90.3758 23.8893 90.5583 24.2314 90.5673 24.6384C90.5947 25.2988 90.5353 25.9916 90.5115 26.656C91.0619 26.2552 91.6912 25.95 92.1796 25.4522C93.8652 23.6864 97.9501 24.8374 98.3928 27.2993C98.4036 27.4004 97.6983 27.8391 97.3123 28.0483C96.8209 28.317 96.3157 28.5358 95.8104 28.7547C96.1136 29.342 96.2617 30.2475 96.7232 30.4654C97.8414 31.0384 99.4746 30.9587 98.2517 33.4774C98.0981 33.77 98.502 34.3748 98.6442 34.8221C99.1542 34.5264 100.036 34.252 100.108 33.915C100.514 31.7164 102.306 29.5852 101.005 27.294C100.806 26.9533 101.321 25.4595 101.372 25.4554C102.506 25.492 103.614 25.6836 104.725 25.8241C104.377 26.5144 104.062 27.2277 103.715 27.9181C103.483 28.3698 103.22 28.7986 102.971 29.2517C103.332 29.4522 103.727 29.9302 104.073 29.8261C105.143 29.511 106.784 30.1442 106.756 27.5472C106.749 27.1146 107.481 26.2405 107.895 26.131C109.151 25.8265 110.427 25.7754 111.705 25.673C112.063 25.6444 112.388 25.8732 112.706 25.9497C112.45 26.5308 112.277 27.4111 111.927 27.592C111.314 27.8958 110.569 27.5987 109.942 27.8783C109.452 28.1214 109.051 28.8415 108.614 29.3351C109.054 29.6312 109.622 30.3247 109.887 30.1506C111.265 29.2503 111.742 30.3335 112.491 31.1144C114.276 32.9847 116.317 34.5541 115.665 38.2758C115.59 38.6641 116.29 39.1432 116.637 39.5741L117.284 38.1462C117.439 37.828 117.529 37.464 117.7 37.1701C118.041 36.5821 118.431 36.0413 118.804 35.4762C119.167 35.9314 119.512 36.388 119.91 36.8148C120.419 37.3601 120.981 37.8758 121.509 38.3941C121.641 37.619 121.791 36.8426 121.906 36.0689C122.337 33.1803 120.571 33.2198 118.991 32.9895C118.621 32.9427 118.319 32.6101 117.992 32.4069C118.161 32.1385 118.381 31.5857 118.516 31.6004C120.626 31.7628 122.007 29.1549 123.929 28.7973C124.632 28.6645 125.353 29.091 126.033 29.3424C126.183 29.3813 126.277 29.7815 126.261 30.0376C126.239 30.6764 124.45 29.6984 125.506 31.0154C125.774 31.3508 127.845 32.1533 128.259 29.8267C128.466 28.6635 129.225 26.7934 127.386 26.6348C126.727 26.5856 126.031 26.8707 125.373 26.8214C124.967 26.803 124.597 26.4758 124.202 26.2781C124.621 25.8114 125.06 25.0117 125.435 24.9817C128.056 24.8228 130.687 24.7906 133.297 24.8366C133.602 24.8376 133.815 25.5086 134.081 25.8695C133.698 26.0276 133.308 26.3137 132.933 26.3437C132.164 26.4307 131.379 26.2387 130.637 26.4511C130.257 26.5579 129.923 27.2981 129.556 27.7608C129.905 28.1405 130.249 28.903 130.608 28.8487C131.431 28.7064 132.278 28.1799 133.113 27.8328C135.252 26.9735 136.421 28.1031 136.078 30.6534C136.011 31.1939 135.815 31.8976 135.996 32.2653C136.79 33.9856 136.234 34.7436 134.649 35.1508C134.184 35.2644 133.381 35.9148 133.36 36.2477C133.324 36.8367 133.801 37.3592 134.073 37.898C134.47 37.5095 134.85 37.1223 135.246 36.7594C135.48 36.5368 135.716 36.2886 135.977 36.1657C138.794 34.5208 138.793 34.5133 137.977 30.9429L137.963 30.8847C137.708 29.7838 137.872 28.7769 139.269 28.9454C140.617 29.0923 142.008 29.6435 143.33 28.0088C143.46 27.82 144.075 28.0256 144.35 28.2328C148.084 30.9664 152.145 30.5649 156.289 27.7104C156.785 27.3649 157.943 26.4567 157.982 25.8165C158.178 21.8001 159.835 24.0883 161.069 24.1679C162.674 24.2688 164.33 24.3656 165.946 24.0068C167.734 23.6088 169.491 22.6273 171.275 22.0259C173.023 21.4527 172.465 23.3576 172.791 24.4018C172.995 24.946 173.212 25.5658 173.602 25.8403C173.797 25.9776 174.409 25.3935 174.817 25.106C175.439 24.6485 176.104 23.7543 176.682 23.7335C178.146 23.6418 179.817 24.6038 180.062 21.4499C180.65 21.5302 181.279 21.5053 181.845 21.6894C183.741 22.3021 185.598 22.9944 187.496 23.5815C187.762 23.6621 188.411 23.3043 188.495 23.0427C189.496 19.7263 190.631 21.6741 191.162 22.7019C191.8 23.925 192.325 23.3732 193.295 23.3211C195.186 23.1952 197.728 21.5647 198.919 24.5528C198.976 24.7266 199.916 24.6003 200.085 24.332C201.306 22.3995 202.107 22.896 203.422 23.8611C204.362 24.5758 206.042 24.0081 207.399 24.0014C209.145 24.0145 210.888 24.0788 212.639 24.0151C217.21 23.8786 221.673 24.9484 226.44 22.7065C227.942 22.0001 229.801 22.9471 231.513 22.963C232.412 22.9675 233.365 22.6364 234.278 22.4104C234.535 22.3643 234.885 21.9031 235.032 21.9932C238.661 23.9452 242.959 22.7348 246.817 23.7001C249.857 24.4761 253.131 24.4688 256.322 24.6975C256.931 24.7252 257.622 24.2367 258.264 24.0069C258.698 23.8448 259.529 23.5744 259.541 23.6499C260.097 26.2046 261.879 24.2527 263.031 24.5427C264.535 24.9065 266.008 25.5021 267.556 25.7095C268.935 25.9049 270.429 25.6069 271.829 25.7242C275.204 26.0147 278.286 27.195 280.487 30.0258C281.744 31.658 283.018 31.6325 284.757 30.6523C285.478 30.2379 286.356 30.295 287.157 30.2308C289.306 30.0333 291.516 30.2387 293.594 29.5372C294.494 29.2358 294.907 29.1518 295.737 29.4421C298.245 30.3116 300.922 29.7915 303.63 29.0651C308.821 27.6557 313.712 28.6658 318.59 29.6004C320.451 29.9611 320.438 32.1027 320.621 33.8208C320.838 35.8166 320.693 37.9179 320.875 39.9164C321.269 44.0131 322.042 48.003 322.178 52.1457C322.302 56.2131 321.825 60.405 321.623 64.5238Z" fill="#DFF5B0"/>
</svg>
