<svg id="Capa_1" enable-background="new 0 0 502 502" height="512" viewBox="0 0 502 502" width="512" xmlns="http://www.w3.org/2000/svg" xmlns:xlink="http://www.w3.org/1999/xlink"><linearGradient id="lg1"><stop offset="0" stop-color="#4f4c5f"/><stop offset="1" stop-color="#77718a"/></linearGradient><linearGradient id="SVGID_1_" gradientUnits="userSpaceOnUse" x1="327.288" x2="481.192" xlink:href="#lg1" y1="81.17" y2="81.17"/><linearGradient id="lg2"><stop offset="0" stop-color="#77718a"/><stop offset="1" stop-color="#4f4c5f"/></linearGradient><linearGradient id="SVGID_2_" gradientUnits="userSpaceOnUse" x1="56.118" x2="210.021" xlink:href="#lg2" y1="81.17" y2="81.17"/><linearGradient id="SVGID_3_" gradientUnits="userSpaceOnUse" x1="46.401" x2="147.066" y1="100.311" y2="100.311"><stop offset="0" stop-color="#fdb0bf"/><stop offset="1" stop-color="#fd869c"/></linearGradient><linearGradient id="SVGID_4_" gradientUnits="userSpaceOnUse" x1="11.091" x2="222.885" xlink:href="#lg2" y1="405.919" y2="405.919"/><linearGradient id="SVGID_5_" gradientUnits="userSpaceOnUse" x1="268.655" x2="268.655" xlink:href="#lg2" y1="495.06" y2="243.317"/><linearGradient id="SVGID_6_" gradientUnits="userSpaceOnUse" x1="268.655" x2="268.655" y1="456.977" y2="281.401"><stop offset="0" stop-color="#fff5e3"/><stop offset="1" stop-color="#fbe7b4"/></linearGradient><linearGradient id="SVGID_7_" gradientUnits="userSpaceOnUse" x1="390.244" x2="490.909" y1="100.311" y2="100.311"><stop offset="0" stop-color="#fd869c"/><stop offset="1" stop-color="#fdb0bf"/></linearGradient><linearGradient id="SVGID_8_" gradientUnits="userSpaceOnUse" x1="268.653" x2="268.653" xlink:href="#lg2" y1="341.049" y2="2.06"/><linearGradient id="SVGID_9_" gradientUnits="userSpaceOnUse" x1="122.495" x2="200.488" xlink:href="#lg2" y1="330.525" y2="330.525"/><linearGradient id="SVGID_10_" gradientUnits="userSpaceOnUse" x1="154.16" x2="238.881" xlink:href="#lg2" y1="464.525" y2="464.525"/><linearGradient id="SVGID_11_" gradientUnits="userSpaceOnUse" x1="336.822" x2="414.814" xlink:href="#lg1" y1="330.525" y2="330.525"/><linearGradient id="SVGID_12_" gradientUnits="userSpaceOnUse" x1="298.429" x2="383.149" xlink:href="#lg1" y1="464.525" y2="464.525"/><g><path d="m481.192 34.946c-2.851-5.208-6.382-10.036-10.633-14.338-32.639-33.061-95.662-22.83-124.049 5.918-28.388 28.738-24.929 78.833 7.709 111.883 11.61 11.754 25.351 19.773 39.514 23.931z" fill="url(#SVGID_1_)"/><path d="m56.118 34.946c2.851-5.208 6.382-10.036 10.633-14.338 32.639-33.061 95.662-22.83 124.049 5.918 28.388 28.738 24.929 78.833-7.709 111.883-11.61 11.754-25.351 19.773-39.514 23.931z" fill="url(#SVGID_2_)"/><path d="m147.066 135.908c0 9.15-1.204 18.012-3.489 26.432-25.66 7.524-52.699 2.388-70.99-16.129-24.683-24.991-35.542-76.527-16.469-111.265 51.094 5.28 90.948 48.479 90.948 100.962z" fill="url(#SVGID_3_)"/><path d="m91.523 81.663c-7.461-3.862-16.599-1.021-20.653 6.338-5.835 10.592-10.815 21.651-14.894 33.069 4.328 9.738 9.962 18.408 16.611 25.141 2.03 2.055 4.173 3.936 6.405 5.662 4.141-17.448 10.582-33.931 18.981-49.131 4.183-7.569 1.231-17.103-6.45-21.079z" fill="#fd748d"/><path d="m222.493 437.885c-2.2-11.155-13.025-18.414-24.179-16.214-25.153 4.96-42.988 4.655-54.524-.93-9.28-4.493-15.048-12.798-22.351-23.312-14.242-20.504-33.748-48.586-88.558-51.792-11.353-.663-21.088 7.998-21.753 19.348-.664 11.349 7.999 21.089 19.348 21.752 34.822 2.037 44.187 15.52 57.149 34.18 17.568 25.292 39.432 56.769 118.654 41.147 11.154-2.199 18.413-13.024 16.214-24.179z" fill="url(#SVGID_4_)"/><path d="m399.673 374.335c0 72.359-58.659 120.725-131.018 120.725s-131.018-48.366-131.018-120.725 58.659-131.018 131.018-131.018 131.018 58.659 131.018 131.018z" fill="url(#SVGID_5_)"/><path d="m268.655 456.977c-26.349 0-50.25-8.371-67.301-23.572-16.769-14.949-25.633-35.375-25.633-59.069 0-51.244 41.69-92.935 92.934-92.935s92.934 41.691 92.934 92.935c0 23.695-8.864 44.12-25.633 59.069-17.051 15.201-40.952 23.572-67.301 23.572z" fill="url(#SVGID_6_)"/><path d="m247.001 341.049h-23.248c-13.762 0-27.044-1.852-39.637-5.294-4.224 9.22-6.981 19.246-7.975 29.777 15.371 4.203 31.371 6.395 47.612 6.395h23.249c8.527 0 15.439-6.912 15.439-15.439s-6.913-15.439-15.44-15.439z" fill="#fddcb4"/><path d="m390.244 135.908c0 9.15 1.204 18.012 3.489 26.432 25.66 7.524 52.699 2.388 70.99-16.129 24.682-24.991 35.541-76.527 16.469-111.266-51.094 5.281-90.948 48.48-90.948 100.963z" fill="url(#SVGID_7_)"/><path d="m461.023 217.374-3.016-9.05 4.921-6.477c.661-9.595.412-19.41-.85-29.355-12.36-97.412-95.231-170.432-193.423-170.432-98.192 0-181.063 73.02-193.423 170.431-1.261 9.941-1.516 19.753-.858 29.345l6.2 5.975-4.304 9.612c1.737 9.861 4.453 19.414 8.044 28.55l.003-.016 7.181 4.749-.761 9.38-.01-.001c24.754 47.734 74.592 80.964 133.025 80.964h89.804c58.431 0 108.26-33.231 133.015-80.963l-1.543-9.806 7.963-4.323c3.595-9.144 6.294-18.713 8.032-28.583z" fill="url(#SVGID_8_)"/><g><ellipse cx="161.439" cy="242.67" fill="#ffaecf" rx="18.222" ry="14.643"/><ellipse cx="375.87" cy="242.67" fill="#ffaecf" rx="18.222" ry="14.643"/><circle cx="192.678" cy="206.538" fill="#fff" r="36.132"/><circle cx="344.631" cy="206.538" fill="#fff" r="36.132"/><path d="m204.612 217.613c-2.647 0-5.213-1.404-6.579-3.888-1.571-2.858-4.268-3.167-5.354-3.167s-3.783.309-5.354 3.167c-1.995 3.629-6.555 4.954-10.186 2.959-3.629-1.996-4.955-6.556-2.959-10.186 3.766-6.85 10.681-10.94 18.498-10.94s14.733 4.089 18.5 10.94c1.996 3.63.671 8.19-2.959 10.186-1.147.629-2.386.929-3.607.929z" fill="#383842"/><path d="m356.565 217.613c-2.647 0-5.213-1.404-6.579-3.888-1.571-2.858-4.268-3.167-5.354-3.167s-3.783.309-5.354 3.167c-1.996 3.629-6.558 4.955-10.186 2.959-3.63-1.996-4.955-6.556-2.959-10.186 3.766-6.85 10.682-10.94 18.499-10.94s14.733 4.09 18.499 10.94c1.996 3.63.671 8.19-2.959 10.186-1.147.629-2.385.929-3.607.929z" fill="#383842"/><g><path d="m282.893 255.097h-28.475c-7.94 0-14.376-6.436-14.376-14.376 0-7.94 6.436-14.376 14.376-14.376h28.475c7.94 0 14.376 6.436 14.376 14.376 0 7.939-6.437 14.376-14.376 14.376z" fill="#383842"/></g></g><path d="m161.492 295.993c-21.537 0-38.996 17.459-38.996 38.996 0 16.607 13.462 30.069 30.069 30.069h17.854c16.607 0 30.069-13.462 30.069-30.069 0-21.537-17.459-38.996-38.996-38.996z" fill="url(#SVGID_9_)"/><path d="m208.206 427.05h-23.371c-17.712 0-31.743 14.958-30.611 32.634l.18 2.811c1.423 22.215 19.856 39.505 42.117 39.505 22.261 0 40.694-17.29 42.116-39.505l.18-2.811c1.132-17.676-12.899-32.634-30.611-32.634z" fill="url(#SVGID_10_)"/><path d="m375.818 295.993c21.537 0 38.996 17.459 38.996 38.996 0 16.607-13.462 30.069-30.069 30.069h-17.854c-16.607 0-30.069-13.462-30.069-30.069 0-21.537 17.459-38.996 38.996-38.996z" fill="url(#SVGID_11_)"/><path d="m329.104 427.05h23.371c17.712 0 31.743 14.958 30.611 32.634l-.18 2.811c-1.423 22.215-19.856 39.505-42.117 39.505-22.261 0-40.694-17.29-42.116-39.505l-.18-2.811c-1.132-17.676 12.899-32.634 30.611-32.634z" fill="url(#SVGID_12_)"/><g fill="#423e4f"><path d="m119.919 202.937c-.132-4.262-3.731-7.617-7.954-7.478-1.092.034-18.458.66-37.591 6.377.361 5.268.995 10.469 1.897 15.588 18.181-5.854 35.924-6.524 36.177-6.533 4.258-.135 7.603-3.695 7.471-7.954z"/><path d="m90.738 260.086c15.169-8.824 30.062-13.175 30.29-13.24 4.097-1.171 6.47-5.44 5.302-9.538-1.169-4.1-5.441-6.477-9.54-5.308-1.001.286-16.199 4.703-32.471 13.958 1.898 4.832 4.043 9.546 6.419 14.128z"/><path d="m425.345 195.459c-4.223-.139-7.823 3.216-7.954 7.478-.132 4.259 3.213 7.819 7.471 7.954.253.008 17.997.679 36.178 6.533.901-5.118 1.535-10.32 1.897-15.588-19.134-5.716-36.5-6.343-37.592-6.377z"/><path d="m452.992 245.957c-16.273-9.255-31.47-13.672-32.471-13.958-4.1-1.169-8.371 1.208-9.54 5.308-1.168 4.098 1.205 8.367 5.302 9.538.227.065 15.121 4.417 30.29 13.241 2.375-4.582 4.519-9.296 6.419-14.129z"/></g></g></svg>