<svg id="Capa_1" enable-background="new 0 0 502 502" height="512" viewBox="0 0 502 502" width="512" xmlns="http://www.w3.org/2000/svg" xmlns:xlink="http://www.w3.org/1999/xlink"><linearGradient id="SVGID_1_" gradientUnits="userSpaceOnUse" x1="251" x2="251" y1="328.451" y2="36.035"><stop offset="0" stop-color="#dc8757"/><stop offset="1" stop-color="#efc4ab"/></linearGradient><linearGradient id="lg1"><stop offset="0" stop-color="#7ecc5c"/><stop offset="1" stop-color="#b8e2a5"/></linearGradient><linearGradient id="SVGID_2_" gradientUnits="userSpaceOnUse" x1="402.955" x2="402.955" xlink:href="#lg1" y1="466.11" y2="342.784"/><linearGradient id="SVGID_3_" gradientUnits="userSpaceOnUse" x1="99.049" x2="99.049" xlink:href="#lg1" y1="466.11" y2="342.784"/><linearGradient id="SVGID_4_" gradientUnits="userSpaceOnUse" x1="251" x2="251" y1="362.778" y2="294.123"><stop offset="0" stop-color="#fbe7b4"/><stop offset="1" stop-color="#fff5e3"/></linearGradient><linearGradient id="SVGID_5_" gradientUnits="userSpaceOnUse" x1="251" x2="251" xlink:href="#lg1" y1="386.328" y2="111.612"/><g><path d="m476.498 256.675-6.782-7.706 5.934-7.706.001.001c-4.674-52.683-27.451-100.158-62.084-136.156l-11.044 1.226v-11.947c-38.271-34.727-88.518-56.495-143.817-58.352l-7.706 6.097-7.706-6.096c-55.299 1.857-105.545 23.625-143.817 58.352v11.947l-11.044-1.226c-34.633 35.998-57.41 83.473-62.084 136.156l.001-.001 5.934 7.706-6.782 7.706-.002-.001c-.033 1.588-.059 3.178-.059 4.774v67.002h451.117v-67.002c0-1.596-.026-3.186-.059-4.774z" fill="url(#SVGID_1_)"/><path d="m321.719 352.517 147.24-9.733s-3.273 16.184 10.118 45.08c10.75 23.197 4.415 50.714-15.681 66.52-15.533 12.217-36.437 15.112-54.727 7.628-92.618-37.898-86.95-109.495-86.95-109.495z" fill="url(#SVGID_2_)"/><path d="m180.281 352.517-147.24-9.733s1.413 6.994-1.421 19.994l5.113 16.698-16.881 16.698c-5.995 21.178 1.012 44.257 18.753 58.21 15.533 12.217 36.437 15.112 54.727 7.628 92.617-37.898 86.949-109.495 86.949-109.495z" fill="url(#SVGID_3_)"/><path d="m467.673 294.123h-433.346c-18.958 0-34.327 15.369-34.327 34.328 0 18.958 15.369 34.327 34.327 34.327h433.345c18.958 0 34.327-15.369 34.327-34.327.001-18.959-15.368-34.328-34.326-34.328z" fill="url(#SVGID_4_)"/><g fill="#f3d3c2"><path d="m160.952 177.633 10.897-10.897-72.371-72.372c-3.806 3.454-7.488 7.041-11.05 10.744z"/><path d="m26.351 241.264c-.452 5.091-.741 10.229-.849 15.411h87.473v-15.411z"/><path d="m475.649 241.264h-86.624v15.411h87.473c-.108-5.182-.397-10.32-.849-15.411z"/><path d="m402.522 94.363-72.373 72.372 10.898 10.897 72.525-72.525c-3.561-3.702-7.243-7.29-11.05-10.744z"/><path d="m258.706 36.035c-2.559-.086-5.125-.145-7.706-.145-2.58 0-5.146.059-7.706.145v96.692h15.411v-96.692z"/></g><path d="m408.907 269.518c0 87.21-70.697 116.81-157.907 116.81s-157.907-29.6-157.907-116.81 70.697-157.907 157.907-157.907 157.907 70.698 157.907 157.907z" fill="url(#SVGID_5_)"/><g><ellipse cx="151.204" cy="307.71" fill="#ffaecf" rx="16.961" ry="13.63"/><ellipse cx="350.796" cy="307.71" fill="#ffaecf" rx="16.961" ry="13.63"/><circle cx="180.281" cy="274.079" fill="#fff" r="33.632"/><circle cx="321.719" cy="274.079" fill="#fff" r="33.632"/><g fill="#383842"><g><circle cx="180.281" cy="274.079" r="20.045"/><circle cx="321.719" cy="274.079" r="20.045"/></g><path d="m251 308.098c-5.795 0-11.59-2.191-16.317-6.575-2.025-1.877-2.145-5.041-.267-7.066s5.042-2.145 7.066-.267c5.605 5.197 13.433 5.196 19.037 0 2.024-1.876 5.188-1.759 7.066.267 1.877 2.025 1.758 5.188-.268 7.066-4.727 4.383-10.522 6.575-16.317 6.575z"/></g></g><path d="m79.559 362.778h-47.939c-1.477 6.777-4.108 15.184-8.697 25.086-1.26 2.719-2.276 5.498-3.072 8.309h59.707c9.222 0 16.698-7.476 16.698-16.698 0-9.221-7.475-16.697-16.697-16.697z" fill="#6dc647"/></g></svg>