<svg id="Capa_1" enable-background="new 0 0 502 502" height="512" viewBox="0 0 502 502" width="512" xmlns="http://www.w3.org/2000/svg" xmlns:xlink="http://www.w3.org/1999/xlink"><linearGradient id="SVGID_1_" gradientUnits="userSpaceOnUse" x1="251" x2="251" y1="502" y2="368.323"><stop offset="0" stop-color="#dc8757"/><stop offset="1" stop-color="#efc4ab"/></linearGradient><linearGradient id="SVGID_2_" gradientUnits="userSpaceOnUse" x1="251" x2="251" y1="346.426" y2="43.87"><stop offset="0" stop-color="#f3c757"/><stop offset="1" stop-color="#f9e09d"/></linearGradient><linearGradient id="SVGID_3_" gradientUnits="userSpaceOnUse" x1="251" x2="251" y1="228.006" y2="0"><stop offset="0" stop-color="#fd869c"/><stop offset="1" stop-color="#f7496e"/></linearGradient><linearGradient id="SVGID_4_" gradientUnits="userSpaceOnUse" x1="251" x2="251" y1="402.947" y2="326.763"><stop offset="0" stop-color="#3cc8db"/><stop offset="1" stop-color="#b1e6ee"/></linearGradient><linearGradient id="lg1"><stop offset="0" stop-color="#77718a"/><stop offset="1" stop-color="#4f4c5f"/></linearGradient><linearGradient id="SVGID_5_" gradientUnits="userSpaceOnUse" x1="251" x2="251" xlink:href="#lg1" y1="225.835" y2="144.799"/><linearGradient id="SVGID_6_" gradientUnits="userSpaceOnUse" x1="251" x2="251" xlink:href="#lg1" y1="305.643" y2="252.855"/><g><path d="m216.863 368.323h68.275v133.677h-68.275z" fill="url(#SVGID_1_)"/><path d="m216.862 368.323h68.275v64.12h-68.275z" fill="#dc8757"/><path d="m393.594 346.426 30.468-153.8-173.062-148.756-173.062 148.756 30.468 153.8z" fill="url(#SVGID_2_)"/><path d="m177.689 157.994c-4.774-5.923-13.01-7.755-19.845-4.415l-79.906 39.047 11.089 55.978c.788-.548 1.567-1.111 2.323-1.706l83.727-65.866c7.134-5.612 8.309-15.971 2.612-23.038z" fill="#f0bf3b"/><path d="m474.477 165.762-200.682-157.871c-13.374-10.522-32.214-10.521-45.591 0l-200.681 157.871c-8.696 6.841-10.2 19.437-3.359 28.133l20.816 26.461c6.841 8.696 19.437 10.2 28.134 3.359l177.886-139.937 177.886 139.939c8.696 6.841 21.292 5.337 28.133-3.359l20.816-26.461c6.842-8.698 5.338-21.293-3.358-28.135z" fill="url(#SVGID_3_)"/><path d="m411.878 326.763h-321.756c-13.816 0-25.016 11.2-25.016 25.016v26.153c0 13.816 11.2 25.016 25.016 25.016h321.756c13.816 0 25.016-11.2 25.016-25.016v-26.153c0-13.816-11.2-25.016-25.016-25.016z" fill="url(#SVGID_4_)"/><circle cx="251" cy="185.317" fill="url(#SVGID_5_)" r="40.518"/><circle cx="251" cy="279.249" fill="url(#SVGID_6_)" r="26.394"/></g></svg>