<svg id="Capa_1" enable-background="new 0 0 502 502" height="512" viewBox="0 0 502 502" width="512" xmlns="http://www.w3.org/2000/svg" xmlns:xlink="http://www.w3.org/1999/xlink"><linearGradient id="lg1"><stop offset="0" stop-color="#3cc8db"/><stop offset="1" stop-color="#b1e6ee"/></linearGradient><linearGradient id="SVGID_1_" gradientUnits="userSpaceOnUse" x1="251" x2="251" xlink:href="#lg1" y1="290.596" y2="77.736"/><linearGradient id="SVGID_2_" gradientUnits="userSpaceOnUse" x1="418.146" x2="502" y1="349.971" y2="349.971"><stop offset="0" stop-color="#fd8943"/><stop offset="1" stop-color="#fdb58a"/></linearGradient><linearGradient id="lg2"><stop offset="0" stop-color="#fdb58a"/><stop offset="1" stop-color="#fd8943"/></linearGradient><linearGradient id="SVGID_3_" gradientUnits="userSpaceOnUse" x1="0" x2="83.854" xlink:href="#lg2" y1="349.971" y2="349.971"/><linearGradient id="SVGID_4_" gradientUnits="userSpaceOnUse" x1="251" x2="251" xlink:href="#lg2" y1="465.742" y2="184.171"/><linearGradient id="SVGID_5_" gradientUnits="userSpaceOnUse" x1="251.015" x2="251.015" y1="483.722" y2="380.918"><stop offset="0" stop-color="#fbe7b4"/><stop offset="1" stop-color="#fff5e3"/></linearGradient><linearGradient id="SVGID_6_" gradientUnits="userSpaceOnUse" x1="357.253" x2="357.253" xlink:href="#lg1" y1="214.076" y2="136.691"/><linearGradient id="SVGID_7_" gradientUnits="userSpaceOnUse" x1="426.778" x2="426.778" xlink:href="#lg1" y1="125.073" y2="18.278"/><g><path d="m295.976 129.687-8.39 58.002-14.872 102.907h-43.427l-14.873-102.886-8.39-58.023c-3.959-27.396 17.293-51.951 44.976-51.951s48.935 24.555 44.976 51.951z" fill="url(#SVGID_1_)"/><path d="m228.056 154.983c-6.546.589-13.206 1.341-18.048 2.254l4.406 30.473 5.131 35.498 15.333-21.503 10.574-11.489c3.577-3.887 5.563-8.977 5.563-14.26 0-12.381-10.628-22.083-22.959-20.973z" fill="#00c6dc"/><path d="m469.176 261.152c11.148-3.158 23.011 1.652 28.744 11.721 5.405 9.493 5.443 21.125.099 30.653l-.197.351c-5.344 9.528-5.307 21.159.099 30.653 5.405 9.494 5.443 21.125.099 30.653l-.197.351c-5.344 9.528-5.307 21.159.099 30.653 5.405 9.493 5.443 21.125.099 30.653l-.045.08c-5.733 10.221-17.762 15.111-29.006 11.809-15.75-4.626-37.157-14.785-50.822-36.99v-103.82c13.723-22.304 35.259-32.301 51.028-36.767z" fill="url(#SVGID_2_)"/><path d="m32.824 261.152c-11.148-3.158-23.011 1.652-28.744 11.721-5.405 9.493-5.443 21.125-.099 30.653l.197.351c5.344 9.528 5.307 21.159-.099 30.653-5.405 9.494-5.443 21.125-.099 30.653l.197.351c5.344 9.528 5.307 21.159-.099 30.653-5.405 9.493-5.443 21.125-.099 30.653l.045.08c5.733 10.221 17.762 15.111 29.006 11.809 15.75-4.626 37.157-14.785 50.822-36.99v-103.82c-13.723-22.304-35.259-32.301-51.028-36.767z" fill="url(#SVGID_3_)"/><path d="m68.33 362.102c-2.866-7.317-9.922-12.131-17.78-12.131-10.347 0-18.881 8.239-19.093 18.583-.03 1.475-.045 2.953-.045 4.434l.001 1.438c.135 21.096 4.973 41.479 13.801 59.9 13.435-5.822 28.267-15.732 38.64-32.589z" fill="#fd8943"/><path d="m287.586 187.689c-11.826-2.308-24.062-3.518-36.586-3.518s-24.75 1.221-36.586 3.539c-86.773 17.037-152.232 93.512-152.232 185.279v1.241c.246 38.299 20.073 71.9 49.941 91.45l277.786.062c29.519-19.232 49.315-52.136 49.889-89.829.01-1.077.021-2.154.021-3.231-.145-91.922-65.388-168.059-152.233-184.993z" fill="url(#SVGID_4_)"/><path d="m389.908 465.742c-17.447 11.375-38.289 17.98-60.567 17.98h-156.672c-22.329 0-43.14-6.626-60.546-18.042 23.693-49.951 76.957-84.762 138.878-84.762 61.94 0 115.235 34.842 138.907 84.824z" fill="url(#SVGID_5_)"/><g><ellipse cx="144.081" cy="355.264" fill="#fa5f7e" rx="18.171" ry="14.603"/><ellipse cx="357.919" cy="355.264" fill="#fa5f7e" rx="18.171" ry="14.603"/><circle cx="175.234" cy="319.231" fill="#fff" r="36.032"/><ellipse cx="189.79" cy="319.231" fill="#383842" rx="21.475" ry="21.475" transform="matrix(.23 -.973 .973 .23 -164.506 430.601)"/><circle cx="326.766" cy="319.231" fill="#fff" r="36.032"/><g fill="#383842"><ellipse cx="341.248" cy="319.231" rx="21.475" ry="21.475" transform="matrix(.707 -.707 .707 .707 -125.782 334.799)"/><ellipse cx="251" cy="346.546" rx="16.122" ry="21.11"/></g></g><circle cx="357.253" cy="175.383" fill="url(#SVGID_6_)" r="38.692"/><circle cx="426.778" cy="71.676" fill="url(#SVGID_7_)" r="53.398"/><g><path d="m449.406 81.932c-5.664 0-10.257-4.592-10.257-10.257 0-6.821-5.549-12.37-12.37-12.37-5.664 0-10.257-4.592-10.257-10.257s4.593-10.257 10.257-10.257c18.133 0 32.884 14.752 32.884 32.883-.001 5.666-4.593 10.258-10.257 10.258z" fill="#b1e6ee"/></g></g></svg>