<svg id="Capa_1" enable-background="new 0 0 502 502" height="512" viewBox="0 0 502 502" width="512" xmlns="http://www.w3.org/2000/svg" xmlns:xlink="http://www.w3.org/1999/xlink"><linearGradient id="lg1"><stop offset="0" stop-color="#efc4ab"/><stop offset="1" stop-color="#dc8757"/></linearGradient><linearGradient id="SVGID_1_" gradientUnits="userSpaceOnUse" x1="251" x2="251" xlink:href="#lg1" y1="465.067" y2="321.29"/><linearGradient id="SVGID_2_" gradientUnits="userSpaceOnUse" x1="251" x2="251" xlink:href="#lg1" y1="321.29" y2="47.436"/><linearGradient id="SVGID_3_" gradientUnits="userSpaceOnUse" x1="251" x2="251" y1="224.055" y2="1.644"><stop offset="0" stop-color="#4f4c5f"/><stop offset="1" stop-color="#77718a"/></linearGradient><linearGradient id="SVGID_4_" gradientUnits="userSpaceOnUse" x1="251" x2="251" xlink:href="#lg1" y1="352.195" y2="266.257"/><linearGradient id="SVGID_5_" gradientUnits="userSpaceOnUse" x1="251" x2="251" y1="465.062" y2="177.519"><stop offset="0" stop-color="#77718a"/><stop offset="1" stop-color="#4f4c5f"/></linearGradient><linearGradient id="SVGID_6_" gradientUnits="userSpaceOnUse" x1="251" x2="251" y1="500.356" y2="422.457"><stop offset="0" stop-color="#7ecc5c"/><stop offset="1" stop-color="#b8e2a5"/></linearGradient><g><path d="m448.623 352.195v112.872h-395.246v-112.872l197.623-30.905z" fill="url(#SVGID_1_)"/><path d="m448.623 193.889v72.368l-197.623 55.033-197.623-55.033v-72.368l197.623-146.453z" fill="url(#SVGID_2_)"/><path d="m151.053 149.069-97.677 44.82v57.962c6.022-1.511 11.766-4.06 17.001-7.595l97.26-65.684c4.675-3.157 7.476-8.43 7.476-14.071 0-12.375-12.812-20.593-24.06-15.432z" fill="#dc8757"/><path d="m491.27 155.934-218.677-147.683c-13.045-8.81-30.138-8.81-43.185 0l-218.678 147.683c-11.15 7.53-14.084 22.673-6.554 33.823l15.917 23.569c7.53 11.15 22.673 14.084 33.823 6.554l197.084-133.1 197.085 133.1c11.15 7.53 26.293 4.596 33.823-6.554l15.917-23.569c7.53-11.15 4.595-26.293-6.555-33.823z" fill="url(#SVGID_3_)"/><path d="m53.377 266.257h395.247v85.938h-395.247z" fill="url(#SVGID_4_)"/><path d="m251 177.519c-61.998 0-112.258 50.259-112.258 112.258v175.286h224.516v-175.287c0-61.998-50.26-112.257-112.258-112.257z" fill="url(#SVGID_5_)"/><path d="m460.226 422.456h-418.452c-12.641 0-22.888 10.248-22.888 22.888v32.123c0 12.641 10.248 22.888 22.888 22.888h418.452c12.641 0 22.888-10.248 22.888-22.888v-32.123c0-12.64-10.247-22.888-22.888-22.888z" fill="url(#SVGID_6_)"/></g></svg>