<svg id="Capa_1" enable-background="new 0 0 502 502" height="512" viewBox="0 0 502 502" width="512" xmlns="http://www.w3.org/2000/svg" xmlns:xlink="http://www.w3.org/1999/xlink"><linearGradient id="SVGID_1_" gradientUnits="userSpaceOnUse" x1="43.284" x2="181.753" y1="49.961" y2="49.961"><stop offset="0" stop-color="#fdb58a"/><stop offset="1" stop-color="#fd8943"/></linearGradient><linearGradient id="lg1"><stop offset="0" stop-color="#fd8943"/><stop offset="1" stop-color="#fdb58a"/></linearGradient><linearGradient id="SVGID_2_" gradientUnits="userSpaceOnUse" x1="320.244" x2="458.712" xlink:href="#lg1" y1="49.961" y2="49.961"/><linearGradient id="lg2"><stop offset="0" stop-color="#fd869c"/><stop offset="1" stop-color="#fdb0bf"/></linearGradient><linearGradient id="SVGID_3_" gradientUnits="userSpaceOnUse" x1="368.252" x2="459.705" xlink:href="#lg2" y1="96.8" y2="96.8"/><linearGradient id="lg3"><stop offset="0" stop-color="#fdb0bf"/><stop offset="1" stop-color="#fd869c"/></linearGradient><linearGradient id="SVGID_4_" gradientUnits="userSpaceOnUse" x1="42.291" x2="133.745" xlink:href="#lg3" y1="96.8" y2="96.8"/><linearGradient id="SVGID_5_" gradientUnits="userSpaceOnUse" x1="251" x2="251" y1="492.138" y2="64.675"><stop offset="0" stop-color="#fbe7b4"/><stop offset="1" stop-color="#fff5e3"/></linearGradient><linearGradient id="SVGID_6_" gradientUnits="userSpaceOnUse" x1="250.998" x2="250.998" xlink:href="#lg1" y1="205.464" y2="18.255"/><linearGradient id="SVGID_7_" gradientUnits="userSpaceOnUse" x1="250.998" x2="250.998" y1="355.49" y2="219.262"><stop offset="0" stop-color="#b8e2a5"/><stop offset="1" stop-color="#7ecc5c"/></linearGradient><linearGradient id="SVGID_8_" gradientUnits="userSpaceOnUse" x1="115.969" x2="206.588" xlink:href="#lg2" y1="448.633" y2="448.633"/><linearGradient id="SVGID_9_" gradientUnits="userSpaceOnUse" x1="301.375" x2="391.994" xlink:href="#lg3" y1="448.633" y2="448.633"/><g><path d="m43.284 49.518c1.342-7.109 4.026-13.552 7.641-19.385 21.947-35.454 71.741-40.334 101.229-10.846l29.599 29.599-48.008 51.036z" fill="url(#SVGID_1_)"/><path d="m458.712 49.518c-1.342-7.109-4.026-13.552-7.641-19.385-21.947-35.455-71.741-40.334-101.229-10.846l-29.599 29.599 48.008 51.036z" fill="url(#SVGID_2_)"/><path d="m368.252 99.921 43.45 46.178c41.066-41.066 51.59-72.617 47.01-96.582-5.645-1.32-11.533-2.018-17.589-2.018-33.901 0-62.669 21.958-72.871 52.422z" fill="url(#SVGID_3_)"/><path d="m133.745 99.921-43.451 46.179c-41.066-41.066-51.59-72.617-47.01-96.582 5.645-1.32 11.533-2.018 17.589-2.018 33.902-.001 62.669 21.957 72.872 52.421z" fill="url(#SVGID_4_)"/><path d="m134.833 47.903c-8.707-8.707-22.924-8.653-31.423.257-7.121 7.465-13.67 15.468-19.59 23.943l49.925 27.818 7.02-31.666c1.63-7.352-.607-15.027-5.932-20.352z" fill="#fd8943"/><path d="m90.294 146.1 43.45-46.178c-6.365-19.005-19.956-34.697-37.51-43.815-11.277 13.14-20.898 27.724-28.572 43.468-2.063 4.233-4.085 8.459-6.076 12.679 7.19 10.492 16.616 21.753 28.708 33.846z" fill="#fd748d"/><path d="m443.519 205.464c9.67 26.405 18.232 53.986 24.52 81.599 2.795 12.254 4.159 24.642 4.159 36.963 0 38.238-13.153 75.766-37.739 106.008-31.939 39.292-79.869 62.103-130.506 62.103h-105.909c-25.318 0-49.96-5.7-72.262-16.313s-42.275-26.139-58.244-45.79c-32.504-39.99-45.025-92.712-33.58-142.971 6.299-27.614 14.86-55.194 24.52-81.599l139.472-140.789h116.207z" fill="url(#SVGID_5_)"/><path d="m443.519 205.464c-90.715-8.04-137.537-68.458-156.467-101.162-7.463-12.898-21.16-20.904-36.053-20.904-14.853 0-28.549 7.944-36.053 20.904-18.93 32.704-65.752 93.122-156.467 101.162 12.077-33.026 25.884-64.211 39.092-91.314 28.601-58.677 88.154-95.894 153.429-95.894h2.983c63.201 0 120.946 35.887 148.826 92.601 13.695 27.857 28.134 60.239 40.71 94.607z" fill="url(#SVGID_6_)"/><g><ellipse cx="136.196" cy="185.36" fill="#ffaecf" rx="19.511" ry="15.68"/><ellipse cx="365.8" cy="185.36" fill="#ffaecf" rx="19.511" ry="15.68"/><circle cx="169.646" cy="146.671" fill="#fff" r="38.689"/><circle cx="332.351" cy="146.671" fill="#fff" r="38.689"/><g fill="#383842"><g><circle cx="169.646" cy="146.671" r="23.059"/><circle cx="332.351" cy="146.671" r="23.059"/></g><path d="m263.84 196.154c-4.542 0-8.975-1.525-12.842-4.365-3.867 2.84-8.3 4.365-12.842 4.365-6.053 0-11.913-2.71-16.499-7.63-1.883-2.02-1.771-5.184.249-7.067s5.185-1.771 7.067.249c2.712 2.911 5.888 4.449 9.184 4.449s6.472-1.538 9.184-4.449c.946-1.015 2.271-1.591 3.658-1.591s2.712.576 3.657 1.591c2.713 2.91 5.889 4.449 9.185 4.449s6.472-1.539 9.185-4.449c1.882-2.02 5.045-2.131 7.066-.249 2.02 1.883 2.131 5.047.248 7.067-4.587 4.92-10.446 7.63-16.5 7.63z"/></g></g><path d="m272.199 153.978c0 6.827-9.492 12.362-21.201 12.362s-21.201-5.535-21.201-12.362 9.492-7.639 21.201-7.639 21.201.812 21.201 7.639z" fill="#383842"/><g><path d="m292.296 334.747c-9.385 12.589-24.389 20.743-41.298 20.743s-31.913-8.154-41.298-20.743l11.864-34.19-13.488-35.25c9.219-23.666 25-46.045 42.922-46.045s33.703 22.38 42.922 46.045l-11.267 35.25z" fill="url(#SVGID_7_)"/></g><path d="m261.01 300.017c-.077-10.764-8.941-19.4-19.705-19.4-10.475 0-19.118 8.197-19.673 18.658l-.068 1.283-11.864 34.19c6.99 9.377 17.101 16.287 28.792 19.206 13.881-13.576 22.519-32.493 22.519-53.396.001-.181 0-.361-.001-.541z" fill="#6dc647"/><g><path d="m186.279 342.02h-37.884c-3.981 0-7.208-3.227-7.208-7.208s3.227-7.208 7.208-7.208h37.884c14.913 0 27.046-12.133 27.046-27.046s-12.133-27.046-27.046-27.046h-37.884c-3.981 0-7.208-3.227-7.208-7.208s3.227-7.208 7.208-7.208h37.884c22.863 0 41.463 18.6 41.463 41.463 0 22.86-18.601 41.461-41.463 41.461z" fill="#fddcb4"/></g><g><path d="m315.718 342.02h37.884c3.981 0 7.208-3.227 7.208-7.208s-3.227-7.208-7.208-7.208h-37.884c-14.913 0-27.046-12.133-27.046-27.046s12.133-27.046 27.046-27.046h37.884c3.981 0 7.208-3.227 7.208-7.208s-3.227-7.208-7.208-7.208h-37.884c-22.863 0-41.463 18.6-41.463 41.463-.001 22.86 18.6 41.461 41.463 41.461z" fill="#fddcb4"/></g><path d="m189.68 409.9c-13.818-19.512-42.985-19.512-56.803 0-9.119 12.876-16.908 32.051-16.908 59.985 0 .131 0 .261.001.392.091 17.597 14.595 31.723 32.193 31.723h26.23c17.598 0 32.102-14.126 32.193-31.724.001-.13.001-.261.001-.392.001-27.934-7.788-47.108-16.907-59.984z" fill="url(#SVGID_8_)"/><path d="m318.283 409.9c13.818-19.512 42.985-19.512 56.803 0 9.119 12.876 16.908 32.051 16.908 59.985 0 .131 0 .261-.001.392-.091 17.597-14.595 31.723-32.193 31.723h-26.23c-17.598 0-32.102-14.126-32.193-31.724-.001-.13-.001-.261-.001-.392-.001-27.934 7.788-47.108 16.907-59.984z" fill="url(#SVGID_9_)"/></g></svg>