<svg id="Capa_1" enable-background="new 0 0 502 502" height="512" viewBox="0 0 502 502" width="512" xmlns="http://www.w3.org/2000/svg" xmlns:xlink="http://www.w3.org/1999/xlink"><linearGradient id="SVGID_1_" gradientUnits="userSpaceOnUse" x1="97.797" x2="97.797" y1="188.467" y2="0"><stop offset="0" stop-color="#4f4c5f"/><stop offset="1" stop-color="#77718a"/></linearGradient><linearGradient id="SVGID_2_" gradientUnits="userSpaceOnUse" x1="112.829" x2="219.656" y1="162.679" y2="162.679"><stop offset="0" stop-color="#f9e09d"/><stop offset="1" stop-color="#f3c757"/></linearGradient><linearGradient id="SVGID_3_" gradientUnits="userSpaceOnUse" x1="242.978" x2="242.978" y1="855.41" y2="-247.327"><stop offset=".0223" stop-color="#875ac0"/><stop offset="1" stop-color="#a07ccd"/></linearGradient><linearGradient id="SVGID_4_" gradientUnits="userSpaceOnUse" x1="129.036" x2="498.437" y1="317.3" y2="317.3"><stop offset="0" stop-color="#f3c757"/><stop offset="1" stop-color="#f9e09d"/></linearGradient><g><path d="m31.164 27.6c-36.801 36.801-36.801 96.466 0 133.267s96.466 36.801 133.267 0 36.801-96.466 0-133.267c-36.801-36.8-96.467-36.8-133.267 0zm97.642 97.643c-17.126 17.126-44.892 17.126-62.018 0s-17.126-44.892 0-62.018 44.892-17.126 62.018 0 17.126 44.892 0 62.018z" fill="url(#SVGID_1_)"/><path d="m121.316 117.753c-11.316 11.316-11.316 29.662 0 40.978l57.362 57.362 40.978-40.978-57.362-57.362c-11.316-11.316-29.662-11.316-40.978 0z" fill="url(#SVGID_2_)"/><path d="m324.443 30.977-289.903 289.903c-18.742 18.742-18.742 49.128 0 67.87l59.102 59.102c18.742 18.742 49.128 18.742 67.87 0l289.903-289.903c18.742-18.742 18.742-49.128 0-67.87l-59.102-59.102c-18.742-18.742-49.128-18.742-67.87 0z" fill="url(#SVGID_3_)"/><path d="m231.776 275.55-10.543 10.543c-6.76 6.76-16.155 10.321-25.676 9.449-25.958-2.377-52.328 6.778-70.967 25.417-.928.928-1.849 1.89-2.737 2.861-3.053 3.335-5.823 6.878-8.298 10.595-6.139 9.22-4.979 21.478 2.854 29.311 7.623 7.623 19.495 8.981 28.642 3.278l71.955-16.513 41.54-54.25c3.93-6.696 2.841-15.201-2.649-20.691-6.662-6.66-17.461-6.66-24.121 0z" fill="#875ac0"/><path d="m437.8 193.236c.753-16.516-5.508-33.292-18.79-45.476-22.015-20.197-56.299-20.217-78.335-.042-16.521 15.125-22.208 37.345-17.066 57.357 2.677 10.419-.073 21.479-7.68 29.086l-85.332 85.332c-7.607 7.607-18.666 10.358-29.086 7.68-20.012-5.142-42.231.545-57.357 17.066-20.174 22.036-20.155 56.32.042 78.335 12.185 13.282 28.961 19.543 45.476 18.79-.753 16.516 5.509 33.292 18.79 45.477 22.015 20.197 56.299 20.216 78.335.042 16.521-15.125 22.208-37.345 17.066-57.357-2.677-10.419.073-21.478 7.68-29.085l85.332-85.332c7.607-7.607 18.666-10.358 29.085-7.68 20.012 5.142 42.231-.545 57.357-17.066 20.175-22.036 20.155-56.32-.042-78.335-12.183-13.283-28.96-19.544-45.475-18.792z" fill="url(#SVGID_4_)"/><g><ellipse cx="271.621" cy="399.626" fill="#fa5f7e" rx="15.811" ry="12.706" transform="matrix(.707 -.707 .707 .707 -203.023 309.115)"/><ellipse cx="403.19" cy="268.058" fill="#fa5f7e" rx="15.811" ry="12.706" transform="matrix(.707 -.707 .707 .707 -71.454 363.613)"/><path d="m345.03 341.467c-4.826 4.826-11.264 8.038-18.517 8.839-6.727.743-12.781-4.108-13.524-10.835s4.109-12.781 10.834-13.524c3.016-.333 5.354-2.672 5.687-5.687.742-6.725 6.796-11.577 13.524-10.835 6.726.743 11.577 6.798 10.835 13.524-.8 7.253-4.013 13.692-8.839 18.518z" fill="#383842"/><path d="m289.259 334.687c-12.078-10.595-30.571-10.209-42.22.858-12.831 12.189-13.027 32.477-.59 44.914.631.631 1.283 1.23 1.952 1.795 4.066 3.434 10.368 1.6 12.042-3.452.351-1.06.778-2.124 1.238-3.187l-.027.017 2.953-21.355 21.355-2.953-.017.027c1.062-.46 2.124-.886 3.182-1.237 5.109-1.694 6.857-8.056 3.365-12.152-.98-1.148-2.058-2.244-3.233-3.275z" fill="#fff"/><path d="m271.588 361.258c4.435-4.435 9.398-7.778 14.375-9.933-.912-2.276-2.287-4.405-4.13-6.249-7.297-7.297-19.129-7.297-26.426 0s-7.297 19.129 0 26.426c1.843 1.843 3.973 3.218 6.249 4.13 2.154-4.976 5.496-9.939 9.932-14.374z" fill="#383842"/><path d="m382.493 241.454c-12.078-10.595-30.571-10.209-42.22.858-12.831 12.189-13.027 32.477-.59 44.914.631.631 1.283 1.23 1.952 1.795 4.065 3.434 10.368 1.6 12.042-3.451.351-1.058.776-2.12 1.236-3.182l-.025.012 2.953-21.355 21.355-2.953-.012.025c1.06-.459 2.12-.884 3.176-1.234 5.109-1.694 6.857-8.057 3.365-12.152-.98-1.151-2.057-2.247-3.232-3.277z" fill="#fff"/><path d="m364.821 268.024c4.435-4.435 9.398-7.778 14.375-9.933-.912-2.276-2.287-4.405-4.13-6.249-7.297-7.297-19.129-7.297-26.426 0s-7.297 19.129 0 26.426c1.843 1.843 3.973 3.218 6.249 4.13 2.154-4.976 5.497-9.938 9.932-14.374z" fill="#383842"/></g><g><path d="m348.674 69.463-9.101 9.101c-3.936 3.936-10.318 3.936-14.254 0s-3.936-10.318 0-14.254l9.101-9.101c3.936-3.936 10.318-3.936 14.254 0 3.937 3.936 3.936 10.318 0 14.254z" fill="#d1bfe5"/></g><g><path d="m313.752 104.385-26.205 26.205c-3.936 3.936-10.318 3.936-14.254 0s-3.936-10.318 0-14.254l26.205-26.205c3.936-3.936 10.318-3.936 14.254 0s3.936 10.318 0 14.254z" fill="#d1bfe5"/></g></g></svg>