<svg id="Capa_1" enable-background="new 0 0 502 502" height="512" viewBox="0 0 502 502" width="512" xmlns="http://www.w3.org/2000/svg" xmlns:xlink="http://www.w3.org/1999/xlink"><linearGradient id="SVGID_1_" gradientUnits="userSpaceOnUse" x1="251" x2="251" y1="502" y2="378.501"><stop offset="0" stop-color="#fd869c"/><stop offset="1" stop-color="#fdb0bf"/></linearGradient><linearGradient id="lg1"><stop offset="0" stop-color="#b1e6ee"/><stop offset="1" stop-color="#3cc8db"/></linearGradient><linearGradient id="SVGID_2_" gradientUnits="userSpaceOnUse" x1="251" x2="251" xlink:href="#lg1" y1="131.877" y2="0"/><linearGradient id="SVGID_3_" gradientUnits="userSpaceOnUse" x1="251" x2="251" xlink:href="#lg1" y1="378.502" y2="87.102"/><linearGradient id="SVGID_4_" gradientUnits="userSpaceOnUse" x1="251" x2="251" y1="410.453" y2="346.549"><stop offset="0" stop-color="#b8e2a5"/><stop offset="1" stop-color="#7ecc5c"/></linearGradient><g><path d="m376.248 450.931-14.128-40.478-111.12-31.952-111.12 31.952-14.128 40.478c-8.715 24.969 9.82 51.069 36.266 51.069h177.964c26.446 0 44.981-26.101 36.266-51.069z" fill="url(#SVGID_1_)"/><path d="m224.562 410.453h-84.682l-10.176 29.155c3.313.55 6.709.85 10.176.85h84.682c8.286 0 15.003-6.717 15.003-15.003 0-8.285-6.717-15.002-15.003-15.002z" fill="#fd748d"/><path d="m78.202 102.687c.33-13.042 3.071-25.794 7.991-37.646 5.241-12.662 12.952-24.304 22.834-34.186 19.753-19.753 46.547-30.855 74.492-30.855h134.962c27.945 0 54.739 11.102 74.492 30.855 19.133 19.133 30.135 44.857 30.825 71.832l-172.798 29.19z" fill="url(#SVGID_2_)"/><path d="m423.828 105.347v92.215c0 27.945-5.551 55.309-16.033 80.633-10.492 25.314-25.914 48.588-45.678 68.351l-111.117 31.956-111.118-31.955c-39.517-39.517-61.71-93.105-61.71-148.984v-92.215c0-.89.01-1.78.03-2.66l22.354-9.472c9.622-4.071 19.853-6.111 30.085-6.111 10.242 0 20.483 2.04 30.095 6.111s19.853 6.111 30.095 6.111c10.232 0 20.463-2.04 30.085-6.111 9.612-4.071 19.843-6.111 30.085-6.111s20.473 2.04 30.085 6.111c9.622 4.071 19.853 6.111 30.085 6.111 10.242 0 20.483-2.04 30.095-6.111 19.233-8.151 40.947-8.151 60.18 0l22.354 9.472c.018.879.028 1.769.028 2.659z" fill="url(#SVGID_3_)"/><g><path d="m377.514 259.886c-5.243-1.74-8.084-7.399-6.346-12.642 2.664-8.032 4.738-16.293 6.167-24.554.941-5.442 6.114-9.097 11.559-8.152 5.443.941 9.093 6.116 8.152 11.56-1.597 9.237-3.915 18.47-6.89 27.442-1.739 5.24-7.391 8.083-12.642 6.346z" fill="#b1e6ee"/></g><g><path d="m392.77 199.878c-5.523-.041-9.968-4.552-9.927-10.075.021-2.765.038-5.53.055-8.295.033-5.503 4.505-9.942 10.001-9.942h.061c5.524.033 9.975 4.538 9.942 10.062-.017 2.774-.034 5.549-.055 8.323-.043 5.648-4.744 10.03-10.077 9.927z" fill="#b1e6ee"/></g><g><ellipse cx="152.348" cy="300.139" fill="#f7496e" rx="16.766" ry="13.474"/><ellipse cx="349.652" cy="300.139" fill="#f7496e" rx="16.766" ry="13.474"/><circle cx="181.092" cy="266.893" fill="#fff" r="33.246"/><ellipse cx="194.523" cy="266.893" fill="#383842" rx="19.815" ry="19.815" transform="matrix(.23 -.973 .973 .23 -109.923 394.893)"/><circle cx="320.908" cy="266.893" fill="#fff" r="33.246"/><g fill="#383842"><ellipse cx="334.27" cy="266.893" rx="19.815" ry="19.815" transform="matrix(.707 -.707 .707 .707 -90.817 314.536)"/><ellipse cx="251" cy="292.096" rx="14.875" ry="19.478"/></g></g><circle cx="207.512" cy="201.55" fill="#00c6dc" r="19.226"/><circle cx="286.926" cy="157.262" fill="#00c6dc" r="26.788"/><path d="m362.12 346.549h-222.24c-17.647 0-31.952 14.306-31.952 31.952 0 17.647 14.306 31.952 31.952 31.952h222.24c17.647 0 31.952-14.305 31.952-31.952.001-17.647-14.305-31.952-31.952-31.952z" fill="url(#SVGID_4_)"/></g></svg>