<svg id="Capa_1" enable-background="new 0 0 502 502" height="512" viewBox="0 0 502 502" width="512" xmlns="http://www.w3.org/2000/svg" xmlns:xlink="http://www.w3.org/1999/xlink"><linearGradient id="SVGID_1_" gradientUnits="userSpaceOnUse" x1="251" x2="251" y1="181.778" y2="27.026"><stop offset="0" stop-color="#fbe7b4"/><stop offset="1" stop-color="#fff5e3"/></linearGradient><linearGradient id="lg1"><stop offset="0" stop-color="#77718a"/><stop offset="1" stop-color="#4f4c5f"/></linearGradient><linearGradient id="SVGID_2_" gradientUnits="userSpaceOnUse" x1="87.009" x2="177.569" xlink:href="#lg1" y1="381.43" y2="381.43"/><linearGradient id="SVGID_3_" gradientUnits="userSpaceOnUse" x1="50.661" x2="153.099" xlink:href="#lg1" y1="310.917" y2="310.917"/><linearGradient id="SVGID_4_" gradientUnits="userSpaceOnUse" x1="61.881" x2="166.118" xlink:href="#lg1" y1="228.777" y2="228.777"/><linearGradient id="SVGID_5_" gradientUnits="userSpaceOnUse" x1="122.889" x2="204.092" xlink:href="#lg1" y1="159.463" y2="159.463"/><linearGradient id="lg2"><stop offset="0" stop-color="#dc8757"/><stop offset="1" stop-color="#efc4ab"/></linearGradient><linearGradient id="SVGID_6_" gradientUnits="userSpaceOnUse" x1="60.091" x2="132.126" xlink:href="#lg2" y1="432.764" y2="432.764"/><linearGradient id="SVGID_7_" gradientUnits="userSpaceOnUse" x1="0" x2="77.79" xlink:href="#lg2" y1="327.935" y2="327.935"/><linearGradient id="SVGID_8_" gradientUnits="userSpaceOnUse" x1="5.47" x2="83.223" xlink:href="#lg2" y1="213.762" y2="213.762"/><linearGradient id="SVGID_9_" gradientUnits="userSpaceOnUse" x1="74.903" x2="159.241" xlink:href="#lg2" y1="120.079" y2="120.079"/><linearGradient id="SVGID_10_" gradientUnits="userSpaceOnUse" x1="324.431" x2="414.991" xlink:href="#lg1" y1="381.43" y2="381.43"/><linearGradient id="lg3"><stop offset="0" stop-color="#4f4c5f"/><stop offset="1" stop-color="#77718a"/></linearGradient><linearGradient id="SVGID_11_" gradientUnits="userSpaceOnUse" x1="367.463" x2="430.371" xlink:href="#lg3" y1="337.401" y2="274.493"/><linearGradient id="SVGID_12_" gradientUnits="userSpaceOnUse" x1="359.905" x2="426.127" xlink:href="#lg3" y1="261.136" y2="194.914"/><linearGradient id="SVGID_13_" gradientUnits="userSpaceOnUse" x1="338.51" x2="338.51" xlink:href="#lg3" y1="204.46" y2="114.465"/><linearGradient id="SVGID_14_" gradientUnits="userSpaceOnUse" x1="251" x2="251" xlink:href="#lg1" y1="403.41" y2="150.084"/><linearGradient id="lg4"><stop offset="0" stop-color="#efc4ab"/><stop offset="1" stop-color="#dc8757"/></linearGradient><linearGradient id="SVGID_15_" gradientUnits="userSpaceOnUse" x1="251" x2="251" xlink:href="#lg4" y1="448.844" y2="264.358"/><linearGradient id="SVGID_16_" gradientUnits="userSpaceOnUse" x1="369.874" x2="441.909" xlink:href="#lg4" y1="432.764" y2="432.764"/><linearGradient id="SVGID_17_" gradientUnits="userSpaceOnUse" x1="424.21" x2="502" xlink:href="#lg4" y1="327.935" y2="327.935"/><linearGradient id="SVGID_18_" gradientUnits="userSpaceOnUse" x1="418.777" x2="496.53" xlink:href="#lg4" y1="213.762" y2="213.762"/><linearGradient id="SVGID_19_" gradientUnits="userSpaceOnUse" x1="342.759" x2="427.097" xlink:href="#lg4" y1="120.079" y2="120.079"/><g><path d="m234.02 27.026h33.961v154.752h-33.961z" fill="url(#SVGID_1_)"/><path d="m251 120.083c-5.711 0-11.374.237-16.98.684v61.01h33.961v-61.01c-5.607-.446-11.27-.684-16.981-.684z" fill="#fddcb4"/><path d="m177.569 394.492c-2.217.489-15.854 3.715-30.232 14.505-5.657 4.245-10.722 9.102-15.211 14.56l-33.786-3.241-11.331-29.762c9.838-12.505 20.383-21.76 29.873-28.498 25.643-18.194 49.364-22.347 51.981-22.753z" fill="url(#SVGID_2_)"/><path d="m131.722 340.215c-2.146-.74-15.462-5.105-33.358-3.405-7.041.668-13.896 2.168-20.574 4.481l-27.129-20.398 5.868-31.301c14.918-5.532 28.743-7.923 40.355-8.719 31.369-2.136 53.771 6.701 56.215 7.72z" fill="url(#SVGID_3_)"/><path d="m120.943 269.989c-1.445-1.751-10.525-12.425-26.677-20.314-6.355-3.105-12.985-5.403-19.889-6.916l-12.495-31.558 21.341-23.637c15.612 3.067 28.653 8.242 38.973 13.624 27.873 14.549 42.37 33.78 43.922 35.924z" fill="url(#SVGID_4_)"/><path d="m148.399 204.46c-.318-2.248-2.494-16.091-12.154-31.251-3.8-5.965-8.257-11.386-13.356-16.279l5.812-33.44 30.54-9.024c11.717 10.764 20.14 21.985 26.134 31.962 16.182 26.958 18.512 50.927 18.717 53.567z" fill="url(#SVGID_5_)"/><path d="m132.126 423.558c-7.527 9.153-13.406 19.999-17.608 32.466-2.165 6.453-6.525 11.644-12.012 14.947s-12.122 4.725-18.845 3.649c-16.973-2.717-27.602-20.013-22.116-36.312 6.602-19.612 15.692-35.295 25.464-47.753z" fill="url(#SVGID_6_)"/><path d="m77.79 341.291c-11.197 3.88-21.873 10.063-31.964 18.504-5.215 4.375-11.643 6.527-18.048 6.481s-12.806-2.296-17.979-6.723c-13.06-11.176-13.1-31.477.087-42.517 15.867-13.283 31.806-21.917 46.644-27.443z" fill="url(#SVGID_7_)"/><path d="m74.377 242.759c-11.576-2.535-23.91-2.832-36.923-.898-6.731 1.01-13.338-.509-18.777-3.891s-9.725-8.642-11.828-15.118c-5.307-16.349 5.254-33.687 22.264-36.222 20.467-3.05 38.569-2.096 54.11.934z" fill="url(#SVGID_8_)"/><path d="m122.889 156.93c-8.552-8.204-18.917-14.895-31.027-20.036-6.269-2.651-11.112-7.395-13.986-13.119-2.875-5.724-3.786-12.447-2.199-19.069 4.005-16.715 22.063-25.993 37.895-19.278 19.05 8.08 33.994 18.342 45.669 29.037z" fill="url(#SVGID_9_)"/><path d="m324.431 394.492c2.217.489 15.854 3.715 30.232 14.505 5.657 4.245 10.722 9.102 15.211 14.56l33.786-3.241 11.331-29.762c-9.838-12.505-20.383-21.76-29.873-28.498-25.643-18.194-49.364-22.347-51.981-22.753z" fill="url(#SVGID_10_)"/><path d="m370.278 340.215c2.146-.74 15.462-5.105 33.358-3.405 7.041.668 13.896 2.168 20.574 4.481l27.129-20.398-5.868-31.301c-14.918-5.532-28.743-7.923-40.355-8.719-31.369-2.136-53.771 6.701-56.215 7.72z" fill="url(#SVGID_11_)"/><path d="m381.057 269.989c1.445-1.751 10.525-12.425 26.677-20.314 6.355-3.105 12.985-5.403 19.889-6.916l12.495-31.558-21.341-23.637c-15.612 3.067-28.653 8.242-38.973 13.624-27.873 14.549-42.37 33.78-43.922 35.924z" fill="url(#SVGID_12_)"/><path d="m353.601 204.46c.318-2.248 2.494-16.091 12.154-31.251 3.8-5.965 8.257-11.386 13.356-16.279l-5.812-33.44-30.54-9.024c-11.717 10.764-20.14 21.985-26.134 31.962-16.182 26.958-18.512 50.927-18.717 53.567z" fill="url(#SVGID_13_)"/><path d="m251 150.084c-86.274 0-156.213 59.93-156.213 146.204 0 1.037.01 2.071.03 3.103 1.129 57.947 49.146 104.019 107.104 104.019h98.157c57.958 0 105.975-46.072 107.104-104.019.02-1.032.03-2.066.03-3.103.001-86.274-69.938-146.204-156.212-146.204z" fill="url(#SVGID_14_)"/><path d="m186.486 292.856c-.447-5.173-2.702-10.022-6.369-13.698-8.711-8.731-22.908-8.659-31.485.205-19.419 20.069-32.722 45.604-37.778 73.786 18.001 28.676 49.398 48.157 85.173 50.097z" fill="#5c586f"/><path d="m364.351 366.35c-6.134-57.986-55.041-101.992-113.35-101.992-58.309 0-107.216 44.006-113.35 101.992-4.663 44.084 29.897 82.494 74.228 82.494h78.246c44.328 0 78.889-38.41 74.226-82.494z" fill="url(#SVGID_15_)"/><g><ellipse cx="171.369" cy="399.622" fill="#ffaecf" rx="13.534" ry="10.876"/><ellipse cx="330.631" cy="399.622" fill="#ffaecf" rx="13.533" ry="10.876"/><circle cx="194.571" cy="372.786" fill="#fff" r="26.836"/><circle cx="307.429" cy="372.786" fill="#fff" r="26.836"/><g fill="#383842"><g><circle cx="194.571" cy="372.786" r="15.994"/><circle cx="307.429" cy="372.786" r="15.994"/></g><path d="m251 400.949c-4.868 0-9.736-1.841-13.707-5.523-2.025-1.877-2.145-5.041-.267-7.066 1.877-2.025 5.042-2.144 7.065-.267 4.133 3.831 9.684 3.831 13.816 0 2.024-1.876 5.188-1.759 7.065.267 1.878 2.025 1.759 5.188-.267 7.066-3.969 3.681-8.837 5.523-13.705 5.523z"/></g></g><path d="m369.874 423.558c7.527 9.153 13.406 19.999 17.608 32.466 2.165 6.453 6.525 11.644 12.012 14.947s12.122 4.725 18.845 3.649c16.973-2.717 27.602-20.013 22.116-36.312-6.602-19.612-15.692-35.295-25.464-47.753z" fill="url(#SVGID_16_)"/><path d="m424.21 341.291c11.197 3.88 21.873 10.063 31.964 18.504 5.215 4.375 11.643 6.527 18.048 6.481s12.806-2.296 17.979-6.723c13.06-11.176 13.1-31.477-.087-42.517-15.867-13.283-31.806-21.917-46.644-27.443z" fill="url(#SVGID_17_)"/><path d="m427.623 242.759c11.576-2.535 23.91-2.832 36.923-.898 6.731 1.01 13.338-.509 18.777-3.891s9.725-8.642 11.828-15.118c5.307-16.349-5.254-33.687-22.264-36.222-20.467-3.05-38.569-2.096-54.11.934z" fill="url(#SVGID_18_)"/><path d="m379.111 156.93c8.552-8.204 18.917-14.895 31.027-20.036 6.269-2.651 11.112-7.395 13.986-13.119 2.875-5.724 3.786-12.447 2.199-19.069-4.005-16.715-22.063-25.993-37.895-19.278-19.05 8.08-33.994 18.342-45.669 29.037z" fill="url(#SVGID_19_)"/></g></svg>