<svg id="Capa_1" enable-background="new 0 0 502 502" height="512" viewBox="0 0 502 502" width="512" xmlns="http://www.w3.org/2000/svg" xmlns:xlink="http://www.w3.org/1999/xlink"><linearGradient id="SVGID_1_" gradientUnits="userSpaceOnUse" x1="251" x2="251" y1="240.714" y2="4.308"><stop offset="0" stop-color="#4f4c5f"/><stop offset="1" stop-color="#6a647f"/></linearGradient><linearGradient id="SVGID_2_" gradientUnits="userSpaceOnUse" x1="251" x2="251" y1="479.752" y2="390.405"><stop offset="0" stop-color="#6a647f"/><stop offset="1" stop-color="#4f4c5f"/></linearGradient><linearGradient id="SVGID_3_" gradientUnits="userSpaceOnUse" x1="251" x2="251" y1="415.513" y2="233.19"><stop offset="0" stop-color="#b1e6ee"/><stop offset="1" stop-color="#3cc8db"/></linearGradient><linearGradient id="SVGID_4_" gradientUnits="userSpaceOnUse" x1="251" x2="251" y1="497.692" y2="207.999"><stop offset="0" stop-color="#3cc8db"/><stop offset="1" stop-color="#b1e6ee"/></linearGradient><g><path d="m251 4.308c-39.692 0-70.143 35.22-64.408 74.495l23.641 161.911h81.535l23.641-161.911c5.734-39.275-24.717-74.495-64.409-74.495zm0 95.838c-14.603 0-26.44-11.838-26.44-26.44 0-14.603 11.838-26.44 26.44-26.44s26.44 11.838 26.44 26.44-11.837 26.44-26.44 26.44z" fill="url(#SVGID_1_)"/><path d="m64.082 479.752h373.836l-2.379-64.239-184.539-25.108-185.417 25.108z" fill="url(#SVGID_2_)"/><path d="m66.022 415.513h369.956l-46.613-165.802-137.926-16.521-139.394 23.012z" fill="url(#SVGID_3_)"/><path d="m184.072 268.111-72.027-11.91-6.717 74.639c-.925 10.278 7.17 19.133 17.489 19.133 7.727 0 14.546-5.052 16.798-12.444l4.474-14.692c4.049-13.294 16.312-22.379 30.209-22.379h8.076c8.958 0 16.219-7.262 16.219-16.219 0-8.298-6.266-15.259-14.521-16.128z" fill="#00c6dc"/><path d="m501.266 476.182-54.915-180.293c-7.798-25.622-23.3-47.587-44.823-63.532-21.513-15.934-47.043-24.359-73.826-24.359h-153.404c-26.783 0-52.313 8.424-73.826 24.359-21.523 15.945-37.026 37.909-44.823 63.532l-54.915 180.293c-3.26 10.701 4.747 21.51 15.934 21.51h23.197c11.14 0 20.971-7.283 24.217-17.94l50.527-165.905c8.054-26.444 32.043-44.207 59.689-44.207h153.404c27.646 0 51.635 17.763 59.689 44.207l50.527 165.905c3.246 10.657 13.077 17.94 24.217 17.94h23.197c11.187 0 19.194-10.808 15.934-21.51z" fill="url(#SVGID_4_)"/><g><ellipse cx="155.999" cy="387.042" fill="#ffaecf" rx="16.146" ry="12.975"/><ellipse cx="346.001" cy="387.042" fill="#ffaecf" rx="16.146" ry="12.975"/><circle cx="183.679" cy="355.027" fill="#fff" r="32.016"/><circle cx="318.321" cy="355.027" fill="#fff" r="32.016"/><path d="m194.254 365.694c-2.647 0-5.214-1.405-6.579-3.888-1.173-2.133-3.185-2.363-3.995-2.363-.812 0-2.823.23-3.996 2.363-1.995 3.63-6.555 4.956-10.186 2.959-3.63-1.996-4.954-6.556-2.959-10.186 3.438-6.252 10.005-10.136 17.141-10.136 7.135 0 13.702 3.884 17.14 10.136 1.995 3.63.671 8.19-2.959 10.186-1.147.63-2.385.929-3.607.929z" fill="#383842"/><path d="m328.896 365.694c-2.647 0-5.214-1.405-6.579-3.888-1.173-2.133-3.185-2.363-3.996-2.363s-2.822.23-3.995 2.363c-1.995 3.63-6.554 4.956-10.186 2.959-3.63-1.996-4.954-6.556-2.959-10.186 3.438-6.252 10.005-10.136 17.14-10.136 7.136 0 13.703 3.884 17.141 10.136 1.995 3.63.671 8.19-2.959 10.186-1.148.63-2.386.929-3.607.929z" fill="#383842"/><g><path d="m263.616 398.054h-25.231c-7.035 0-12.738-5.703-12.738-12.738 0-7.035 5.703-12.738 12.738-12.738h25.231c7.035 0 12.738 5.703 12.738 12.738 0 7.034-5.703 12.738-12.738 12.738z" fill="#383842"/></g></g></g></svg>