<svg id="Capa_1" enable-background="new 0 0 502 502" height="512" viewBox="0 0 502 502" width="512" xmlns="http://www.w3.org/2000/svg" xmlns:xlink="http://www.w3.org/1999/xlink"><linearGradient id="lg1"><stop offset="0" stop-color="#4f4c5f"/><stop offset="1" stop-color="#77718a"/></linearGradient><linearGradient id="SVGID_1_" gradientUnits="userSpaceOnUse" x1="437.268" x2="437.268" xlink:href="#lg1" y1="224.32" y2="85.399"/><linearGradient id="SVGID_2_" gradientUnits="userSpaceOnUse" x1="446.477" x2="446.477" y1="98.65" y2="22.99"><stop offset="0" stop-color="#fbe7b4"/><stop offset="1" stop-color="#fff5e3"/></linearGradient><linearGradient id="lg2"><stop offset="0" stop-color="#fd869c"/><stop offset="1" stop-color="#fdb0bf"/></linearGradient><linearGradient id="SVGID_3_" gradientUnits="userSpaceOnUse" x1="251" x2="251" xlink:href="#lg2" y1="479.011" y2="297.203"/><linearGradient id="SVGID_4_" gradientUnits="userSpaceOnUse" x1="273.545" x2="449.774" xlink:href="#lg1" y1="217.109" y2="217.109"/><linearGradient id="SVGID_5_" gradientUnits="userSpaceOnUse" x1="206.854" x2="334.544" xlink:href="#lg1" y1="129.825" y2="129.825"/><linearGradient id="lg3"><stop offset="0" stop-color="#77718a"/><stop offset="1" stop-color="#4f4c5f"/></linearGradient><linearGradient id="SVGID_6_" gradientUnits="userSpaceOnUse" x1="15.481" x2="143.171" xlink:href="#lg3" y1="129.825" y2="129.825"/><linearGradient id="SVGID_7_" gradientUnits="userSpaceOnUse" x1="10.811" x2="89.228" y1="142.494" y2="142.494"><stop offset="0" stop-color="#fdb0bf"/><stop offset="1" stop-color="#fd869c"/></linearGradient><linearGradient id="SVGID_8_" gradientUnits="userSpaceOnUse" x1="260.796" x2="339.214" xlink:href="#lg2" y1="142.494" y2="142.494"/><linearGradient id="SVGID_9_" gradientUnits="userSpaceOnUse" x1="175.01" x2="175.01" xlink:href="#lg3" y1="254.667" y2="82.61"/><linearGradient id="SVGID_10_" gradientUnits="userSpaceOnUse" x1="175.01" x2="175.01" y1="316.47" y2="157.9"><stop offset="0" stop-color="#fff5e3"/><stop offset="1" stop-color="#fbe7b4"/></linearGradient><linearGradient id="SVGID_11_" gradientUnits="userSpaceOnUse" x1="0" x2="502" y1="297.203" y2="297.203"><stop offset="0" stop-color="#f7496e"/><stop offset="1" stop-color="#fd869c"/></linearGradient><g><path d="m426.96 224.32-30.44-39.67c38.13-29.27 33.79-51.63 27.21-85.49-.03-.17-.07-.34-.1-.51l22.847-13.251 28.053 13.251c6.47 35.509 10.09 81.41-47.57 125.67z" fill="url(#SVGID_1_)"/><path d="m474.53 98.65h-50.9c-3.2-16.49-6.62-34.38-4.6-53.41 1.41-13.22 12.66-22.25 24.86-22.25 14.584 0 26.459 12.688 24.88 27.57-1.17 11.01.95 23.17 4.04 39.06.57 2.929 1.16 5.94 1.72 9.03z" fill="url(#SVGID_2_)"/><path d="m251 297.203-217.212 33.788 27.965 82.833c13.153 38.959 49.69 65.187 90.809 65.187h196.874c41.119 0 77.657-26.228 90.809-65.187l27.965-82.833z" fill="url(#SVGID_3_)"/><path d="m340.93 151.771h-67.385v130.675h176.229v-21.831c0-60.113-48.731-108.844-108.844-108.844z" fill="url(#SVGID_4_)"/><path d="m334.544 88.891c-2.04-4.541-4.781-8.658-8.307-12.184-24.321-24.321-76.812-11.27-101.143 13.051-24.321 24.33-24.321 63.77 0 88.091 10.947 10.947 24.958 16.974 39.274 18.063z" fill="url(#SVGID_5_)"/><path d="m15.48 88.891c2.04-4.541 4.781-8.658 8.307-12.184 24.322-24.321 76.813-11.269 101.143 13.052 24.321 24.33 24.321 63.77 0 88.091-10.947 10.947-24.958 16.974-39.274 18.063z" fill="url(#SVGID_6_)"/><path d="m89.228 171.712c0 8.418-1.246 16.54-3.572 24.201-17.491 1.338-35.443-4.68-48.818-18.063-20.794-20.795-33.357-62.192-21.358-88.959 41.508 4.763 73.748 40.021 73.748 82.821z" fill="url(#SVGID_7_)"/><path d="m260.796 171.712c0 8.418 1.246 16.54 3.572 24.201 17.491 1.338 35.443-4.68 48.818-18.063 20.795-20.795 33.357-62.192 21.358-88.959-41.507 4.763-73.748 40.021-73.748 82.821z" fill="url(#SVGID_8_)"/><path d="m276.881 87.394c-7.584-5.859-15.685-11.081-24.221-15.585-10.68 4.548-20.362 10.747-27.566 17.949-8.979 8.983-14.633 20.027-16.982 31.607l22.603-21.541 28.316 15.143c6.401 3.423 14.287 2.254 19.42-2.879 7.023-7.022 6.289-18.622-1.57-24.694z" fill="#5c586f"/><path d="m38.6 231.21c-.34-3.73-.52-7.62-.52-11.67 0-75.63 61.31-136.93 136.93-136.93 75.63 0 136.93 61.3 136.93 136.93 0 4.05-.18 7.94-.52 11.67l-37.875 23.457h-202.824z" fill="url(#SVGID_9_)"/><path d="m311.42 231.21c-6.08 66.17-64.83 85.26-136.41 85.26-71.57 0-130.33-19.09-136.41-85.26 100.33-5.86 86.62-73.31 136.41-73.31s36.08 67.439 136.41 73.31z" fill="url(#SVGID_10_)"/><g><ellipse cx="80.78" cy="226.861" fill="#ffaecf" rx="16.015" ry="12.87"/><ellipse cx="269.245" cy="226.861" fill="#ffaecf" rx="16.015" ry="12.87"/><circle cx="108.236" cy="195.104" fill="#fff" r="31.757"/><circle cx="241.788" cy="195.104" fill="#fff" r="31.757"/><g fill="#383842"><g><circle cx="108.236" cy="195.104" r="18.927"/><circle cx="241.789" cy="195.104" r="18.927"/></g><path d="m185.553 236.616c-3.715 0-7.34-1.178-10.541-3.379-3.2 2.201-6.826 3.379-10.541 3.379-5.22 0-10.262-2.326-14.198-6.549-1.883-2.02-1.771-5.184.249-7.066 2.02-1.883 5.184-1.772 7.066.249 2.052 2.202 4.433 3.366 6.883 3.366s4.831-1.164 6.883-3.367c.946-1.015 2.271-1.591 3.658-1.591 1.387 0 2.712.576 3.658 1.591 2.052 2.202 4.433 3.366 6.883 3.366s4.831-1.164 6.883-3.366c1.883-2.021 5.047-2.13 7.066-.249 2.021 1.883 2.132 5.046.249 7.066-3.935 4.225-8.978 6.55-14.198 6.55z"/></g></g><path d="m151.094 330.991h-117.306l10.128 30h107.177c8.284 0 15-6.716 15-15 .001-8.284-6.715-15-14.999-15z" fill="#fd748d"/><path d="m468.212 263.414h-434.424c-18.66 0-33.788 15.128-33.788 33.789 0 18.661 15.128 33.788 33.788 33.788h434.423c18.661 0 33.788-15.128 33.788-33.788.001-18.661-15.127-33.789-33.787-33.789z" fill="url(#SVGID_11_)"/></g></svg>