<svg id="Capa_1" enable-background="new 0 0 502 502" height="512" viewBox="0 0 502 502" width="512" xmlns="http://www.w3.org/2000/svg" xmlns:xlink="http://www.w3.org/1999/xlink"><linearGradient id="SVGID_1_" gradientUnits="userSpaceOnUse" x1="125.5" x2="480.468" y1="125.5" y2="480.468"><stop offset="0" stop-color="#7ecc5c"/><stop offset="1" stop-color="#b8e2a5"/></linearGradient><g><path d="m208.594 32.459-176.135 176.135c-43.278 43.278-43.278 113.446 0 156.724l68.932 68.932 59.42 59.42c11.108 11.108 29.117 11.108 40.225 0 11.108-11.108 11.108-29.117 0-40.225l-76.269-76.269c-9.094-9.094-9.094-23.839 0-32.934 9.094-9.094 23.839-9.094 32.934 0l76.269 76.269c11.108 11.108 29.117 11.108 40.225 0 11.108-11.108 11.108-29.117 0-40.225l-76.269-76.269c-9.094-9.094-9.094-23.839 0-32.934 9.094-9.094 23.839-9.094 32.934 0l76.269 76.269c11.108 11.108 29.117 11.108 40.225 0 11.108-11.108 11.108-29.117 0-40.225l-76.269-76.269c-9.094-9.094-9.094-23.839 0-32.934 9.094-9.094 23.839-9.094 32.934 0l76.269 76.269c11.108 11.108 29.117 11.108 40.225 0 11.108-11.108 11.108-29.117 0-40.225l-76.269-76.269c-9.094-9.094-9.094-23.839 0-32.934 9.094-9.094 23.839-9.094 32.934 0l76.269 76.269c11.108 11.108 29.117 11.108 40.225 0 11.108-11.108 11.108-29.117 0-40.225l-128.354-128.35c-43.278-43.279-113.446-43.279-156.724 0z" fill="url(#SVGID_1_)"/><g><path d="m323.703 53.336c-9.25-4.111-19.214-6.449-29.616-6.95-5.173-.249-9.164-4.645-8.915-9.818.248-5.173 4.644-9.164 9.818-8.915 12.729.614 24.952 3.489 36.33 8.546 4.733 2.103 6.864 7.645 4.761 12.377-2.113 4.752-7.665 6.855-12.378 4.76z" fill="#b8e2a5"/></g><g><path d="m260.519 50.384c-4.395 2.052-8.617 4.569-12.548 7.482-4.16 3.084-10.033 2.211-13.118-1.949-3.084-4.161-2.206-10.035 1.949-13.117 4.941-3.662 10.251-6.828 15.785-9.41 4.693-2.19 10.273-.162 12.463 4.531 2.187 4.685.17 10.269-4.531 12.463z" fill="#b8e2a5"/></g><g><ellipse cx="138.166" cy="273.933" fill="#f7496e" rx="16.316" ry="13.112" transform="matrix(.707 -.707 .707 .707 -153.232 177.933)"/><ellipse cx="273.933" cy="138.166" fill="#f7496e" rx="16.316" ry="13.112" transform="matrix(.707 -.707 .707 .707 -17.465 234.169)"/><path d="m213.918 213.918c-4.98 4.98-11.624 8.295-19.108 9.121-6.941.766-13.189-4.239-13.956-11.18-.767-6.942 4.24-13.189 11.18-13.956 3.112-.343 5.525-2.757 5.869-5.869.765-6.94 7.013-11.946 13.956-11.18 6.941.766 11.947 7.015 11.18 13.956-.826 7.484-4.141 14.128-9.121 19.108z" fill="#383842"/><path d="m156.367 206.922c-12.464-10.933-31.547-10.534-43.567.885-13.24 12.578-13.443 33.513-.608 46.347.651.651 1.324 1.269 2.015 1.853 4.195 3.544 10.699 1.651 12.426-3.562.362-1.094.802-2.192 1.278-3.289l-.028.018 3.047-22.037 22.037-3.047-.018.028c1.096-.475 2.192-.914 3.283-1.276 5.272-1.748 7.076-8.314 3.472-12.54-1.013-1.186-2.125-2.317-3.337-3.38z" fill="#fff"/><path d="m138.132 234.341c4.577-4.577 9.698-8.026 14.833-10.25-.941-2.348-2.36-4.546-4.262-6.448-7.53-7.53-19.739-7.53-27.27 0-7.53 7.53-7.53 19.739 0 27.27 1.902 1.902 4.1 3.321 6.448 4.262 2.224-5.137 5.674-10.257 10.251-14.834z" fill="#383842"/><path d="m252.576 110.713c-12.464-10.933-31.547-10.534-43.567.885-13.24 12.578-13.443 33.513-.608 46.347.651.651 1.324 1.269 2.015 1.853 4.195 3.544 10.699 1.651 12.426-3.562.362-1.092.801-2.188 1.276-3.283l-.026.012 3.047-22.037 22.037-3.047-.012.026c1.094-.474 2.188-.912 3.278-1.273 5.272-1.748 7.076-8.314 3.472-12.54-1.014-1.187-2.126-2.317-3.338-3.381z" fill="#fff"/><path d="m234.341 138.132c4.577-4.577 9.698-8.026 14.833-10.25-.941-2.348-2.36-4.546-4.262-6.448-7.53-7.53-19.739-7.53-27.27 0-7.53 7.53-7.53 19.739 0 27.27 1.902 1.902 4.1 3.321 6.448 4.262 2.224-5.137 5.674-10.257 10.251-14.834z" fill="#383842"/></g></g></svg>