<svg id="Capa_1" enable-background="new 0 0 502 502" height="512" viewBox="0 0 502 502" width="512" xmlns="http://www.w3.org/2000/svg" xmlns:xlink="http://www.w3.org/1999/xlink"><linearGradient id="SVGID_1_" gradientUnits="userSpaceOnUse" x1="251" x2="251" y1="433.06" y2="223.404"><stop offset="0" stop-color="#f9e09d"/><stop offset="1" stop-color="#f3c757"/></linearGradient><linearGradient id="SVGID_2_" gradientUnits="userSpaceOnUse" x1="251" x2="251" y1="241.317" y2="30.864"><stop offset="0" stop-color="#eb9981"/><stop offset="1" stop-color="#dc543c"/></linearGradient><linearGradient id="SVGID_3_" gradientUnits="userSpaceOnUse" x1="251" x2="251" y1="471.136" y2="394.984"><stop offset="0" stop-color="#fdb0bf"/><stop offset="1" stop-color="#fd869c"/></linearGradient><g><path d="m86.536 241.317-48.46 153.667 212.924 38.076 212.924-38.076-48.465-153.667-164.459-17.913z" fill="url(#SVGID_1_)"/><path d="m415.459 241.317c25.904-25.969 24.11-68.045-5.392-91.776l-.097-.078.022-.084c9.809-38.031-18.683-75.32-59.73-78.175l-.114-.008c-15.537-36.302-61.676-50.563-96.67-29.881l-.018.01-1.82-1.065c-34.627-20.263-80.089-6.483-96.015 29.104l-.861 1.924-1.787.098c-40.727 2.238-69.752 38.519-61.173 76.465l.343 1.518-.024.019c-29.682 23.697-31.544 65.907-5.588 91.928h328.924z" fill="url(#SVGID_2_)"/><path d="m463.924 394.984h-425.848c-21.029 0-38.076 17.047-38.076 38.076 0 21.029 17.047 38.076 38.076 38.076h425.848c21.029 0 38.076-17.047 38.076-38.076 0-21.029-17.047-38.076-38.076-38.076z" fill="url(#SVGID_3_)"/><g><ellipse cx="144.46" cy="349.4" fill="#ffaecf" rx="18.107" ry="14.551"/><ellipse cx="357.54" cy="349.4" fill="#ffaecf" rx="18.107" ry="14.551"/><circle cx="175.502" cy="313.496" fill="#fff" r="35.904"/><circle cx="326.498" cy="313.496" fill="#fff" r="35.904"/><g fill="#383842"><g><circle cx="175.502" cy="313.496" r="21.399"/><circle cx="326.498" cy="313.496" r="21.399"/></g><path d="m251 349.473c-6.106 0-12.209-2.308-17.19-6.926-2.025-1.877-2.145-5.041-.267-7.066s5.042-2.145 7.066-.267c6.117 5.672 14.664 5.673 20.783 0 2.024-1.876 5.188-1.758 7.066.267 1.877 2.025 1.758 5.188-.268 7.066-4.979 4.617-11.086 6.926-17.19 6.926z"/></g></g><g><path d="m404.72 343.913-7.276-23.072c-1.661-5.268 1.263-10.884 6.529-12.545 5.27-1.659 10.884 1.263 12.545 6.529l7.276 23.072c1.661 5.268-1.263 10.884-6.529 12.545-5.28 1.664-10.887-1.272-12.545-6.529z" fill="#fff5e3"/></g><g><path d="m386.032 286.171-2.704-8.572c-1.661-5.268 1.262-10.884 6.528-12.546 5.266-1.66 10.884 1.262 12.546 6.528l2.704 8.572c1.661 5.268-1.262 10.884-6.528 12.546-5.289 1.667-10.89-1.281-12.546-6.528z" fill="#fff5e3"/></g><g><path d="m144.594 197.958c-3.975-1.165-6.253-5.331-5.089-9.306 3.742-12.775 15.656-21.697 28.973-21.697s25.231 8.922 28.973 21.697c1.164 3.975-1.115 8.142-5.09 9.306-3.973 1.165-8.141-1.115-9.306-5.09-1.882-6.425-7.876-10.913-14.577-10.913s-12.695 4.488-14.577 10.914c-1.166 3.973-5.33 6.253-9.307 5.089z" fill="#dc543c"/></g><g><path d="m213.713 113.21c-1.882-6.426-7.876-10.914-14.577-10.914s-12.695 4.488-14.577 10.914c-1.165 3.975-5.331 6.251-9.306 5.089-3.975-1.165-6.253-5.331-5.089-9.306 3.742-12.775 15.656-21.697 28.973-21.697s25.23 8.922 28.973 21.697c1.164 3.975-1.114 8.142-5.089 9.306-3.962 1.16-8.139-1.099-9.308-5.089z" fill="#dc543c"/></g><g><path d="m265.577 165.475c-1.882-6.426-7.876-10.914-14.577-10.914s-12.695 4.488-14.577 10.914c-1.165 3.975-5.331 6.251-9.306 5.089-3.975-1.165-6.253-5.331-5.089-9.306 3.742-12.775 15.656-21.697 28.973-21.697s25.23 8.922 28.973 21.697c1.164 3.975-1.114 8.142-5.089 9.306-3.962 1.16-8.139-1.099-9.308-5.089z" fill="#dc543c"/></g><g><path d="m288.287 113.21c1.882-6.426 7.876-10.914 14.577-10.914s12.695 4.488 14.577 10.914c1.165 3.975 5.331 6.251 9.306 5.089 3.975-1.165 6.253-5.331 5.089-9.306-3.742-12.775-15.656-21.697-28.973-21.697s-25.23 8.922-28.973 21.697c-1.164 3.975 1.114 8.142 5.089 9.306 3.962 1.16 8.139-1.099 9.308-5.089z" fill="#dc543c"/></g><g><path d="m357.406 197.958c3.975-1.165 6.253-5.331 5.089-9.306-3.742-12.775-15.656-21.697-28.973-21.697s-25.231 8.922-28.973 21.697c-1.164 3.975 1.115 8.142 5.09 9.306 3.973 1.165 8.141-1.115 9.306-5.09 1.882-6.425 7.876-10.913 14.577-10.913s12.695 4.488 14.577 10.914c1.166 3.973 5.33 6.253 9.307 5.089z" fill="#dc543c"/></g><path d="m146.137 225.959c0-8.482-6.876-15.358-15.358-15.358h-61.044c2.403 11.198 7.996 21.889 16.801 30.716h44.243c8.482 0 15.358-6.876 15.358-15.358z" fill="#dc543c"/></g></svg>