<svg id="Capa_1" enable-background="new 0 0 502 502" height="512" viewBox="0 0 502 502" width="512" xmlns="http://www.w3.org/2000/svg" xmlns:xlink="http://www.w3.org/1999/xlink"><linearGradient id="SVGID_1_" gradientUnits="userSpaceOnUse" x1="317.786" x2="433.227" y1="92.301" y2="92.301"><stop offset="0" stop-color="#77718a"/><stop offset="1" stop-color="#4f4c5f"/></linearGradient><linearGradient id="SVGID_2_" gradientUnits="userSpaceOnUse" x1="68.773" x2="184.214" y1="92.301" y2="92.301"><stop offset="0" stop-color="#4f4c5f"/><stop offset="1" stop-color="#77718a"/></linearGradient><linearGradient id="SVGID_3_" gradientUnits="userSpaceOnUse" x1="251" x2="251" y1="493.109" y2="311.301"><stop offset="0" stop-color="#a07ccd"/><stop offset=".9777" stop-color="#875ac0"/></linearGradient><linearGradient id="lg1"><stop offset="0" stop-color="#dc8757"/><stop offset="1" stop-color="#efc4ab"/></linearGradient><linearGradient id="SVGID_4_" gradientUnits="userSpaceOnUse" x1="251" x2="251" xlink:href="#lg1" y1="311.08" y2="23.89"/><linearGradient id="SVGID_5_" gradientUnits="userSpaceOnUse" x1="0" x2="502" y1="311.301" y2="311.301"><stop offset="0" stop-color="#fdb0bf"/><stop offset="1" stop-color="#fd869c"/></linearGradient><linearGradient id="SVGID_6_" gradientUnits="userSpaceOnUse" x1="328.536" x2="404.446" y1="263.89" y2="263.89"><stop offset="0" stop-color="#efc4ab"/><stop offset="1" stop-color="#dc8757"/></linearGradient><linearGradient id="SVGID_7_" gradientUnits="userSpaceOnUse" x1="402.446" x2="500.372" y1="163.811" y2="163.811"><stop offset="0" stop-color="#b1e6ee"/><stop offset="1" stop-color="#3cc8db"/></linearGradient><linearGradient id="lg2"><stop offset="0" stop-color="#3cc8db"/><stop offset="1" stop-color="#b1e6ee"/></linearGradient><linearGradient id="SVGID_8_" gradientUnits="userSpaceOnUse" x1="11.568" x2="76.063" xlink:href="#lg2" y1="205.464" y2="205.464"/><linearGradient id="SVGID_9_" gradientUnits="userSpaceOnUse" x1="61.998" x2="126.494" xlink:href="#lg2" y1="41.139" y2="41.139"/><linearGradient id="SVGID_10_" gradientUnits="userSpaceOnUse" x1="97.554" x2="173.464" xlink:href="#lg1" y1="263.89" y2="263.89"/><g><path d="m317.786 44.992s30.454-33.75 77.838-9.147 60.944 121.892-24.885 121.892z" fill="url(#SVGID_1_)"/><path d="m184.214 44.992s-30.454-33.75-77.838-9.147-60.944 121.892 24.885 121.892z" fill="url(#SVGID_2_)"/><path d="m251 311.301-217.212 33.788 27.965 82.833c13.153 38.959 49.69 65.187 90.809 65.187h196.874c41.119 0 77.657-26.228 90.809-65.187l27.965-82.833z" fill="url(#SVGID_3_)"/><path d="m151.094 345.089h-117.306l10.128 30h107.177c8.284 0 15-6.716 15-15 .001-8.284-6.715-15-14.999-15z" fill="#875ac0"/><path d="m372.644 171.651-6.472-47.281c-7.881-57.571-57.063-100.48-115.172-100.48-58.108 0-107.291 42.909-115.172 100.481l-6.472 47.281c-10.093 73.738 47.217 139.428 121.644 139.428 74.427 0 131.737-65.69 121.644-139.429z" fill="url(#SVGID_4_)"/><g><g><ellipse cx="156.754" cy="202.649" fill="#f7496e" rx="16.017" ry="12.872"/><ellipse cx="345.246" cy="202.649" fill="#f7496e" rx="16.017" ry="12.872"/><circle cx="184.214" cy="170.888" fill="#fff" r="31.761"/><circle cx="317.786" cy="170.888" fill="#fff" r="31.761"/><g fill="#383842"><g><circle cx="184.214" cy="170.888" r="18.93"/><circle cx="317.786" cy="170.888" r="18.93"/></g><path d="m261.542 212.405c-3.716 0-7.342-1.178-10.542-3.38-3.2 2.202-6.826 3.38-10.541 3.38-5.222 0-10.265-2.326-14.201-6.549-1.883-2.02-1.772-5.184.248-7.067 2.019-1.883 5.185-1.771 7.066.249 2.054 2.203 4.435 3.367 6.886 3.367s4.831-1.164 6.884-3.367c.946-1.015 2.271-1.591 3.658-1.591s2.712.576 3.658 1.591c2.053 2.203 4.433 3.367 6.884 3.367s4.832-1.164 6.886-3.367c1.882-2.02 5.045-2.131 7.066-.249 2.021 1.883 2.131 5.047.248 7.067-3.936 4.224-8.979 6.549-14.2 6.549z"/></g></g><path d="m268.405 176.887c0 5.605-7.792 10.149-17.405 10.149-9.612 0-17.405-4.544-17.405-10.149s7.792-6.271 17.405-6.271c9.612-.001 17.405.666 17.405 6.271z" fill="#383842"/></g><path d="m468.212 277.512h-434.424c-18.66 0-33.788 15.128-33.788 33.789 0 18.661 15.128 33.788 33.788 33.788h434.423c18.661 0 33.788-15.128 33.788-33.788.001-18.661-15.127-33.789-33.787-33.789z" fill="url(#SVGID_5_)"/><path d="m408.817 290.141c-3.964-3.964-9.374-6.136-14.979-6.015l-37.1-6.614h-58.127c.659 13.849 6.739 27.11 17.433 36.753 9.858 8.889 22.822 13.543 36.096 13.543h29.471c7.45 0 14.632-1.557 21.178-4.423 13.146-5.754 16.175-23.097 6.028-33.244z" fill="#fd748d"/><path d="m328.82 271.42 1.688-10.697c2.794-17.707 18.056-30.75 35.983-30.75 17.926 0 33.188 13.042 35.983 30.75l1.688 10.697c2.187 13.856-8.523 26.388-22.551 26.388h-30.241c-14.027 0-24.737-12.532-22.55-26.388z" fill="url(#SVGID_6_)"/><circle cx="451.409" cy="163.811" fill="url(#SVGID_7_)" r="48.963"/><circle cx="43.815" cy="205.464" fill="url(#SVGID_8_)" r="32.248"/><circle cx="94.246" cy="41.139" fill="url(#SVGID_9_)" r="32.248"/><g><path d="m472.157 173.216c-5.194 0-9.405-4.211-9.405-9.405 0-6.254-5.088-11.343-11.343-11.343-5.194 0-9.405-4.211-9.405-9.405s4.211-9.405 9.405-9.405c16.627 0 30.153 13.527 30.153 30.153 0 5.194-4.211 9.405-9.405 9.405z" fill="#b1e6ee"/></g><path d="m173.18 271.42-1.688-10.697c-2.794-17.707-18.056-30.75-35.983-30.75-17.926 0-33.188 13.042-35.983 30.75l-1.688 10.697c-2.187 13.856 8.523 26.388 22.55 26.388h30.241c14.028 0 24.738-12.532 22.551-26.388z" fill="url(#SVGID_10_)"/></g></svg>