<svg id="Capa_1" enable-background="new 0 0 502 502" height="512" viewBox="0 0 502 502" width="512" xmlns="http://www.w3.org/2000/svg" xmlns:xlink="http://www.w3.org/1999/xlink"><linearGradient id="lg1"><stop offset="0" stop-color="#3cc8db"/><stop offset="1" stop-color="#b1e6ee"/></linearGradient><linearGradient id="SVGID_1_" gradientUnits="userSpaceOnUse" x1="251" x2="251" xlink:href="#lg1" y1="425.861" y2="107.393"/><linearGradient id="lg2"><stop offset=".0223" stop-color="#875ac0"/><stop offset="1" stop-color="#a07ccd"/></linearGradient><linearGradient id="SVGID_2_" gradientUnits="userSpaceOnUse" x1="251" x2="251" xlink:href="#lg2" y1="152.108" y2="62.679"/><linearGradient id="SVGID_3_" gradientUnits="userSpaceOnUse" x1="251" x2="251" y1="105.754" y2="-108.197"><stop offset="0" stop-color="#fbe7b4"/><stop offset="1" stop-color="#fff5e3"/></linearGradient><linearGradient id="SVGID_4_" gradientUnits="userSpaceOnUse" x1="251" x2="251" y1="456.867" y2="238.193"><stop offset="0" stop-color="#4f4c5f"/><stop offset="1" stop-color="#77718a"/></linearGradient><linearGradient id="SVGID_5_" gradientUnits="userSpaceOnUse" x1="251.005" x2="251.005" xlink:href="#lg1" y1="425.861" y2="283.183"/><linearGradient id="SVGID_6_" gradientUnits="userSpaceOnUse" x1="251" x2="251" xlink:href="#lg2" y1="501.582" y2="412.153"/><g><path d="m31.188 107.393h439.624v318.467h-439.624z" fill="url(#SVGID_1_)"/><path d="m470.812 62.679h-439.624c-17.225 0-31.188 13.963-31.188 31.188v27.053c0 17.225 13.963 31.188 31.188 31.188h439.624c17.225 0 31.188-13.963 31.188-31.188v-27.053c0-17.225-13.963-31.188-31.188-31.188z" fill="url(#SVGID_2_)"/><path d="m225.893 168.816-77.715-11.633-58.274 41.202c-1.059.749-2.052 1.586-2.969 2.503-11.526 11.526-7.706 31.227 7.418 37.307 8.927 3.589 18.581 5.725 28.67 6.111 1.124.043 2.245.064 3.359.064 26.797 0 51.957-12.52 68.204-33.334 5.026-6.438 12.768-10.164 20.936-10.164h7.985c8.901 0 16.116-7.216 16.116-16.116.001-7.981-5.838-14.759-13.73-15.94z" fill="#00c6dc"/><path d="m400.903 107.393c19.005-9.535 31.892-29.467 31.163-52.343-.938-29.428-24.812-53.466-54.234-54.59-21.939-.839-41.217 10.846-51.278 28.475-5.22 9.146-14.749 14.98-25.279 14.98h-100.549c-10.53 0-20.06-5.834-25.279-14.98-10.061-17.628-29.339-29.313-51.278-28.475-29.422 1.124-53.296 25.162-54.234 54.59-.729 22.875 12.158 42.808 31.163 52.343-19.005 9.535-31.892 29.467-31.163 52.343.938 29.428 24.812 53.466 54.234 54.59 21.939.838 41.217-10.846 51.278-28.475 5.22-9.146 14.749-14.98 25.279-14.98h100.548c10.53 0 20.06 5.834 25.279 14.98 10.061 17.629 29.339 29.314 51.278 28.475 29.422-1.124 53.296-25.162 54.234-54.59.729-22.875-12.157-42.808-31.162-52.343z" fill="url(#SVGID_3_)"/><g><ellipse cx="163.114" cy="134.526" fill="#ffaecf" rx="14.936" ry="12.003"/><ellipse cx="338.886" cy="134.526" fill="#ffaecf" rx="14.936" ry="12.003"/><circle cx="188.721" cy="104.908" fill="#fff" r="29.618"/><circle cx="313.279" cy="104.908" fill="#fff" r="29.618"/><g fill="#383842"><g><circle cx="188.721" cy="104.908" r="17.652"/><circle cx="313.279" cy="104.908" r="17.652"/></g><path d="m251 135.468c-5.247 0-10.495-1.984-14.775-5.954-2.025-1.877-2.145-5.041-.267-7.066 1.877-2.025 5.042-2.144 7.065-.267 4.697 4.354 11.256 4.354 15.953 0 2.024-1.876 5.188-1.759 7.065.267 1.878 2.025 1.759 5.188-.267 7.066-4.279 3.97-9.527 5.954-14.774 5.954z"/></g></g><path d="m293.748 238.193h-85.496c-24.929 0-45.138 20.209-45.138 45.138v173.537h175.771v-173.538c.001-24.928-20.208-45.137-45.137-45.137z" fill="url(#SVGID_4_)"/><path d="m208.114 425.861v-142.515c.008-.077.068-.143.104-.163l85.53.011c.069.009.13.076.147.114l-.007 142.552h-85.774z" fill="url(#SVGID_5_)"/><g><path d="m384.06 85.655c-3.618-4.172-3.17-10.488 1.003-14.107 3.241-2.812 5.35-6.818 5.784-10.993.57-5.493 5.48-9.484 10.98-8.912 5.493.571 9.483 5.487 8.912 10.98-.953 9.171-5.536 17.931-12.573 24.034-4.153 3.603-10.471 3.189-14.106-1.002z" fill="#fff5e3"/></g><g><path d="m380.825 41.374c-1.792-.645-3.75-.97-5.589-.944-.049 0-.098.001-.146.001-5.456 0-9.918-4.383-9.996-9.856-.079-5.522 4.333-10.063 9.855-10.143 4.315-.062 8.557.652 12.644 2.122 5.197 1.869 7.896 7.597 6.026 12.794-1.868 5.194-7.594 7.894-12.794 6.026z" fill="#fff5e3"/></g><path d="m470.812 412.153h-439.624c-17.225 0-31.188 13.963-31.188 31.188v27.053c0 17.225 13.963 31.188 31.188 31.188h439.624c17.225 0 31.188-13.963 31.188-31.188v-27.053c0-17.225-13.963-31.188-31.188-31.188z" fill="url(#SVGID_6_)"/></g></svg>