<svg id="Capa_1" enable-background="new 0 0 502 502" height="512" viewBox="0 0 502 502" width="512" xmlns="http://www.w3.org/2000/svg" xmlns:xlink="http://www.w3.org/1999/xlink"><linearGradient id="SVGID_1_" gradientUnits="userSpaceOnUse" x1="251" x2="251" y1="455.09" y2="351.219"><stop offset="0" stop-color="#7ecc5c"/><stop offset="1" stop-color="#b8e2a5"/></linearGradient><linearGradient id="SVGID_2_" gradientUnits="userSpaceOnUse" x1="251" x2="251" y1="200.435" y2="36.087"><stop offset="0" stop-color="#77718a"/><stop offset="1" stop-color="#4f4c5f"/></linearGradient><linearGradient id="lg1"><stop offset="0" stop-color="#f7cbb5"/><stop offset="1" stop-color="#f7b695"/></linearGradient><linearGradient id="SVGID_3_" gradientUnits="userSpaceOnUse" x1="384.567" x2="452.764" xlink:href="#lg1" y1="234.534" y2="166.337"/><linearGradient id="SVGID_4_" gradientUnits="userSpaceOnUse" x1="49.236" x2="117.433" xlink:href="#lg1" y1="234.534" y2="166.337"/><linearGradient id="lg2"><stop offset="0" stop-color="#f7b695"/><stop offset="1" stop-color="#f7cbb5"/></linearGradient><linearGradient id="SVGID_5_" gradientUnits="userSpaceOnUse" x1="251" x2="251" xlink:href="#lg2" y1="351.219" y2="29.79"/><linearGradient id="lg3"><stop offset="0" stop-color="#4f4c5f"/><stop offset="1" stop-color="#77718a"/></linearGradient><linearGradient id="SVGID_6_" gradientUnits="userSpaceOnUse" x1="178.908" x2="323.092" xlink:href="#lg3" y1="131.791" y2="-12.393"/><linearGradient id="SVGID_7_" gradientUnits="userSpaceOnUse" x1="109.564" x2="213.699" xlink:href="#lg3" y1="328.302" y2="328.302"/><linearGradient id="SVGID_8_" gradientUnits="userSpaceOnUse" x1="288.301" x2="392.436" xlink:href="#lg3" y1="328.302" y2="328.302"/><linearGradient id="SVGID_9_" gradientUnits="userSpaceOnUse" x1="251" x2="251" y1="502" y2="280.748"><stop offset="0" stop-color="#efc4ab"/><stop offset="1" stop-color="#dc8757"/></linearGradient><linearGradient id="SVGID_10_" gradientUnits="userSpaceOnUse" x1="179.095" x2="322.905" y1="463.076" y2="463.076"><stop offset="0" stop-color="#fff5e3"/><stop offset="1" stop-color="#fbe7b4"/></linearGradient><linearGradient id="SVGID_11_" gradientUnits="userSpaceOnUse" x1="90.286" x2="211.381" xlink:href="#lg2" y1="469.715" y2="469.715"/><linearGradient id="SVGID_12_" gradientUnits="userSpaceOnUse" x1="290.619" x2="411.715" xlink:href="#lg1" y1="469.715" y2="469.715"/><g><path d="m403.2 455.09s9.477-51.837-42.556-103.87h-219.288c-52.033 52.033-42.556 103.87-42.556 103.87z" fill="url(#SVGID_1_)"/><path d="m451.435 200.435c0-67.939-33.985-128.082-85.84-164.348h-229.191c-51.855 36.266-85.84 96.409-85.84 164.348z" fill="url(#SVGID_2_)"/><circle cx="418.666" cy="200.435" fill="url(#SVGID_3_)" r="48.223"/><circle cx="83.334" cy="200.435" fill="url(#SVGID_4_)" r="48.223"/><path d="m421.645 200.435c0 94.244-76.4 150.784-170.645 150.784s-170.645-56.539-170.645-150.784 76.401-170.645 170.645-170.645 170.645 76.401 170.645 170.645z" fill="url(#SVGID_5_)"/><path d="m310.757 0h-119.514c-32.971 0-59.699 26.728-59.699 59.699 0 32.971 26.728 59.699 59.699 59.699h119.514c32.971 0 59.699-26.728 59.699-59.699 0-32.971-26.728-59.699-59.699-59.699z" fill="url(#SVGID_6_)"/><g><ellipse cx="150.629" cy="221.167" fill="#f7496e" rx="17.058" ry="13.709"/><ellipse cx="351.371" cy="221.167" fill="#f7496e" rx="17.058" ry="13.709"/><circle cx="179.874" cy="187.341" fill="#fff" r="33.826"/><circle cx="322.126" cy="187.341" fill="#fff" r="33.826"/><path d="m191.045 198.188c-2.647 0-5.214-1.405-6.579-3.888-1.348-2.452-3.661-2.716-4.593-2.716s-3.245.265-4.593 2.716c-1.996 3.629-6.556 4.955-10.186 2.959-3.629-1.996-4.955-6.556-2.959-10.186 3.557-6.47 10.354-10.49 17.737-10.49s14.18 4.02 17.737 10.49c1.996 3.63.67 8.19-2.959 10.186-1.144.63-2.383.929-3.605.929z" fill="#383842"/><path d="m333.298 198.188c-2.647 0-5.214-1.405-6.579-3.888-1.348-2.452-3.661-2.716-4.593-2.716s-3.245.265-4.593 2.716c-1.996 3.629-6.556 4.955-10.186 2.959s-4.955-6.556-2.959-10.186c3.557-6.47 10.354-10.49 17.737-10.49s14.18 4.02 17.737 10.49c1.996 3.63.67 8.19-2.959 10.186-1.144.63-2.383.929-3.605.929z" fill="#383842"/><g><path d="m264.329 232.8h-26.658c-7.433 0-13.458-6.026-13.458-13.458 0-7.433 6.026-13.458 13.458-13.458h26.658c7.433 0 13.458 6.026 13.458 13.458 0 7.433-6.025 13.458-13.458 13.458z" fill="#383842"/></g></g><path d="m213.699 287.909s-38.022-44.428-82.142 0-15.089 100.532 27.641 100.532z" fill="url(#SVGID_7_)"/><path d="m288.301 287.909s38.022-44.428 82.142 0 15.089 100.532-27.641 100.532z" fill="url(#SVGID_8_)"/><path d="m251 280.748c-55.434 0-100.371 44.938-100.371 100.371v120.881l100.371-17.788 100.371 17.788v-120.881c0-55.433-44.937-100.371-100.371-100.371z" fill="url(#SVGID_9_)"/><g><g><ellipse cx="176.589" cy="387.525" fill="#f7496e" rx="12.646" ry="10.163"/><ellipse cx="325.411" cy="387.525" fill="#f7496e" rx="12.646" ry="10.163"/><circle cx="198.27" cy="362.449" fill="#fff" r="25.077"/><circle cx="303.73" cy="362.449" fill="#fff" r="25.077"/><g fill="#383842"><g><circle cx="198.27" cy="362.449" r="14.946"/><circle cx="303.73" cy="362.449" r="14.946"/></g><path d="m259.323 396.281c-2.92 0-5.771-.855-8.323-2.461-2.552 1.606-5.403 2.461-8.323 2.461-4.417 0-8.672-1.956-11.981-5.506-1.883-2.021-1.771-5.184.249-7.067 2.021-1.883 5.184-1.771 7.067.249 2.834 3.041 6.498 3.042 9.332 0 .946-1.015 2.271-1.591 3.658-1.591s2.712.576 3.658 1.591c2.834 3.042 6.498 3.041 9.332 0 1.884-2.02 5.047-2.13 7.067-.249 2.02 1.883 2.131 5.046.249 7.067-3.312 3.55-7.567 5.506-11.985 5.506z"/></g></g><path d="m264.742 367.185c0 4.425-6.152 8.013-13.742 8.013-7.589 0-13.742-3.587-13.742-8.013 0-4.425 6.152-4.951 13.742-4.951 7.589-.001 13.742.526 13.742 4.951z" fill="#383842"/></g><path d="m322.905 502-19.295-25.239c0-29.056-23.554-52.61-52.61-52.61-29.056 0-52.61 23.554-52.61 52.61l-19.295 25.239z" fill="url(#SVGID_10_)"/><path d="m187.769 408.244c-2.835-.399-5.73-.606-8.674-.606h-28.466v57.058l9.845-16.534 28.416-6.097c3.238-.695 6.207-2.31 8.548-4.652 9.999-9.998 4.333-27.198-9.669-29.169z" fill="#dc8757"/><path d="m179.095 437.429h-56.524c-17.831 0-32.285 14.455-32.285 32.285 0 17.831 14.455 32.285 32.285 32.285h56.524c17.831 0 32.285-14.455 32.285-32.285.001-17.83-14.454-32.285-32.285-32.285z" fill="url(#SVGID_11_)"/><path d="m322.905 437.429h56.524c17.831 0 32.285 14.455 32.285 32.285 0 17.831-14.455 32.285-32.285 32.285h-56.524c-17.831 0-32.285-14.455-32.285-32.285-.001-17.83 14.454-32.285 32.285-32.285z" fill="url(#SVGID_12_)"/></g></svg>