<svg id="Capa_1" enable-background="new 0 0 502 502" height="512" viewBox="0 0 502 502" width="512" xmlns="http://www.w3.org/2000/svg" xmlns:xlink="http://www.w3.org/1999/xlink"><linearGradient id="SVGID_1_" gradientUnits="userSpaceOnUse" x1="278.643" x2="278.643" y1="455.663" y2="343.184"><stop offset="0" stop-color="#3cc8db"/><stop offset="1" stop-color="#b1e6ee"/></linearGradient><linearGradient id="lg1"><stop offset="0" stop-color="#f9e09d"/><stop offset="1" stop-color="#f3c757"/></linearGradient><linearGradient id="SVGID_2_" gradientUnits="userSpaceOnUse" x1="25.562" x2="147.724" xlink:href="#lg1" y1="179.535" y2="57.373"/><linearGradient id="SVGID_3_" gradientUnits="userSpaceOnUse" x1="278.643" x2="278.643" xlink:href="#lg1" y1="204.12" y2="0"/><linearGradient id="lg2"><stop offset="0" stop-color="#d6997f"/><stop offset=".9995" stop-color="#c3816a"/></linearGradient><linearGradient id="SVGID_4_" gradientUnits="userSpaceOnUse" x1="410.578" x2="477.942" xlink:href="#lg2" y1="237.802" y2="170.438"/><linearGradient id="SVGID_5_" gradientUnits="userSpaceOnUse" x1="79.344" x2="146.708" xlink:href="#lg2" y1="237.802" y2="170.438"/><linearGradient id="lg3"><stop offset=".0005103643" stop-color="#c3816a"/><stop offset="1" stop-color="#d6997f"/></linearGradient><linearGradient id="SVGID_6_" gradientUnits="userSpaceOnUse" x1="278.643" x2="278.643" xlink:href="#lg3" y1="353.062" y2="62.483"/><linearGradient id="lg4"><stop offset="0" stop-color="#77718a"/><stop offset="1" stop-color="#4f4c5f"/></linearGradient><linearGradient id="SVGID_7_" gradientUnits="userSpaceOnUse" x1="163.468" x2="265.755" xlink:href="#lg4" y1="311.284" y2="311.284"/><linearGradient id="lg5"><stop offset="0" stop-color="#fd869c"/><stop offset="1" stop-color="#fdb0bf"/></linearGradient><linearGradient id="SVGID_8_" gradientUnits="userSpaceOnUse" x1="162.214" x2="228.503" xlink:href="#lg5" y1="324.927" y2="324.927"/><linearGradient id="SVGID_9_" gradientUnits="userSpaceOnUse" x1="291.531" x2="393.818" y1="311.284" y2="311.284"><stop offset="0" stop-color="#4f4c5f"/><stop offset="1" stop-color="#77718a"/></linearGradient><linearGradient id="SVGID_10_" gradientUnits="userSpaceOnUse" x1="328.783" x2="395.072" xlink:href="#lg5" y1="324.927" y2="324.927"/><linearGradient id="SVGID_11_" gradientUnits="userSpaceOnUse" x1="278.643" x2="278.643" xlink:href="#lg4" y1="502" y2="283.451"/><linearGradient id="SVGID_12_" gradientUnits="userSpaceOnUse" x1="207.617" x2="349.67" y1="463.552" y2="463.552"><stop offset="0" stop-color="#fff5e3"/><stop offset="1" stop-color="#fbe7b4"/></linearGradient><linearGradient id="SVGID_13_" gradientUnits="userSpaceOnUse" x1="119.892" x2="239.508" xlink:href="#lg3" y1="470.109" y2="470.109"/><linearGradient id="SVGID_14_" gradientUnits="userSpaceOnUse" x1="317.779" x2="437.394" xlink:href="#lg2" y1="470.109" y2="470.109"/><g><path d="m428.984 455.663s-.516-61.082-51.914-112.479h-196.853c-51.398 51.398-51.914 112.479-51.914 112.479z" fill="url(#SVGID_1_)"/><path d="m16.905 140.195c7.802-6.961 14.234-17.786 14.234-34.56 0-38.805 32.349-70.054 71.551-68.25 35.003 1.61 63.413 30.02 65.024 65.023 1.804 39.202-29.445 71.552-68.25 71.552-32.68 9.906-57.559 7.337-75.308 1.183-14.861-5.153-18.987-24.478-7.251-34.948z" fill="url(#SVGID_2_)"/><path d="m91.362 95.433c-9.115-4.055-19.811-.104-24.084 8.91-11.07 23.358-18.38 48.83-21.144 75.631 14.7 1.549 32.414.324 53.329-6.016l2.789-60.891c.346-7.559-3.976-14.558-10.89-17.634z" fill="#f0bf3b"/><path d="m482.763 204.12c0-112.552-91.568-204.12-204.12-204.12s-204.119 91.568-204.119 204.12z" fill="url(#SVGID_3_)"/><circle cx="444.26" cy="204.12" fill="url(#SVGID_4_)" r="47.633"/><circle cx="113.026" cy="204.12" fill="url(#SVGID_5_)" r="47.633"/><path d="m165.638 79.054c24.228-21.904 60.938-22.088 85.529-.592 34.747 30.374 80.221 48.781 129.999 48.781.154 0 .308 0 .462-.001 32.711-.075 60.433 24.014 64.353 56.489.807 6.683 1.222 13.487 1.222 20.388 0 93.093-75.467 148.942-168.56 148.942s-168.56-55.849-168.56-148.942c0-49.614 21.438-94.221 55.555-125.065z" fill="url(#SVGID_6_)"/><g><ellipse cx="174.91" cy="230.681" fill="#ffaecf" rx="17.63" ry="14.168"/><ellipse cx="382.377" cy="230.681" fill="#ffaecf" rx="17.63" ry="14.168"/><path d="m278.643 242.704c-7.61 0-15.219-2.543-21.569-7.631-5.889-4.718-6.839-13.316-2.121-19.205 4.718-5.89 13.317-6.838 19.205-2.121 2.64 2.115 6.328 2.115 8.968 0 5.887-4.718 14.486-3.769 19.205 2.121 4.718 5.889 3.768 14.487-2.121 19.205-6.348 5.088-13.957 7.631-21.567 7.631z" fill="#383842"/><path d="m240.016 193.387c-1.169-17.877-16.055-32.152-33.964-32.612-19.727-.506-35.877 15.335-35.877 34.947 0 .995.042 1.981.124 2.955.498 5.913 6.913 9.436 12.216 6.773 1.113-.559 2.288-1.061 3.49-1.537l-.035-.008 19.165-14.509 19.165 14.509-.035.008c1.2.474 2.373.976 3.484 1.534 5.363 2.692 11.758-.946 12.234-6.928.132-1.68.147-3.393.033-5.132z" fill="#fff"/><path d="m205.134 200.404c6.994 0 13.542 1.277 19.165 3.502 1.075-2.513 1.67-5.276 1.67-8.183 0-11.507-9.328-20.836-20.835-20.836s-20.835 9.328-20.835 20.836c0 2.907.595 5.67 1.67 8.183 5.623-2.225 12.171-3.502 19.165-3.502z" fill="#383842"/><path d="m387.035 193.387c-1.169-17.877-16.055-32.152-33.964-32.612-19.727-.506-35.877 15.335-35.877 34.947 0 .995.042 1.981.124 2.955.498 5.913 6.913 9.436 12.215 6.773 1.111-.558 2.284-1.06 3.483-1.534l-.029-.01 19.165-14.509 19.165 14.509-.029.01c1.198.474 2.368.975 3.477 1.531 5.363 2.692 11.758-.946 12.234-6.928.135-1.68.149-3.393.036-5.132z" fill="#fff"/><path d="m352.152 200.404c6.994 0 13.542 1.277 19.165 3.502 1.075-2.513 1.67-5.276 1.67-8.183 0-11.507-9.328-20.836-20.836-20.836-11.507 0-20.836 9.328-20.836 20.836 0 2.907.595 5.67 1.67 8.183 5.625-2.225 12.173-3.502 19.167-3.502z" fill="#383842"/></g><path d="m163.468 286.328c1.462-6.302 4.267-11.942 8.692-16.368 18.956-18.965 60.413-8.248 79.378 10.708 18.956 18.965 18.956 49.715 0 68.671-6.954 6.954-15.498 11.359-24.467 13.216z" fill="url(#SVGID_7_)"/><path d="m228.503 349.151c0 4.603-.494 9.088-1.432 13.404-15.469 3.2-32.192-1.205-44.203-13.216-14.54-14.54-24.23-42.307-19.4-63.011.721-.03 1.442-.039 2.173-.039 34.711-.001 62.862 28.141 62.862 62.862z" fill="url(#SVGID_8_)"/><path d="m393.818 286.328c-1.462-6.302-4.267-11.942-8.692-16.368-18.956-18.965-60.413-8.248-79.378 10.708-18.956 18.965-18.956 49.715 0 68.671 6.954 6.954 15.498 11.359 24.467 13.216z" fill="url(#SVGID_9_)"/><path d="m328.783 349.151c0 4.603.494 9.088 1.432 13.404 15.469 3.2 32.192-1.205 44.203-13.216 14.54-14.54 24.23-42.307 19.4-63.011-.721-.03-1.442-.039-2.173-.039-34.71-.001-62.862 28.141-62.862 62.862z" fill="url(#SVGID_10_)"/><path d="m278.643 283.451c-54.756 0-99.145 44.389-99.145 99.145v119.404l99.145-17.571 99.145 17.571v-119.404c0-54.756-44.389-99.145-99.145-99.145z" fill="url(#SVGID_11_)"/><path d="m216.184 409.389c-2.8-.394-5.66-.598-8.568-.598h-28.118v56.361l9.725-16.332 28.069-6.022c3.199-.686 6.131-2.282 8.444-4.595 9.876-9.877 4.279-26.866-9.552-28.814z" fill="#5c586f"/><path d="m349.67 502-19.059-24.93c0-28.701-23.266-51.967-51.967-51.967-28.7 0-51.967 23.266-51.967 51.967l-19.06 24.93z" fill="url(#SVGID_12_)"/><path d="m207.617 438.218h-55.834c-17.613 0-31.891 14.278-31.891 31.891 0 17.613 14.278 31.891 31.891 31.891h55.834c17.613 0 31.891-14.278 31.891-31.891 0-17.613-14.278-31.891-31.891-31.891z" fill="url(#SVGID_13_)"/><path d="m349.67 438.218h55.834c17.613 0 31.891 14.278 31.891 31.891 0 17.613-14.278 31.891-31.891 31.891h-55.834c-17.613 0-31.891-14.278-31.891-31.891 0-17.613 14.278-31.891 31.891-31.891z" fill="url(#SVGID_14_)"/><g><g><ellipse cx="205.142" cy="388.924" fill="#ffaecf" rx="12.492" ry="10.039"/><ellipse cx="352.145" cy="388.924" fill="#ffaecf" rx="12.492" ry="10.039"/><circle cx="226.558" cy="364.154" fill="#fff" r="24.77"/><circle cx="330.729" cy="364.154" fill="#fff" r="24.77"/><g fill="#383842"><g><circle cx="226.558" cy="364.154" r="14.763"/><circle cx="330.729" cy="364.154" r="14.763"/></g><path d="m286.865 397.633c-2.884 0-5.699-.84-8.222-2.419-2.522 1.579-5.337 2.419-8.222 2.419-4.38 0-8.599-1.938-11.879-5.458-1.883-2.021-1.771-5.184.249-7.067 2.021-1.883 5.184-1.771 7.067.249 2.775 2.979 6.353 2.979 9.128 0 .946-1.015 2.271-1.591 3.658-1.591s2.712.576 3.658 1.591c2.776 2.979 6.354 2.978 9.128 0 1.884-2.02 5.047-2.13 7.067-.249 2.02 1.883 2.131 5.046.249 7.067-3.282 3.52-7.5 5.458-11.881 5.458z"/></g></g><path d="m292.217 368.832c0 4.371-6.077 7.915-13.574 7.915s-13.574-3.544-13.574-7.915 6.077-4.891 13.574-4.891 13.574.52 13.574 4.891z" fill="#383842"/></g></g></svg>