<svg id="Capa_1" enable-background="new 0 0 502 502" height="512" viewBox="0 0 502 502" width="512" xmlns="http://www.w3.org/2000/svg" xmlns:xlink="http://www.w3.org/1999/xlink"><linearGradient id="lg1"><stop offset="0" stop-color="#fd869c"/><stop offset="1" stop-color="#fdb0bf"/></linearGradient><linearGradient id="SVGID_1_" gradientUnits="userSpaceOnUse" x1="288.907" x2="425.288" xlink:href="#lg1" y1="98.675" y2="98.675"/><linearGradient id="SVGID_2_" gradientUnits="userSpaceOnUse" x1="336.608" x2="431.224" y1="111.071" y2="111.071"><stop offset="0" stop-color="#f7496e"/><stop offset="1" stop-color="#fd869c"/></linearGradient><linearGradient id="SVGID_3_" gradientUnits="userSpaceOnUse" x1="76.712" x2="213.093" y1="98.675" y2="98.675"><stop offset="0" stop-color="#fdb0bf"/><stop offset="1" stop-color="#fd869c"/></linearGradient><linearGradient id="SVGID_4_" gradientUnits="userSpaceOnUse" x1="70.776" x2="165.393" y1="111.071" y2="111.071"><stop offset="0" stop-color="#fd869c"/><stop offset="1" stop-color="#f7496e"/></linearGradient><linearGradient id="SVGID_5_" gradientUnits="userSpaceOnUse" x1="251" x2="251" y1="502" y2="139.353"><stop offset="0" stop-color="#fbe7b4"/><stop offset="1" stop-color="#fff5e3"/></linearGradient><linearGradient id="lg2"><stop offset="0" stop-color="#7ecc5c"/><stop offset="1" stop-color="#b8e2a5"/></linearGradient><linearGradient id="SVGID_6_" gradientUnits="userSpaceOnUse" x1="198.684" x2="233.835" xlink:href="#lg2" y1="340.311" y2="305.16"/><linearGradient id="SVGID_7_" gradientUnits="userSpaceOnUse" x1="259.684" x2="314.746" y1="321.261" y2="321.261"><stop offset="0" stop-color="#b8e2a5"/><stop offset="1" stop-color="#7ecc5c"/></linearGradient><linearGradient id="SVGID_8_" gradientUnits="userSpaceOnUse" x1="251" x2="251" xlink:href="#lg2" y1="332.447" y2="270.998"/><linearGradient id="SVGID_9_" gradientUnits="userSpaceOnUse" x1="251" x2="251" y1="442.389" y2="323.748"><stop offset="0" stop-color="#fdb58a"/><stop offset="1" stop-color="#fd8943"/></linearGradient><linearGradient id="SVGID_10_" gradientUnits="userSpaceOnUse" x1="121.311" x2="121.311" xlink:href="#lg1" y1="491.883" y2="383.114"/><linearGradient id="SVGID_11_" gradientUnits="userSpaceOnUse" x1="380.689" x2="380.689" xlink:href="#lg1" y1="491.883" y2="383.114"/><g><path d="m342.794 191.272c-8.99 3.114-18.291 5.166-27.712 6.077-27.321-34.89-34.75-85.007-15.147-130.739 10.132-23.617 26.08-42.829 45.211-56.464 28.442-20.273 66.426-8.53 80.141 20.724z" fill="url(#SVGID_1_)"/><path d="m420.203 118.159c-15.418 35.961-44.32 61.69-77.408 73.113-4.015-12.604-6.187-26.14-6.187-40.236 0-58.917 37.973-108.153 88.681-120.167 2.233 4.765 3.824 9.981 4.625 15.608 3.323 23.267.41 48.055-9.711 71.682z" fill="url(#SVGID_2_)"/><path d="m159.206 191.272c8.99 3.114 18.291 5.166 27.712 6.077 27.321-34.89 34.75-85.007 15.147-130.739-10.132-23.617-26.08-42.829-45.211-56.464-28.444-20.273-66.427-8.529-80.142 20.724z" fill="url(#SVGID_3_)"/><path d="m81.797 118.159c15.418 35.961 44.32 61.69 77.408 73.113 4.015-12.604 6.187-26.14 6.187-40.236 0-58.917-37.973-108.153-88.681-120.167-2.233 4.765-3.824 9.981-4.625 15.608-3.323 23.267-.41 48.055 9.711 71.682z" fill="url(#SVGID_4_)"/><path d="m193.411 138.321c-4.216-9.568-15.586-13.659-24.935-8.978-2.794 1.399-4.456 2.314-4.498 2.335.915 6.309 1.415 12.769 1.415 19.359 0 14.096-2.172 27.631-6.187 40.236 7.853 2.72 15.943 4.629 24.142 5.676l-4.947-25.679s6.419-7.214 11.938-13.416c4.759-5.35 5.958-12.982 3.072-19.533z" fill="#fd748d"/><path d="m163.977 131.678c-17.05 9.113-32.952 20.698-47.497 34.596 12.692 11.184 27.251 19.656 42.725 24.998 4.015-12.604 6.187-26.14 6.187-40.236.001-6.589-.5-13.049-1.415-19.358z" fill="#f7496e"/><path d="m431.823 341.2c0 99.866-54.26 160.8-180.823 160.8s-180.823-60.934-180.823-160.8 80.957-201.847 180.823-201.847 180.823 101.981 180.823 201.847z" fill="url(#SVGID_5_)"/><path d="m229.684 301.01c-9.706-9.706-25.444-9.706-35.15 0s-9.706 25.444 0 35.15c9.707 9.706 33.745 18.007 43.451 8.301 9.707-9.707 1.406-33.745-8.301-43.451z" fill="url(#SVGID_6_)"/><path d="m272.316 301.01c9.706-9.706 25.444-9.706 35.15 0s9.706 25.444 0 35.15c-9.707 9.706-33.745 18.007-43.451 8.301-9.707-9.707-1.406-33.745 8.301-43.451z" fill="url(#SVGID_7_)"/><path d="m226.145 295.853c0-13.727 11.128-24.855 24.855-24.855s24.855 11.128 24.855 24.855-11.128 36.594-24.855 36.594-24.855-22.867-24.855-36.594z" fill="url(#SVGID_8_)"/><g><path d="m294.763 398.727c-8.445 22.296-24.876 43.662-43.763 43.662s-35.318-21.366-43.763-43.662l6.539-31.686-1.754-26.921c9.126-10.337 23.189-16.373 38.977-16.373s29.852 6.036 38.977 16.373l-2.911 26.921z" fill="url(#SVGID_9_)"/></g><path d="m230.74 374.049c-5.795 0-11.146 3.102-14.026 8.131l-9.477 16.547c3.611 9.533 8.685 18.889 14.782 26.484 10.076-7.215 18.212-16.973 23.453-28.331 4.92-10.664-2.987-22.831-14.732-22.831z" fill="#fd8943"/><g><path d="m180.464 408.551h-37.927c-3.986 0-7.217-3.231-7.217-7.217s3.231-7.217 7.217-7.217h37.927c14.93 0 27.077-12.147 27.077-27.077s-12.147-27.077-27.077-27.077h-37.927c-3.986 0-7.217-3.231-7.217-7.217s3.231-7.217 7.217-7.217h37.927c22.889 0 41.51 18.622 41.51 41.51 0 22.89-18.621 41.512-41.51 41.512z" fill="#fddcb4"/></g><g><path d="m321.536 408.551h37.927c3.986 0 7.217-3.231 7.217-7.217s-3.231-7.217-7.217-7.217h-37.927c-14.93 0-27.077-12.147-27.077-27.077s12.147-27.077 27.077-27.077h37.927c3.986 0 7.217-3.231 7.217-7.217s-3.231-7.217-7.217-7.217h-37.927c-22.889 0-41.51 18.622-41.51 41.51 0 22.89 18.621 41.512 41.51 41.512z" fill="#fddcb4"/></g><g><g><ellipse cx="163.278" cy="249.513" fill="#ffaecf" rx="14.909" ry="11.981"/><ellipse cx="338.722" cy="249.513" fill="#ffaecf" rx="14.909" ry="11.981"/><circle cx="188.837" cy="219.951" fill="#fff" r="29.563"/><circle cx="313.163" cy="219.951" fill="#fff" r="29.563"/><g fill="#383842"><g><circle cx="188.837" cy="219.951" r="17.619"/><circle cx="313.163" cy="219.951" r="17.619"/></g><path d="m260.813 258.94c-3.454 0-6.824-1.07-9.813-3.074-2.988 2.003-6.358 3.074-9.813 3.074-4.957 0-9.74-2.204-13.47-6.206-1.883-2.02-1.771-5.184.249-7.067s5.185-1.771 7.067.249c1.844 1.978 3.972 3.024 6.155 3.024s4.311-1.046 6.155-3.024c.946-1.015 2.271-1.591 3.658-1.591s2.712.576 3.657 1.591c1.844 1.978 3.973 3.024 6.155 3.024s4.312-1.046 6.155-3.024c1.883-2.021 5.047-2.131 7.066-.248 2.021 1.883 2.131 5.046.248 7.066-3.729 4.002-8.513 6.206-13.469 6.206z"/></g></g><path d="m267.2 225.534c0 5.217-7.253 9.446-16.2 9.446s-16.2-4.229-16.2-9.446 7.253-5.837 16.2-5.837 16.2.62 16.2 5.837z" fill="#ffaecf"/></g><path d="m178.874 423.726c0 31.791-25.772 68.157-57.563 68.157s-57.563-36.366-57.563-68.157 25.772-40.612 57.563-40.612 57.563 8.821 57.563 40.612z" fill="url(#SVGID_10_)"/><path d="m323.126 423.726c0 31.791 25.772 68.157 57.563 68.157s57.563-36.366 57.563-68.157-25.772-40.612-57.563-40.612-57.563 8.821-57.563 40.612z" fill="url(#SVGID_11_)"/></g></svg>