<svg id="Capa_1" enable-background="new 0 0 502 502" height="512" viewBox="0 0 502 502" width="512" xmlns="http://www.w3.org/2000/svg" xmlns:xlink="http://www.w3.org/1999/xlink"><linearGradient id="lg1"><stop offset="0" stop-color="#4f4c5f"/><stop offset="1" stop-color="#77718a"/></linearGradient><linearGradient id="SVGID_1_" gradientUnits="userSpaceOnUse" x1="391.391" x2="502" xlink:href="#lg1" y1="69.384" y2="69.384"/><linearGradient id="lg2"><stop offset="0" stop-color="#77718a"/><stop offset="1" stop-color="#4f4c5f"/></linearGradient><linearGradient id="SVGID_2_" gradientUnits="userSpaceOnUse" x1="148.384" x2="258.994" xlink:href="#lg2" y1="69.384" y2="69.384"/><linearGradient id="SVGID_3_" gradientUnits="userSpaceOnUse" x1="324.317" x2="324.317" y1="308.615" y2="44.839"><stop offset="0" stop-color="#fbe7b4"/><stop offset="1" stop-color="#fff5e3"/></linearGradient><linearGradient id="SVGID_4_" gradientUnits="userSpaceOnUse" x1="176.009" x2="291.386" xlink:href="#lg1" y1="280.967" y2="280.967"/><linearGradient id="SVGID_5_" gradientUnits="userSpaceOnUse" x1="223.389" x2="301.685" y1="291.145" y2="291.145"><stop offset="0" stop-color="#fd869c"/><stop offset="1" stop-color="#fdb0bf"/></linearGradient><linearGradient id="SVGID_6_" gradientUnits="userSpaceOnUse" x1="10.299" x2="125.676" xlink:href="#lg2" y1="280.967" y2="280.967"/><linearGradient id="SVGID_7_" gradientUnits="userSpaceOnUse" x1="0" x2="78.296" y1="291.145" y2="291.145"><stop offset="0" stop-color="#fdb0bf"/><stop offset="1" stop-color="#fd869c"/></linearGradient><linearGradient id="SVGID_8_" gradientUnits="userSpaceOnUse" x1="150.843" x2="150.843" y1="391.78" y2="237.821"><stop offset="0" stop-color="#fdb58a"/><stop offset="1" stop-color="#fd8943"/></linearGradient><linearGradient id="SVGID_9_" gradientUnits="userSpaceOnUse" x1="150.843" x2="150.843" y1="481.346" y2="282.907"><stop offset="0" stop-color="#fff5e3"/><stop offset="1" stop-color="#fbe7b4"/></linearGradient><linearGradient id="SVGID_10_" gradientUnits="userSpaceOnUse" x1="349.818" x2="467.583" y1="134.915" y2="134.915"><stop offset="0" stop-color="#efc4ab"/><stop offset="1" stop-color="#dc8757"/></linearGradient><g><path d="m411.478 28.802c17.144-11.449 39.664-10.63 56.56 1.182 12.045 8.421 25.842 22.335 32.488 44.203 4.616 15.192-1.886 31.564-15.671 39.443-11.678 6.675-26.193 5.842-37.031-2.125l-56.434-41.486c.001-21.475 9.221-33.96 20.088-41.217z" fill="url(#SVGID_1_)"/><path d="m238.906 28.802c-17.144-11.449-39.664-10.63-56.56 1.182-12.045 8.421-25.842 22.335-32.488 44.203-4.616 15.192 1.886 31.564 15.671 39.443 11.678 6.675 26.193 5.842 37.031-2.125l56.434-41.486c0-21.475-9.221-33.96-20.088-41.217z" fill="url(#SVGID_2_)"/><path d="m228.406 65.583c-6.603-6.603-17.28-6.562-23.907.017-14.452 14.345-26.367 31.242-35.012 49.947 10.878 4.472 23.429 3.048 33.074-4.042l28.401-25.318.008-.013c3.959-6.641 2.903-15.124-2.564-20.591z" fill="#5c586f"/><path d="m465.83 215.096c-8.318 60.81-47.36 93.519-140.637 93.519-106.649 0-142.389-42.751-142.389-121.387s63.744-142.389 142.39-142.389c14.941 0 29.349 2.305 42.877 6.575z" fill="url(#SVGID_3_)"/><path d="m227.647 343.445c-12.377-1.872-24.279-7.576-33.814-17.111-23.765-23.755-23.765-62.274 0-86.039 23.755-23.755 69.462-30.933 93.217-7.178 1.581 1.581 3.026 3.259 4.336 5.025z" fill="url(#SVGID_4_)"/><path d="m279.872 326.334c-14.23 14.23-33.756 19.943-52.225 17.111-2.765-8.119-4.258-16.82-4.258-25.87 0-40.187 29.478-73.477 67.997-79.433 18.401 24.725 10.67 66.018-11.514 88.192z" fill="url(#SVGID_5_)"/><path d="m74.038 343.445c12.377-1.872 24.279-7.576 33.814-17.111 23.765-23.755 23.765-62.274 0-86.039-23.755-23.755-69.462-30.933-93.217-7.178-1.581 1.581-3.026 3.259-4.336 5.025z" fill="url(#SVGID_6_)"/><path d="m21.813 326.334c14.23 14.23 33.756 19.943 52.225 17.111 2.765-8.119 4.258-16.82 4.258-25.87 0-40.187-29.478-73.477-67.997-79.433-18.401 24.725-10.67 66.018 11.514 88.192z" fill="url(#SVGID_7_)"/><path d="m45.686 271.713c-7.881-7.881-20.864-6.925-27.614 1.944-5.321 6.993-10.103 14.416-14.285 22.208 3.667 11.559 9.864 22.31 18.027 30.469 4.937 4.937 10.519 8.823 16.466 11.709l12.228-48.927c1.559-6.245-.271-12.851-4.822-17.403z" fill="#fd748d"/><path d="m15.304 391.77c-.737-5.548-1.125-11.31-1.125-17.295 0-75.476 61.188-136.654 136.663-136.654s136.663 61.178 136.663 136.654c0 5.985-.388 11.756-1.125 17.305z" fill="url(#SVGID_8_)"/><path d="m286.381 391.78c-8.662 64.486-66.047 89.566-135.538 89.566s-126.876-25.081-135.539-89.576c35.269-33.756 70.635-21.854 107.825-92.266 2.706-5.122 6.732-9.273 11.543-12.135 4.802-2.871 10.379-4.462 16.17-4.462 11.591 0 22.291 6.353 27.713 16.597 37.19 70.412 72.556 58.51 107.826 92.276z" fill="url(#SVGID_9_)"/><g><ellipse cx="63.143" cy="364.703" fill="#ffaecf" rx="14.904" ry="11.978"/><ellipse cx="238.537" cy="364.703" fill="#ffaecf" rx="14.904" ry="11.978"/><circle cx="88.695" cy="335.149" fill="#fff" r="29.554"/><circle cx="212.985" cy="335.149" fill="#fff" r="29.554"/><g fill="#383842"><g><circle cx="88.695" cy="335.149" r="17.615"/><circle cx="212.985" cy="335.149" r="17.615"/></g><path d="m160.649 374.129c-3.453 0-6.822-1.07-9.81-3.072-2.987 2.002-6.356 3.072-9.81 3.072-4.955 0-9.738-2.203-13.467-6.204-1.883-2.02-1.771-5.184.248-7.067 2.021-1.883 5.185-1.771 7.066.249 1.844 1.978 3.971 3.022 6.152 3.022s4.309-1.045 6.152-3.022c.945-1.015 2.271-1.591 3.657-1.591s2.712.576 3.657 1.591c1.844 1.978 3.971 3.022 6.152 3.022 2.183 0 4.31-1.045 6.153-3.022 1.882-2.02 5.046-2.131 7.066-.249 2.02 1.883 2.131 5.047.248 7.067-3.724 4.001-8.508 6.204-13.464 6.204z"/></g></g><path d="m467.583 187.228c0 9.857-.562 19.153-1.753 27.868-7.795 2.169-16.006 3.321-24.488 3.321-50.546 0-91.524-40.969-91.524-91.515 0-39.245 3.999-62.32 18.253-75.489 57.681 18.185 99.512 72.12 99.512 135.815z" fill="url(#SVGID_10_)"/><g><ellipse cx="229.019" cy="173.196" fill="#ffaecf" rx="16.345" ry="13.135"/><ellipse cx="421.366" cy="173.196" fill="#ffaecf" rx="16.345" ry="13.135"/><circle cx="257.04" cy="140.785" fill="#fff" r="32.411"/><circle cx="393.344" cy="140.785" fill="#fff" r="32.411"/><g fill="#383842"><g><circle cx="257.04" cy="140.785" r="19.317"/><circle cx="393.344" cy="140.785" r="19.317"/></g><path d="m335.95 183.049c-3.793 0-7.495-1.21-10.758-3.471-3.264 2.261-6.965 3.471-10.758 3.471-.001 0-.001 0-.001 0-5.299 0-10.418-2.362-14.415-6.651-1.882-2.02-1.771-5.184.249-7.066 2.021-1.883 5.184-1.772 7.067.249 2.114 2.269 4.569 3.468 7.099 3.468s4.986-1.199 7.102-3.469c.945-1.015 2.271-1.591 3.657-1.591 1.388 0 2.712.576 3.658 1.591 2.114 2.269 4.569 3.468 7.1 3.468s4.985-1.199 7.1-3.468c1.884-2.02 5.047-2.132 7.067-.249s2.131 5.046.249 7.066c-3.997 4.291-9.117 6.652-14.416 6.652z"/></g></g><path d="m342.953 146.906c0 5.72-7.952 10.356-17.761 10.356s-17.761-4.637-17.761-10.356 7.952-6.399 17.761-6.399 17.761.68 17.761 6.399z" fill="#383842"/></g></svg>