<svg id="Capa_1" enable-background="new 0 0 502 502" height="512" viewBox="0 0 502 502" width="512" xmlns="http://www.w3.org/2000/svg" xmlns:xlink="http://www.w3.org/1999/xlink"><linearGradient id="SVGID_1_" gradientUnits="userSpaceOnUse" x1="251" x2="251" y1="176.412" y2="1.04"><stop offset="0" stop-color="#77718a"/><stop offset="1" stop-color="#4f4c5f"/></linearGradient><linearGradient id="SVGID_2_" gradientUnits="userSpaceOnUse" x1="251" x2="251" y1="293.289" y2="85.618"><stop offset="0" stop-color="#fbe7b4"/><stop offset="1" stop-color="#fff5e3"/></linearGradient><linearGradient id="SVGID_3_" gradientUnits="userSpaceOnUse" x1="251" x2="251" y1="500.96" y2="293.289"><stop offset="0" stop-color="#f7496e"/><stop offset="1" stop-color="#fd869c"/></linearGradient><linearGradient id="SVGID_4_" gradientUnits="userSpaceOnUse" x1="251" x2="251" y1="327.443" y2="259.135"><stop offset="0" stop-color="#fdb0bf"/><stop offset="1" stop-color="#fd869c"/></linearGradient><g><path d="m300.162 1.04h-98.323c-25.81 0-46.732 20.923-46.732 46.732v81.907c0 25.809 20.923 46.732 46.732 46.732h98.323c25.81 0 46.732-20.923 46.732-46.732v-81.907c0-25.809-20.923-46.732-46.732-46.732zm1.335 128.639c0 .738-.598 1.336-1.336 1.336h-98.322c-.738 0-1.336-.598-1.336-1.336v-67.386c0-8.758 7.099-15.857 15.857-15.857h69.282c8.757 0 15.856 7.099 15.856 15.856v67.387z" fill="url(#SVGID_1_)"/><path d="m34.154 259.135 37.768-128.678c7.802-26.581 32.189-44.839 59.891-44.839h238.372c27.702 0 52.09 18.258 59.891 44.839l37.768 128.678-216.844 34.154z" fill="url(#SVGID_2_)"/><path d="m34.154 327.443 37.768 128.678c7.802 26.581 32.189 44.839 59.891 44.839h238.372c27.702 0 52.09-18.258 59.891-44.839l37.768-128.678-216.844-34.154z" fill="url(#SVGID_3_)"/><path d="m143.688 322.959-59.293-23.285-50.241 27.769 8.883 30.264h94.073c9.939 0 17.996-8.057 17.996-17.996 0-7.401-4.53-14.047-11.418-16.752z" fill="#f7496e"/><path d="m467.846 259.135h-433.692c-18.863 0-34.154 15.291-34.154 34.154 0 18.863 15.291 34.154 34.154 34.154h433.692c18.863 0 34.154-15.291 34.154-34.154 0-18.863-15.291-34.154-34.154-34.154z" fill="url(#SVGID_4_)"/><g fill="#fddcb4"><path d="m127.644 125.97c-12.117 0-21.939 9.823-21.939 21.939v59.022c0 12.117 9.823 21.939 21.939 21.939 12.117 0 21.939-9.823 21.939-21.939v-59.021c0-12.117-9.822-21.94-21.939-21.94z"/><path d="m209.881 125.97c-12.117 0-21.939 9.823-21.939 21.939v59.022c0 12.117 9.823 21.939 21.939 21.939 12.117 0 21.939-9.823 21.939-21.939v-59.021c.001-12.117-9.822-21.94-21.939-21.94z"/><path d="m292.119 125.97c-12.117 0-21.939 9.823-21.939 21.939v59.022c0 12.117 9.823 21.939 21.939 21.939 12.117 0 21.939-9.823 21.939-21.939v-59.021c0-12.117-9.822-21.94-21.939-21.94z"/><path d="m374.356 125.97c12.117 0 21.939 9.823 21.939 21.939v59.022c0 12.117-9.823 21.939-21.939 21.939-12.117 0-21.939-9.823-21.939-21.939v-59.021c0-12.117 9.822-21.94 21.939-21.94z"/></g><g><ellipse cx="145.563" cy="433.751" fill="#ffaecf" rx="17.919" ry="14.401"/><ellipse cx="356.437" cy="433.751" fill="#ffaecf" rx="17.919" ry="14.401"/><circle cx="176.284" cy="398.218" fill="#fff" r="35.533"/><circle cx="325.716" cy="398.218" fill="#fff" r="35.533"/><g fill="#383842"><g><circle cx="176.284" cy="398.218" r="21.178"/><circle cx="325.716" cy="398.218" r="21.178"/></g><path d="m251 433.876c-6.055 0-12.108-2.29-17.048-6.87-2.025-1.877-2.145-5.041-.267-7.066 1.876-2.025 5.043-2.144 7.065-.267 6.035 5.596 14.463 5.596 20.498 0 2.023-1.876 5.188-1.758 7.065.267 1.878 2.025 1.759 5.188-.267 7.066-4.938 4.58-10.991 6.87-17.046 6.87z"/></g></g></g></svg>