<svg id="Capa_1" enable-background="new 0 0 502 502" height="512" viewBox="0 0 502 502" width="512" xmlns="http://www.w3.org/2000/svg" xmlns:xlink="http://www.w3.org/1999/xlink"><linearGradient id="lg1"><stop offset="0" stop-color="#77718a"/><stop offset="1" stop-color="#4f4c5f"/></linearGradient><linearGradient id="SVGID_1_" gradientUnits="userSpaceOnUse" x1="316.632" x2="437.755" xlink:href="#lg1" y1="167.621" y2="167.621"/><linearGradient id="SVGID_2_" gradientUnits="userSpaceOnUse" x1="279.967" x2="392.235" xlink:href="#lg1" y1="428.29" y2="428.29"/><linearGradient id="SVGID_3_" gradientUnits="userSpaceOnUse" x1="325.476" x2="475.259" xlink:href="#lg1" y1="366.715" y2="366.715"/><linearGradient id="SVGID_4_" gradientUnits="userSpaceOnUse" x1="338.703" x2="488.486" xlink:href="#lg1" y1="245.773" y2="245.773"/><linearGradient id="lg2"><stop offset="0" stop-color="#4f4c5f"/><stop offset="1" stop-color="#77718a"/></linearGradient><linearGradient id="SVGID_5_" gradientUnits="userSpaceOnUse" x1="13.514" x2="163.297" xlink:href="#lg2" y1="245.773" y2="245.773"/><linearGradient id="SVGID_6_" gradientUnits="userSpaceOnUse" x1="109.765" x2="222.033" xlink:href="#lg2" y1="428.29" y2="428.29"/><linearGradient id="SVGID_7_" gradientUnits="userSpaceOnUse" x1="64.245" x2="185.368" xlink:href="#lg2" y1="167.621" y2="167.621"/><linearGradient id="SVGID_8_" gradientUnits="userSpaceOnUse" x1="26.742" x2="176.524" xlink:href="#lg2" y1="366.715" y2="366.715"/><linearGradient id="lg3"><stop offset="0" stop-color="#dc8757"/><stop offset="1" stop-color="#efc4ab"/></linearGradient><linearGradient id="SVGID_9_" gradientUnits="userSpaceOnUse" x1="251" x2="251" xlink:href="#lg3" y1="447.901" y2="132.028"/><linearGradient id="SVGID_10_" gradientUnits="userSpaceOnUse" x1="166.425" x2="217.235" xlink:href="#lg1" y1="34.915" y2="34.915"/><linearGradient id="SVGID_11_" gradientUnits="userSpaceOnUse" x1="284.765" x2="335.575" xlink:href="#lg2" y1="34.915" y2="34.915"/><linearGradient id="SVGID_12_" gradientUnits="userSpaceOnUse" x1="251" x2="251" xlink:href="#lg3" y1="212.358" y2="35.71"/><g><path d="m316.635 204.373c.215-17.927 14.921-32.285 32.848-32.071 13.451.161 25.75-5.46 34.823-14.739 10.239-10.48 15.831-25.002 15.341-40.464l-.036-.999c-.246-7.808 4.785-15.095 12.633-17.379 9.299-2.705 19.031 2.64 21.736 11.939 7.383 25.378 3.686 52.267-8.903 74.797-6.505 11.644-15.452 22.211-26.36 30.766-18.053 14.209-40.42 21.112-50.012 20.997-17.926-.214-32.285-14.92-32.07-32.847z" fill="url(#SVGID_1_)"/><path d="m280.206 383.14c2.157-17.798 18.334-30.477 36.131-28.32 9.523 1.154 30.781 10.953 46.798 27.423 9.682 9.921 17.154 21.579 22.062 33.98 9.5 23.997 9.611 51.139-1.063 75.318-3.911 8.86-14.264 12.872-23.124 8.961-7.477-3.301-11.501-11.189-10.225-18.896l.168-.986c2.529-15.261-1.094-30.395-9.858-42.137-7.767-10.396-19.214-17.594-32.569-19.213-17.797-2.156-30.477-18.332-28.32-36.13z" fill="url(#SVGID_2_)"/><path d="m328.802 363.7c7.897 16.095 27.346 22.741 43.441 14.845 12.077-5.925 25.598-6.134 37.777-1.654 13.748 5.064 25.038 15.774 31.24 29.946l.397.918c3.133 7.157 10.807 11.575 18.875 10.264 9.559-1.553 16.05-10.561 14.497-20.121-4.238-26.088-19.13-48.78-40.179-63.715-10.877-7.719-23.497-13.417-37.022-16.454-22.407-5.073-45.57-1.695-54.182 2.53-16.095 7.897-22.741 27.346-14.844 43.441z" fill="url(#SVGID_3_)"/><path d="m342.029 248.788c7.897-16.095 27.346-22.741 43.441-14.845 12.077 5.925 25.598 6.134 37.777 1.654 13.748-5.064 25.038-15.774 31.24-29.946l.397-.918c3.133-7.157 10.807-11.575 18.875-10.264 9.559 1.553 16.05 10.561 14.497 20.121-4.238 26.088-19.13 48.78-40.179 63.715-10.877 7.719-23.497 13.417-37.022 16.454-22.407 5.073-45.57 1.695-54.182-2.53-16.095-7.897-22.741-27.346-14.844-43.441z" fill="url(#SVGID_4_)"/><path d="m159.971 248.788c-7.897-16.095-27.346-22.741-43.441-14.845-12.077 5.925-25.598 6.134-37.777 1.654-13.748-5.064-25.038-15.774-31.24-29.946l-.397-.918c-3.133-7.157-10.807-11.575-18.875-10.264-9.559 1.553-16.05 10.561-14.497 20.121 4.238 26.088 19.13 48.78 40.179 63.715 10.877 7.719 23.497 13.417 37.022 16.454 22.407 5.073 45.57 1.695 54.182-2.53 16.095-7.897 22.741-27.346 14.844-43.441z" fill="url(#SVGID_5_)"/><path d="m221.794 383.14c-2.157-17.798-18.334-30.477-36.131-28.32-9.523 1.154-30.781 10.953-46.798 27.423-9.682 9.921-17.154 21.579-22.062 33.98-9.5 23.997-9.61 51.139 1.063 75.318 3.911 8.86 14.264 12.872 23.124 8.961 7.477-3.301 11.501-11.189 10.225-18.896l-.168-.986c-2.529-15.261 1.094-30.395 9.858-42.137 7.767-10.396 19.214-17.594 32.569-19.213 17.797-2.156 30.477-18.332 28.32-36.13z" fill="url(#SVGID_6_)"/><path d="m185.365 204.373c-.215-17.927-14.921-32.285-32.848-32.071-13.451.161-25.75-5.46-34.823-14.739-10.239-10.48-15.831-25.002-15.341-40.464l.036-.999c.246-7.808-4.785-15.095-12.633-17.379-9.299-2.705-19.031 2.64-21.736 11.939-7.383 25.378-3.686 52.267 8.903 74.797 6.505 11.644 15.452 22.211 26.36 30.766 18.053 14.209 40.42 21.112 50.012 20.997 17.926-.214 32.285-14.92 32.07-32.847z" fill="url(#SVGID_7_)"/><path d="m173.198 363.7c-7.897 16.095-27.346 22.741-43.441 14.845-12.077-5.925-25.598-6.134-37.777-1.654-13.748 5.064-25.038 15.774-31.24 29.946l-.397.918c-3.133 7.157-10.807 11.575-18.875 10.264-9.559-1.553-16.05-10.561-14.497-20.121 4.238-26.088 19.13-48.78 40.179-63.715 10.877-7.719 23.497-13.417 37.022-16.454 22.407-5.073 45.57-1.695 54.182 2.53 16.095 7.897 22.741 27.346 14.844 43.441z" fill="url(#SVGID_8_)"/><path d="m104.195 352.035c-5.268-5.464-13.392-7.049-20.328-3.968-9.254 4.111-13.317 15.027-9.013 24.193 1.7 3.622 3.524 7.183 5.466 10.681 3.619-2.485 7.525-4.528 11.66-6.05 12.179-4.48 25.7-4.271 37.777 1.654z" fill="#4a4a5a"/><path d="m442.229 268.793c-1.579-11.607-12.933-19.235-24.265-16.268-5.655 1.48-10.346 5.42-12.783 10.734l-15.599 34.024c6.892-.129 14.221-.882 21.473-2.524 11.679-2.623 22.68-7.233 32.469-13.411-.298-4.223-.731-8.409-1.295-12.555z" fill="#4a4a5a"/><path d="m414.024 295.052c0 90.036-72.988 152.849-163.024 152.849s-163.024-62.814-163.024-152.849 72.988-163.024 163.024-163.024 163.024 72.988 163.024 163.024z" fill="url(#SVGID_9_)"/><path d="m201.638.752c-20.489 7.594-35.213 27.344-35.213 50.619 0 6.484 1.146 12.699 3.242 18.458l44.087-28.202c-.346-2.468-.526-4.989-.526-7.553 0-6.515 1.155-12.761 3.272-18.543 3.399-9.286-5.59-18.215-14.862-14.779z" fill="url(#SVGID_10_)"/><path d="m300.362.752c20.489 7.594 35.213 27.344 35.213 50.619 0 6.484-1.146 12.699-3.242 18.458l-44.087-28.202c.346-2.468.526-4.989.526-7.553 0-6.515-1.155-12.761-3.272-18.543-3.399-9.286 5.59-18.215 14.862-14.779z" fill="url(#SVGID_11_)"/><path d="m357.677 136.283c0 58.916-47.761 76.075-106.677 76.075s-106.677-17.159-106.677-76.075 47.761-100.573 106.677-100.573 106.677 41.657 106.677 100.573z" fill="url(#SVGID_12_)"/><g><path d="m251 383.386c-4.214 0-7.631-3.416-7.631-7.631v-122.42c0-4.215 3.417-7.631 7.631-7.631 4.215 0 7.631 3.416 7.631 7.631v122.42c0 4.215-3.416 7.631-7.631 7.631z" fill="#f3d3c2"/></g><g><path d="m175.328 383.386c-2.248 0-4.474-.988-5.981-2.885-11.07-13.938-17.678-38.593-17.678-65.955s6.609-52.018 17.678-65.956c2.622-3.3 7.422-3.851 10.722-1.23s3.851 7.421 1.23 10.721c-8.862 11.159-14.367 32.795-14.367 56.465 0 23.669 5.505 45.304 14.367 56.464 2.621 3.3 2.071 8.1-1.23 10.721-1.404 1.114-3.078 1.655-4.741 1.655z" fill="#f3d3c2"/></g><g><path d="m326.673 383.386c-1.663 0-3.338-.541-4.741-1.655-3.301-2.621-3.851-7.421-1.23-10.721 8.862-11.159 14.367-32.795 14.367-56.464 0-23.67-5.505-45.305-14.367-56.465-2.621-3.3-2.071-8.1 1.23-10.721 3.3-2.623 8.1-2.072 10.721 1.23 11.069 13.938 17.678 38.594 17.678 65.956 0 27.361-6.609 52.017-17.678 65.955-1.506 1.896-3.733 2.885-5.98 2.885z" fill="#f3d3c2"/></g><g><ellipse cx="178.711" cy="117.465" fill="#f7496e" rx="12.286" ry="9.873"/><ellipse cx="323.289" cy="117.465" fill="#f7496e" rx="12.286" ry="9.873"/><circle cx="199.773" cy="93.103" fill="#fff" r="24.362"/><circle cx="302.227" cy="93.103" fill="#fff" r="24.362"/><g fill="#383842"><circle cx="199.773" cy="93.103" r="14.52"/><circle cx="302.227" cy="93.103" r="14.52"/></g></g></g></svg>