<svg id="Capa_1" enable-background="new 0 0 502 502" height="512" viewBox="0 0 502 502" width="512" xmlns="http://www.w3.org/2000/svg" xmlns:xlink="http://www.w3.org/1999/xlink"><linearGradient id="SVGID_1_" gradientUnits="userSpaceOnUse" x1="251" x2="251" y1="217.406" y2="0"><stop offset="0" stop-color="#77718a"/><stop offset="1" stop-color="#4f4c5f"/></linearGradient><linearGradient id="SVGID_2_" gradientUnits="userSpaceOnUse" x1="25.171" x2="200.809" y1="230.716" y2="230.716"><stop offset=".0223" stop-color="#bfbdc3"/><stop offset="1" stop-color="#8b869b"/></linearGradient><linearGradient id="lg1"><stop offset="0" stop-color="#fdb0bf"/><stop offset="1" stop-color="#fd869c"/></linearGradient><linearGradient id="SVGID_3_" gradientUnits="userSpaceOnUse" x1="22.672" x2="167.704" xlink:href="#lg1" y1="264.718" y2="264.718"/><linearGradient id="lg2"><stop offset="0" stop-color="#8b869b"/><stop offset=".9777" stop-color="#bfbdc3"/></linearGradient><linearGradient id="SVGID_4_" gradientUnits="userSpaceOnUse" x1="301.191" x2="476.829" xlink:href="#lg2" y1="230.716" y2="230.716"/><linearGradient id="lg3"><stop offset="0" stop-color="#fd869c"/><stop offset="1" stop-color="#fdb0bf"/></linearGradient><linearGradient id="SVGID_5_" gradientUnits="userSpaceOnUse" x1="334.296" x2="479.328" xlink:href="#lg3" y1="264.718" y2="264.718"/><linearGradient id="SVGID_6_" gradientUnits="userSpaceOnUse" x1="186.603" x2="350.345" xlink:href="#lg2" y1="481.702" y2="198.094"/><linearGradient id="SVGID_7_" gradientUnits="userSpaceOnUse" x1="251" x2="251" y1="491.316" y2="397.117"><stop offset="0" stop-color="#fbe7b4"/><stop offset="1" stop-color="#fff5e3"/></linearGradient><linearGradient id="SVGID_8_" gradientUnits="userSpaceOnUse" x1="298.335" x2="394.605" xlink:href="#lg3" y1="463.488" y2="463.488"/><linearGradient id="SVGID_9_" gradientUnits="userSpaceOnUse" x1="107.395" x2="203.665" xlink:href="#lg1" y1="463.488" y2="463.488"/><g><path d="m314.656 0c-27.917 0-52.059 16.121-63.656 39.555-11.597-23.434-35.739-39.555-63.656-39.555-39.21 0-70.996 31.786-70.996 70.996s31.786 70.996 70.996 70.996c13.981 0 27.015-4.044 38.001-11.025v86.439h51.311v-86.439c10.986 6.98 24.02 11.025 38.001 11.025 39.21 0 70.996-31.786 70.996-70.996s-31.787-70.996-70.997-70.996zm-127.312 102.05c-17.151 0-31.054-13.904-31.054-31.054s13.903-31.054 31.054-31.054 31.054 13.903 31.054 31.054-13.904 31.054-31.054 31.054zm127.312 0c-17.151 0-31.054-13.904-31.054-31.054s13.903-31.054 31.054-31.054 31.054 13.903 31.054 31.054-13.903 31.054-31.054 31.054z" fill="url(#SVGID_1_)"/><path d="m276.655 167.923c-8.451-1.008-17.013-1.527-25.655-1.527-8.683 0-17.242.535-25.655 1.55v49.46h51.311v-49.483z" fill="#5c586f"/><path d="m25.171 218.574c9.462-39.032 44.628-68.015 86.575-68.015 49.188 0 89.063 39.875 89.063 89.063 0 29.132-13.989 55.008-35.625 71.25z" fill="url(#SVGID_2_)"/><path d="m167.704 289.814c0 7.251-.865 14.31-2.52 21.059-14.887 11.181-33.383 17.813-53.438 17.813-49.198 0-89.074-39.875-89.074-89.063 0-7.251.865-14.299 2.499-21.048 14.886-11.192 33.404-17.823 53.47-17.823 49.187-.001 89.063 39.874 89.063 89.062z" fill="url(#SVGID_3_)"/><path d="m476.829 218.574c-9.462-39.032-44.628-68.015-86.575-68.015-49.188 0-89.063 39.875-89.063 89.063 0 29.132 13.99 55.008 35.625 71.25z" fill="url(#SVGID_4_)"/><path d="m334.296 289.814c0 7.251.865 14.31 2.52 21.059 14.887 11.181 33.383 17.813 53.438 17.813 49.198 0 89.074-39.875 89.074-89.063 0-7.251-.865-14.299-2.499-21.048-14.887-11.192-33.404-17.823-53.47-17.823-49.187-.001-89.063 39.874-89.063 89.062z" fill="url(#SVGID_5_)"/><path d="m117.938 244.765c-8.761-9.822-24.231-9.434-32.515.793-14.357 17.726-25.929 37.794-34.053 59.531 15.873 14.642 37.074 23.597 60.375 23.597 3.532 0 7.013-.217 10.437-.617l1.164-68.748c.091-5.359-1.84-10.556-5.408-14.556z" fill="#fd748d"/><path d="m151.653 487.173c-18.742-5.243-35.497-15.25-48.878-28.62-20.247-20.247-32.774-48.216-32.774-79.121 0-99.956 81.032-180.999 180.999-180.999 49.978 0 95.235 20.258 127.988 53.021 32.753 32.753 53.011 78 53.011 127.977 0 51.323-34.547 94.563-81.652 107.741l-99.347-34.608z" fill="url(#SVGID_6_)"/><g><g><ellipse cx="134.051" cy="355.063" fill="#ffaecf" rx="19.876" ry="15.973"/><ellipse cx="367.949" cy="355.063" fill="#ffaecf" rx="19.876" ry="15.973"/><circle cx="168.126" cy="315.651" fill="#fff" r="39.412"/><circle cx="333.874" cy="315.651" fill="#fff" r="39.412"/><g fill="#383842"><g><circle cx="168.126" cy="315.651" r="23.49"/><circle cx="333.874" cy="315.651" r="23.49"/></g><path d="m264.082 365.965c-4.628 0-9.145-1.563-13.082-4.47-3.937 2.907-8.454 4.47-13.082 4.47-6.141 0-12.086-2.75-16.74-7.743-1.883-2.021-1.771-5.185.249-7.066 2.02-1.884 5.184-1.771 7.067.248 2.781 2.984 6.04 4.562 9.424 4.562s6.643-1.577 9.424-4.562c.946-1.015 2.271-1.591 3.658-1.591s2.712.576 3.658 1.591c2.781 2.984 6.04 4.562 9.424 4.562s6.643-1.577 9.424-4.562c1.884-2.021 5.047-2.131 7.067-.248 2.02 1.882 2.131 5.046.249 7.066-4.655 4.993-10.599 7.743-16.74 7.743z"/></g></g><path d="m272.597 323.094c0 6.955-9.669 12.593-21.597 12.593s-21.597-5.638-21.597-12.593 9.669-7.782 21.597-7.782 21.597.827 21.597 7.782z" fill="#383842"/></g><path d="m350.347 487.173c-9.611 2.702-19.756 4.143-30.232 4.143h-138.23c-10.476 0-20.621-1.442-30.232-4.143 4.902-50.544 47.511-90.056 99.347-90.056s94.445 39.512 99.347 90.056z" fill="url(#SVGID_7_)"/><path d="m346.47 424.977c-26.584 0-48.135 21.551-48.135 48.135 0 15.955 12.934 28.888 28.888 28.888h38.494c15.954 0 28.888-12.934 28.888-28.888 0-26.585-21.551-48.135-48.135-48.135z" fill="url(#SVGID_8_)"/><path d="m155.53 424.977c26.584 0 48.135 21.551 48.135 48.135 0 15.955-12.934 28.888-28.888 28.888h-38.494c-15.955 0-28.888-12.934-28.888-28.888 0-26.585 21.551-48.135 48.135-48.135z" fill="url(#SVGID_9_)"/></g></svg>