<svg id="Capa_1" enable-background="new 0 0 502 502" height="512" viewBox="0 0 502 502" width="512" xmlns="http://www.w3.org/2000/svg" xmlns:xlink="http://www.w3.org/1999/xlink"><linearGradient id="SVGID_1_" gradientUnits="userSpaceOnUse" x1="251" x2="251" y1="502" y2="192.299"><stop offset=".0223" stop-color="#875ac0"/><stop offset="1" stop-color="#a07ccd"/></linearGradient><linearGradient id="lg1"><stop offset="0" stop-color="#fd8943"/><stop offset="1" stop-color="#fdb58a"/></linearGradient><linearGradient id="SVGID_2_" gradientUnits="userSpaceOnUse" x1="53.906" x2="146.089" xlink:href="#lg1" y1="133.207" y2="133.207"/><linearGradient id="SVGID_3_" gradientUnits="userSpaceOnUse" x1="251" x2="251" y1="255.566" y2="138.62"><stop offset="0" stop-color="#a07ccd"/><stop offset=".9777" stop-color="#875ac0"/></linearGradient><linearGradient id="lg2"><stop offset="0" stop-color="#fdb58a"/><stop offset="1" stop-color="#fd8943"/></linearGradient><linearGradient id="SVGID_4_" gradientUnits="userSpaceOnUse" x1="313.905" x2="313.905" xlink:href="#lg2" y1="92.184" y2="0"/><linearGradient id="SVGID_5_" gradientUnits="userSpaceOnUse" x1="355.911" x2="448.094" xlink:href="#lg2" y1="260.798" y2="260.798"/><linearGradient id="SVGID_6_" gradientUnits="userSpaceOnUse" x1="111.632" x2="262.914" xlink:href="#lg2" y1="348.092" y2="348.092"/><linearGradient id="SVGID_7_" gradientUnits="userSpaceOnUse" x1="402.003" x2="402.003" xlink:href="#lg2" y1="197.094" y2="57.727"/><linearGradient id="SVGID_8_" gradientUnits="userSpaceOnUse" x1="251" x2="390.368" xlink:href="#lg2" y1="348.092" y2="348.092"/><linearGradient id="SVGID_9_" gradientUnits="userSpaceOnUse" x1="53.906" x2="146.089" xlink:href="#lg2" y1="266.773" y2="266.773"/><linearGradient id="SVGID_10_" gradientUnits="userSpaceOnUse" x1="111.632" x2="251" xlink:href="#lg1" y1="46.092" y2="46.092"/><g><g><path d="m372.402 502h-242.803c-20.255 0-38.279-10.538-48.214-28.19-9.911-17.61-9.593-38.429.844-55.72l134.035-225.792 34.736 20.621 34.737-20.62 134.034 225.791c10.437 17.291 10.756 38.11.844 55.72-9.935 17.652-27.958 28.19-48.213 28.19zm-121.402-269.588-125.658 211.677c-1.002 1.652-1.03 3.343-.083 5.028.947 1.683 2.408 2.537 4.34 2.537h242.803c1.932 0 3.391-.854 4.339-2.537.948-1.684.919-3.376-.083-5.028l-.128-.211z" fill="url(#SVGID_1_)"/></g><path d="m251 212.919-34.736-20.62-35.187 59.275c10.47 13.408 24.706 23.738 41.102 29.388l28.821-48.55 28.821 48.551c16.397-5.65 30.632-15.98 41.103-29.389l-35.187-59.275z" fill="#875ac0"/><path d="m146.089 92.183c-26.855 26.844-43.459 63.939-43.459 104.911l-24.199 11.593-24.526-11.593c0-54.424 22.062-103.703 57.727-139.368l26.235 6.23z" fill="url(#SVGID_2_)"/><circle cx="251" cy="197.093" fill="url(#SVGID_3_)" r="58.473"/><g><path d="m275.77 214.03c-5.377-1.417-8.587-6.926-7.17-12.303 1.412-5.357.202-11.051-3.321-15.623-3.528-4.579-8.733-7.206-14.281-7.207-5.561-.001-10.068-4.51-10.067-10.071.001-5.56 4.509-10.067 10.069-10.067h.002c11.842.002 22.86 5.489 30.229 15.055 7.364 9.558 9.858 21.603 6.842 33.046-1.415 5.369-6.918 8.588-12.303 7.17z" fill="#d1bfe5"/></g><path d="m390.368 57.727-7.037 30.93-27.419 3.526c-26.846-26.854-63.94-43.458-104.912-43.458l-13.558-25.293 13.558-23.432c54.424 0 103.692 22.062 139.368 57.727z" fill="url(#SVGID_4_)"/><path d="m448.094 197.094c0 54.424-22.062 103.693-57.727 139.358l-31.352-10.437-3.105-24.01c26.855-26.844 43.459-63.939 43.459-104.911l26.415-11.95z" fill="url(#SVGID_5_)"/><path d="m138.794 322.802-30.436 51.271c13.202 10.68 27.426 19.759 42.434 27.143l31.327-52.772z" fill="#875ac0"/><path d="m251 345.464 11.914 23.777-11.914 24.937c-54.424 0-103.692-22.062-139.368-57.727l7.709-28.19 26.747-6.256c26.846 26.855 63.94 43.459 104.912 43.459z" fill="url(#SVGID_6_)"/><path d="m365.751 327.089-40.996 29.568 26.451 44.559c15.009-7.384 29.233-16.463 42.436-27.143z" fill="#875ac0"/><path d="m448.094 197.094h-48.725c0-40.971-16.604-78.066-43.459-104.911l34.457-34.457c35.666 35.666 57.727 84.944 57.727 139.368z" fill="url(#SVGID_7_)"/><path d="m390.368 336.452c-35.675 35.665-84.944 57.727-139.368 57.727v-48.715c40.972 0 78.066-16.604 104.911-43.459z" fill="url(#SVGID_8_)"/><path d="m146.089 302.005-34.457 34.447c-35.665-35.665-57.727-84.934-57.727-139.358h48.725c.001 40.972 16.605 78.067 43.459 104.911z" fill="url(#SVGID_9_)"/><path d="m251 0v48.725c-40.972 0-78.066 16.604-104.911 43.459l-34.457-34.457c35.676-35.665 84.944-57.727 139.368-57.727z" fill="url(#SVGID_10_)"/></g></svg>