<svg id="Capa_1" enable-background="new 0 0 502 502" height="512" viewBox="0 0 502 502" width="512" xmlns="http://www.w3.org/2000/svg" xmlns:xlink="http://www.w3.org/1999/xlink"><linearGradient id="SVGID_1_" gradientUnits="userSpaceOnUse" x1="251" x2="251" y1="339.641" y2="73.716"><stop offset="0" stop-color="#3cc8db"/><stop offset="1" stop-color="#b1e6ee"/></linearGradient><linearGradient id="SVGID_2_" gradientUnits="userSpaceOnUse" x1="251" x2="251" y1="111.878" y2="35.55"><stop offset="0" stop-color="#4f4c5f"/><stop offset="1" stop-color="#77718a"/></linearGradient><linearGradient id="SVGID_3_" gradientUnits="userSpaceOnUse" x1="167.31" x2="167.31" y1="376.993" y2="116.018"><stop offset="0" stop-color="#7ecc5c"/><stop offset="1" stop-color="#b8e2a5"/></linearGradient><linearGradient id="SVGID_4_" gradientUnits="userSpaceOnUse" x1="252.427" x2="394.25" y1="488.44" y2="242.795"><stop offset="0" stop-color="#eb9981"/><stop offset="1" stop-color="#dc543c"/></linearGradient><linearGradient id="SVGID_5_" gradientUnits="userSpaceOnUse" x1="0" x2="502" y1="428.286" y2="428.286"><stop offset="0" stop-color="#77718a"/><stop offset="1" stop-color="#4f4c5f"/></linearGradient><g><path d="m22.46 207.155v-133.44h457.08v221.541l-68.185 44.385h-171.514z" fill="url(#SVGID_1_)"/><path d="m142.927 108.697-120.467-34.982v68.162h116.397c9.3 0 16.84-7.539 16.84-16.84 0-7.732-5.267-14.471-12.77-16.34z" fill="#00c6dc"/><path d="m479.542 35.55h-457.084c-12.403 0-22.458 10.055-22.458 22.459v31.411c0 12.403 10.055 22.458 22.458 22.458h457.084c12.403 0 22.458-10.055 22.458-22.458v-31.411c0-12.404-10.055-22.459-22.458-22.459z" fill="url(#SVGID_2_)"/><g><path d="m448.54 221.988c-5.522 0-10-4.477-10-10v-7.014c0-5.523 4.478-10 10-10s10 4.477 10 10v7.014c0 5.523-4.477 10-10 10z" fill="#b1e6ee"/></g><g><path d="m448.54 178.252c-5.522 0-10-4.477-10-10v-24.536c0-5.523 4.478-10 10-10s10 4.477 10 10v24.536c0 5.523-4.477 10-10 10z" fill="#b1e6ee"/></g><path d="m199.87 428.285h-177.41v-221.13c11.63-13.71 28.92-21.91 47.2-21.91 6.66 0 13.46 1.09 20.17 3.4l.07-.08c24.64-28.34 68.66-28.34 93.31 0l.07.08c35.55-12.25 73.71 9.8 80.84 46.72l.01.02h.02c24.26 4.69 42.11 22.79 48.01 44.74v118.015z" fill="url(#SVGID_3_)"/><g><path d="m181.774 255.246c-1.882-6.426-7.876-10.914-14.577-10.914s-12.695 4.488-14.577 10.914c-1.165 3.975-5.331 6.251-9.306 5.089-3.975-1.165-6.253-5.331-5.089-9.306 3.742-12.775 15.656-21.697 28.973-21.697s25.23 8.922 28.973 21.697c1.164 3.975-1.114 8.142-5.089 9.306-3.962 1.16-8.139-1.098-9.308-5.089z" fill="#c0e2b2"/></g><g><path d="m103.631 323.389c-1.882-6.426-7.876-10.914-14.577-10.914s-12.695 4.488-14.577 10.914c-1.165 3.975-5.331 6.251-9.306 5.089-3.975-1.165-6.253-5.331-5.089-9.306 3.742-12.775 15.656-21.697 28.973-21.697s25.23 8.922 28.973 21.697c1.164 3.975-1.114 8.142-5.089 9.306-3.962 1.16-8.139-1.099-9.308-5.089z" fill="#b8e2a5"/></g><path d="m215.006 287.428c-26.494 4.795-45.997 17.368-58.209 27.459-8.556 7.07-9.154 19.972-1.306 27.82 4.677 4.677 11.465 6.557 17.882 4.952l32.069-8.019 24.403-18.516c4.715-3.578 7.485-9.156 7.485-15.075 0-11.81-10.702-20.724-22.324-18.621z" fill="#6dc647"/><path d="m479.54 295.256v133.03h-279.67l-91.73-23.15 61.75-61.75c17.88-17.89 42.15-27.94 67.44-27.94 12.65 0 25.04-2.51 36.5-7.26 11.47-4.74 22-11.72 30.94-20.67l8.58-8.58c17.89-17.89 42.15-27.94 67.45-27.94h2.11c18.36 0 36.33 5.3 51.75 15.27z" fill="url(#SVGID_4_)"/><g><ellipse cx="291.54" cy="363.693" fill="#ffaecf" rx="13.37" ry="10.744"/><ellipse cx="448.875" cy="363.693" fill="#ffaecf" rx="13.37" ry="10.744"/><circle cx="314.461" cy="337.182" fill="#fff" r="26.511"/><circle cx="425.954" cy="337.182" fill="#fff" r="26.511"/><g fill="#383842"><g><circle cx="314.461" cy="337.182" r="15.801"/><circle cx="425.954" cy="337.182" r="15.801"/></g><path d="m370.207 365.065c-4.823 0-9.646-1.824-13.582-5.473-2.025-1.878-2.145-5.041-.268-7.066 1.879-2.025 5.041-2.143 7.066-.268 4.058 3.764 9.512 3.763 13.567 0 2.023-1.875 5.188-1.757 7.066.268 1.877 2.025 1.758 5.188-.268 7.066-3.934 3.649-8.757 5.473-13.581 5.473z"/></g></g><path d="m479.542 390.122h-457.084c-12.403 0-22.458 10.055-22.458 22.458v31.411c0 12.403 10.055 22.458 22.458 22.458h457.084c12.403 0 22.458-10.055 22.458-22.458v-31.411c0-12.403-10.055-22.458-22.458-22.458z" fill="url(#SVGID_5_)"/></g></svg>