<svg id="Capa_1" enable-background="new 0 0 502 502" height="512" viewBox="0 0 502 502" width="512" xmlns="http://www.w3.org/2000/svg" xmlns:xlink="http://www.w3.org/1999/xlink"><linearGradient id="lg1"><stop offset="0" stop-color="#b1e6ee"/><stop offset="1" stop-color="#3cc8db"/></linearGradient><linearGradient id="SVGID_1_" gradientUnits="userSpaceOnUse" x1="251" x2="251" xlink:href="#lg1" y1="434.872" y2="50.398"/><linearGradient id="SVGID_2_" gradientUnits="userSpaceOnUse" x1="251" x2="251" xlink:href="#lg1" y1="94.197" y2="6.594"/><linearGradient id="SVGID_3_" gradientUnits="userSpaceOnUse" x1="251" x2="251" y1="416.016" y2="149.335"><stop offset="0" stop-color="#fd869c"/><stop offset="1" stop-color="#f7496e"/></linearGradient><linearGradient id="SVGID_4_" gradientUnits="userSpaceOnUse" x1="251" x2="251" y1="434.872" y2="311.607"><stop offset="0" stop-color="#77718a"/><stop offset="1" stop-color="#4f4c5f"/></linearGradient><linearGradient id="SVGID_5_" gradientUnits="userSpaceOnUse" x1="251" x2="251" y1="495.406" y2="389.512"><stop offset="0" stop-color="#f3c757"/><stop offset="1" stop-color="#f9e09d"/></linearGradient><g><path d="m57.983 434.872c-.676-.796-1.341-1.603-2.006-2.42-35.003-43.136-55.977-98.122-55.977-158.002 0-97.882 56.032-182.671 137.769-224.052h226.461c81.738 41.381 137.77 126.17 137.77 224.052 0 59.88-20.974 114.866-55.978 158.002-.665.818-1.33 1.624-2.006 2.42z" fill="url(#SVGID_1_)"/><path d="m199.823 88.485-62.058-38.09c-34.15 17.293-63.807 42.167-86.771 72.402 7.745 2.646 16.035 4.103 24.665 4.103h114.739c11.246 0 20.363-9.117 20.363-20.363.001-7.585-4.214-14.541-10.938-18.052z" fill="#00c6dc"/><path d="m426.341 6.594h-350.682c-24.191 0-43.801 19.611-43.801 43.801 0 24.191 19.611 43.801 43.801 43.801h350.681c24.191 0 43.801-19.611 43.801-43.801.001-24.191-19.609-43.801-43.8-43.801z" fill="url(#SVGID_2_)"/><g><path d="m464.228 258.605c-5.402 0-10.092-4.013-10.798-9.514-1.939-15.087-5.535-29.95-10.686-44.178-2.05-5.661.877-11.911 6.538-13.961 5.667-2.051 11.911.877 13.962 6.538 5.695 15.727 9.669 32.153 11.811 48.822.766 5.971-3.452 11.434-9.424 12.202-.472.062-.94.091-1.403.091z" fill="#b1e6ee"/></g><g><path d="m425.76 169.124c-2.862-4.787-5.956-9.518-9.199-14.059-3.499-4.9-2.363-11.708 2.536-15.207 4.902-3.5 11.709-2.362 15.206 2.536 3.587 5.022 7.009 10.253 10.172 15.548 3.088 5.168 1.402 11.861-3.766 14.949-5.136 3.069-11.843 1.434-14.949-3.767z" fill="#b1e6ee"/></g><path d="m360.626 218.039v-58.698c0-5.527-4.48-10.007-10.007-10.007h-23.837c-5.527 0-10.007 4.48-10.007 10.007v15.768c0 5.527-4.48 10.007-10.007 10.007h-23.837c-5.527 0-10.007-4.48-10.007-10.007v-15.768c0-5.527-4.48-10.007-10.007-10.007h-23.837c-5.527 0-10.007 4.48-10.007 10.007v15.768c0 5.527-4.48 10.007-10.007 10.007h-23.837c-5.527 0-10.007-4.48-10.007-10.007v-15.768c0-5.527-4.48-10.007-10.007-10.007h-23.837c-5.527 0-10.007 4.48-10.007 10.007v58.698c0 13.584 11.012 24.596 24.596 24.596l-24.596 173.38h219.252l-24.596-173.38c13.587 0 24.599-11.012 24.599-24.596z" fill="url(#SVGID_3_)"/><path d="m286.831 327.127c-.777-8.784-8.134-15.52-16.953-15.52h-37.757c-8.818 0-16.176 6.736-16.953 15.52l-9.529 107.745h90.72z" fill="url(#SVGID_4_)"/><path d="m444.017 434.872c-32.486 38.558-80.647 60.534-131.174 60.534h-123.685c-50.527 0-98.689-21.977-131.174-60.534 50.952-28.18 118.681-45.36 193.017-45.36s142.063 17.181 193.016 45.36z" fill="url(#SVGID_5_)"/><g fill="#fddbe1"><path d="m227.743 256.689h-26.704c-6.835 0-12.376 5.541-12.376 12.376v5.549c0 6.835 5.541 12.376 12.376 12.376h26.704c6.835 0 12.376-5.541 12.376-12.376v-5.549c0-6.835-5.541-12.376-12.376-12.376z"/><path d="m300.961 218.355h-26.704c-6.835 0-12.376 5.541-12.376 12.376v5.549c0 6.835 5.541 12.376 12.376 12.376h26.704c6.835 0 12.376-5.541 12.376-12.376v-5.549c0-6.835-5.541-12.376-12.376-12.376z"/></g><g fill="#b1e6ee"><circle cx="94.285" cy="198.191" r="20.164"/><circle cx="407.715" cy="296.302" r="20.164"/><circle cx="73.529" cy="302.839" r="30.02"/></g></g></svg>