<svg id="Capa_1" enable-background="new 0 0 502 502" height="512" viewBox="0 0 502 502" width="512" xmlns="http://www.w3.org/2000/svg" xmlns:xlink="http://www.w3.org/1999/xlink"><linearGradient id="SVGID_1_" gradientUnits="userSpaceOnUse" x1="27.881" x2="320.359" y1="463.622" y2="171.145"><stop offset="0" stop-color="#efc4ab"/><stop offset="1" stop-color="#dc8757"/></linearGradient><linearGradient id="SVGID_2_" gradientUnits="userSpaceOnUse" x1="306.838" x2="306.838" y1="461.285" y2="40.715"><stop offset="0" stop-color="#4f4c5f"/><stop offset="1" stop-color="#77718a"/></linearGradient><linearGradient id="SVGID_3_" gradientUnits="userSpaceOnUse" x1="149.189" x2="149.189" y1="425.445" y2="244.85"><stop offset="0" stop-color="#77718a"/><stop offset="1" stop-color="#4f4c5f"/></linearGradient><linearGradient id="SVGID_4_" gradientUnits="userSpaceOnUse" x1="421.577" x2="421.577" y1="228.995" y2="40.715"><stop offset=".0223" stop-color="#875ac0"/><stop offset="1" stop-color="#a07ccd"/></linearGradient><linearGradient id="lg1"><stop offset="0" stop-color="#fbe7b4"/><stop offset="1" stop-color="#fff5e3"/></linearGradient><linearGradient id="SVGID_5_" gradientUnits="userSpaceOnUse" x1="421.577" x2="421.577" xlink:href="#lg1" y1="284.195" y2="217.905"/><linearGradient id="SVGID_6_" gradientUnits="userSpaceOnUse" x1="331.014" x2="331.014" xlink:href="#lg1" y1="75.893" y2="5.537"/><linearGradient id="SVGID_7_" gradientUnits="userSpaceOnUse" x1="251" x2="251" y1="496.463" y2="426.107"><stop offset="0" stop-color="#fff5e3"/><stop offset="1" stop-color="#fbe7b4"/></linearGradient><g><path d="m79.684 157.624c-29.9 0-54.139 24.239-54.139 54.139v249.522h281.293v-303.661z" fill="url(#SVGID_1_)"/><path d="m272.674 40.715h68.328v420.57h-68.328z" fill="url(#SVGID_2_)"/><circle cx="149.189" cy="291.866" fill="url(#SVGID_3_)" r="90.298"/><path d="m403.284 40.715h36.586v188.281h-36.586z" fill="url(#SVGID_4_)"/><path d="m272.674 40.715h68.328v65.183h-68.328z" fill="#4a4a5a"/><path d="m403.284 40.715h36.586v65.183h-36.586z" fill="#875ac0"/><circle cx="421.577" cy="251.05" fill="url(#SVGID_5_)" r="33.145"/><path d="m476.455 5.537h-290.883c-14.108 0-25.545 11.437-25.545 25.545v19.267c0 14.108 11.437 25.545 25.545 25.545h290.883c14.108 0 25.545-11.437 25.545-25.545v-19.268c0-14.108-11.437-25.544-25.545-25.544z" fill="url(#SVGID_6_)"/><path d="m476.455 426.107h-450.91c-14.108 0-25.545 11.437-25.545 25.545v19.267c0 14.108 11.437 25.545 25.545 25.545h450.91c14.108 0 25.545-11.437 25.545-25.545v-19.267c0-14.108-11.437-25.545-25.545-25.545z" fill="url(#SVGID_7_)"/></g></svg>