<svg id="Capa_1" enable-background="new 0 0 502 502" height="512" viewBox="0 0 502 502" width="512" xmlns="http://www.w3.org/2000/svg" xmlns:xlink="http://www.w3.org/1999/xlink"><linearGradient id="SVGID_1_" gradientUnits="userSpaceOnUse" x1="251" x2="251" y1="376.484" y2="298.868"><stop offset="0" stop-color="#efc4ab"/><stop offset="1" stop-color="#dc8757"/></linearGradient><linearGradient id="lg1"><stop offset="0" stop-color="#7ecc5c"/><stop offset="1" stop-color="#b8e2a5"/></linearGradient><linearGradient id="SVGID_2_" gradientUnits="userSpaceOnUse" x1="164.383" x2="164.383" xlink:href="#lg1" y1="485.455" y2="355.205"/><linearGradient id="lg2"><stop offset="0" stop-color="#b8e2a5"/><stop offset="1" stop-color="#7ecc5c"/></linearGradient><linearGradient id="SVGID_3_" gradientUnits="userSpaceOnUse" x1="357.028" x2="417.743" xlink:href="#lg2" y1="439.364" y2="378.648"/><linearGradient id="SVGID_4_" gradientUnits="userSpaceOnUse" x1="182.889" x2="182.889" xlink:href="#lg2" y1="371.487" y2="120.86"/><linearGradient id="SVGID_5_" gradientUnits="userSpaceOnUse" x1="385.385" x2="385.385" xlink:href="#lg1" y1="252.158" y2="-30.165"/><g><path d="m391.463 298.868-42.602 14.291-42.232-14.291 42.417-10.874z" fill="#6dc647"/><path d="m128.243 369.285v7.2l-24.742 8.585-25.558-8.585v-7.2z" fill="#6dc647"/><path d="m0 298.868h502v77.616h-502z" fill="url(#SVGID_1_)"/><g><path d="m250.823 380.355v18.66c0 47.66-38.78 86.44-86.44 86.44s-86.44-38.78-86.44-86.44v-22.53h50.3v22.53c0 19.93 16.21 36.14 36.14 36.14s36.14-16.21 36.14-36.14v-18.66c0-13.89 11.26-25.15 25.15-25.15s25.15 11.26 25.15 25.15z" fill="url(#SVGID_2_)"/></g><path d="m439.084 357.307c-14.142-14.14-32.343-23.961-51.776-27.636-11.406-2.157-21.948 6.659-21.948 18.267 0 6.54 3.44 12.598 9.057 15.948l21.123 12.598h58.628c-4.178-6.865-9.225-13.317-15.084-19.177z" fill="#dc8757"/><path d="m417.743 378.648c-14.407-14.407-33.173-21.292-50.688-20.307-16.275.915-29.42 14.061-30.335 30.335-.985 17.514 5.901 36.281 20.307 50.688 14.407 14.407 33.173 21.292 50.688 20.307 16.275-.915 29.42-14.061 30.335-30.335.985-17.515-5.9-36.281-20.307-50.688z" fill="url(#SVGID_3_)"/><g><path d="m414.573 436.194c-2.947 2.947-7.723 2.947-10.67 0l-43.706-43.706c-2.947-2.947-2.947-7.723 0-10.67s7.723-2.947 10.67 0l43.706 43.706c2.947 2.947 2.947 7.724 0 10.67z" fill="#6dc647"/></g><path d="m268.776 87.049h-49.666c-11.458 0-22.605 1.368-33.268 3.943l-10.701 38.414-35.423-17.932c-24.918 16.981-44.123 41.728-54.112 70.761l28.716 31.547-36.382 18.622v52.57 13.896 3.158c0 19.688 15.96 35.649 35.649 35.649 19.688 0 35.649-15.96 35.649-35.649v-3.158h48.241v3.158c0 19.688 15.96 35.649 35.649 35.649 19.688 0 35.649-15.96 35.649-35.649v-3.158-13.896-23.97l19.063-79.282z" fill="url(#SVGID_4_)"/><g><path d="m197.461 164.742c-12.142 6.629-27.443 2.223-34.123-10.02l-23.621-43.247c13.812-9.416 29.385-16.438 46.124-20.482l21.639 39.616c6.66 12.192 2.174 27.473-10.019 34.133z" fill="#b8e2a5"/></g><g><path d="m149.677 227.254c-3.903 13.329-17.886 20.965-31.206 17.051l-40.531-11.901v-4.175c0-16.106 2.696-31.578 7.666-45.994l47.03 13.802c13.329 3.914 20.954 17.887 17.041 31.217z" fill="#b8e2a5"/></g><path d="m238.591 87.049v68.629c0 8.334 6.756 15.09 15.09 15.09 8.334 0 15.089-6.756 15.09-15.089l.004-68.63z" fill="#6dc647"/><path d="m424.209 82.756c-12.873-3.993-24.797-10.567-35.044-19.321l-41.462-35.421c-8.664-7.402-19.686-11.469-31.081-11.469-26.427 0-47.85 21.423-47.85 47.85v196.614c0 20.909 16.95 37.859 37.859 37.859h84.834c61.048 0 110.537-49.489 110.537-110.537-.002-48.434-31.533-91.227-77.793-105.575z" fill="url(#SVGID_5_)"/><g><ellipse cx="304.943" cy="224.987" fill="#f7496e" rx="13.671" ry="10.987"/><ellipse cx="465.828" cy="224.987" fill="#f7496e" rx="13.671" ry="10.987"/><circle cx="328.381" cy="197.878" fill="#fff" r="27.109"/><circle cx="442.39" cy="197.878" fill="#fff" r="27.109"/><g fill="#383842"><g><circle cx="328.381" cy="197.878" r="16.157"/><circle cx="442.39" cy="197.878" r="16.157"/></g><path d="m385.385 226.276c-4.906 0-9.81-1.855-13.812-5.566-2.025-1.877-2.145-5.041-.267-7.065 1.878-2.025 5.042-2.145 7.066-.267 4.195 3.889 9.832 3.888 14.027-.001 2.025-1.875 5.188-1.757 7.066.268 1.877 2.025 1.758 5.188-.267 7.066-4.002 3.709-8.908 5.565-13.813 5.565z"/></g></g><g><path d="m128.239 399.015v-22.531h-50.299v22.531c0 2.579.135 5.127.357 7.649h50.764c-.534-2.467-.822-5.025-.822-7.649z" fill="#6dc647"/></g></g></svg>