<svg id="Capa_1" enable-background="new 0 0 502 502" height="512" viewBox="0 0 502 502" width="512" xmlns="http://www.w3.org/2000/svg" xmlns:xlink="http://www.w3.org/1999/xlink"><linearGradient id="SVGID_1_" gradientUnits="userSpaceOnUse" x1="251" x2="251" y1="471.222" y2="0"><stop offset="0" stop-color="#eb9981"/><stop offset="1" stop-color="#dc543c"/></linearGradient><linearGradient id="lg1"><stop offset="0" stop-color="#fff5e3"/><stop offset="1" stop-color="#fbe7b4"/></linearGradient><linearGradient id="SVGID_2_" gradientUnits="userSpaceOnUse" x1="175.23" x2="100.53" xlink:href="#lg1" y1="246.206" y2="171.506"/><linearGradient id="SVGID_3_" gradientTransform="matrix(-1 0 0 1 -12320.547 0)" gradientUnits="userSpaceOnUse" x1="-12647.316" x2="-12722.017" y1="246.206" y2="171.506"><stop offset="0" stop-color="#fbe7b4"/><stop offset="1" stop-color="#fff5e3"/></linearGradient><linearGradient id="SVGID_4_" gradientUnits="userSpaceOnUse" x1="251" x2="251" xlink:href="#lg1" y1="495.743" y2="176.814"/><linearGradient id="SVGID_5_" gradientUnits="userSpaceOnUse" x1="284.414" x2="372.051" y1="457.636" y2="457.636"><stop offset="0" stop-color="#fd869c"/><stop offset="1" stop-color="#fdb0bf"/></linearGradient><linearGradient id="SVGID_6_" gradientUnits="userSpaceOnUse" x1="129.949" x2="217.586" y1="457.636" y2="457.636"><stop offset="0" stop-color="#fdb0bf"/><stop offset="1" stop-color="#fd869c"/></linearGradient><g><path d="m473.455 200.456-.086-.098c-10.841-12.457-15.329-29.22-12.161-45.427l.011-.054c5.132-26.258-9.904-52.275-35.218-60.938-15.664-5.36-27.968-17.664-33.328-33.328v-.001c-8.663-25.314-34.679-40.35-60.938-35.218l-.055.011c-16.207 3.168-32.97-1.32-45.427-12.161l-.098-.085c-20.155-17.542-50.155-17.542-70.31-.002l-.098.086c-12.457 10.841-29.22 15.329-45.427 12.161l-.054-.011c-26.258-5.132-52.275 9.904-60.938 35.218-5.36 15.664-17.664 27.968-33.328 33.328-25.314 8.663-40.35 34.679-35.218 60.938l.011.056c3.167 16.207-1.32 32.97-12.161 45.427l-.085.098c-17.541 20.155-17.541 50.156 0 70.311l.085.098c10.841 12.457 15.329 29.22 12.161 45.427l-.011.054c-5.132 26.258 9.904 52.275 35.218 60.938 15.664 5.36 27.968 17.664 33.328 33.328v.001c8.663 25.314 34.679 40.35 60.938 35.218l.055-.011c16.207-3.168 32.97 1.32 45.427 12.161l.098.085c20.155 17.541 50.156 17.541 70.311 0l.098-.085c12.457-10.841 29.22-15.329 45.427-12.161l.054.011c26.258 5.132 52.275-9.904 60.938-35.218 5.36-15.664 17.664-27.968 33.328-33.328 25.314-8.663 40.35-34.679 35.218-60.938l-.011-.056c-3.168-16.207 1.32-32.97 12.161-45.427l.085-.098c17.541-20.155 17.541-50.156 0-70.31z" fill="url(#SVGID_1_)"/><circle cx="148.82" cy="219.795" fill="url(#SVGID_2_)" r="52.821"/><circle cx="353.18" cy="219.795" fill="url(#SVGID_3_)" r="52.821"/><path d="m405.292 384.233-11.263-91.113c-6.208-50.223-37.779-91.743-80.909-112.372-19.74-9.441-43.564-1.331-53.06 18.383-.146.303-.291.608-.434.916-3.422 7.336-13.831 7.336-17.253 0-.144-.308-.289-.614-.435-.917-9.496-19.714-33.32-27.824-53.059-18.383-43.13 20.628-74.7 62.149-80.909 112.372l-11.263 91.113c-7.323 59.239 38.885 111.51 98.575 111.51h111.435c59.69.001 105.898-52.271 98.575-111.509z" fill="url(#SVGID_4_)"/><g><g><ellipse cx="158.187" cy="298.086" fill="#ffaecf" rx="15.774" ry="12.676"/><ellipse cx="343.813" cy="298.086" fill="#ffaecf" rx="15.774" ry="12.676"/><circle cx="185.23" cy="266.807" fill="#fff" r="31.278"/><circle cx="316.77" cy="266.807" fill="#fff" r="31.278"/><g fill="#383842"><g><circle cx="185.23" cy="266.807" r="18.642"/><circle cx="316.77" cy="266.807" r="18.642"/></g><path d="m261.382 307.77c-3.658 0-7.228-1.154-10.382-3.313-3.154 2.158-6.724 3.313-10.382 3.313-5.163 0-10.149-2.299-14.04-6.474-1.883-2.021-1.771-5.185.249-7.067 2.021-1.882 5.184-1.771 7.067.249 2.007 2.154 4.333 3.292 6.725 3.292s4.717-1.138 6.724-3.292c.946-1.015 2.271-1.591 3.658-1.591 1.388 0 2.712.576 3.658 1.591 2.007 2.154 4.332 3.292 6.724 3.292s4.717-1.138 6.724-3.292c1.884-2.021 5.047-2.131 7.067-.249 2.02 1.883 2.131 5.047.249 7.067-3.892 4.175-8.878 6.474-14.041 6.474z"/></g></g><path d="m268.14 272.715c0 5.52-7.674 9.994-17.14 9.994s-17.14-4.475-17.14-9.994 7.674-6.176 17.14-6.176 17.14.656 17.14 6.176z" fill="#383842"/></g><path d="m284.634 465.123 1.655-14.439c2.443-21.317 20.487-37.411 41.944-37.411 21.457 0 39.501 16.094 41.944 37.411l1.655 14.439c2.252 19.65-13.114 36.877-32.892 36.877h-21.415c-19.778 0-35.143-17.227-32.891-36.877z" fill="url(#SVGID_5_)"/><g><path d="m202.405 392.276h-30.007c-3.153 0-5.71-2.556-5.71-5.71s2.556-5.71 5.71-5.71h30.007c11.813 0 21.423-9.61 21.423-21.423 0-11.812-9.61-21.423-21.423-21.423h-30.007c-3.153 0-5.71-2.556-5.71-5.71 0-3.153 2.556-5.71 5.71-5.71h30.007c18.109 0 32.843 14.733 32.843 32.842 0 18.11-14.734 32.844-32.843 32.844z" fill="#fddcb4"/></g><g><path d="m299.595 392.276h30.008c3.153 0 5.71-2.556 5.71-5.71s-2.556-5.71-5.71-5.71h-30.008c-11.813 0-21.423-9.61-21.423-21.423 0-11.812 9.61-21.423 21.423-21.423h30.008c3.153 0 5.71-2.556 5.71-5.71 0-3.153-2.556-5.71-5.71-5.71h-30.008c-18.109 0-32.843 14.733-32.843 32.842 0 18.11 14.734 32.844 32.843 32.844z" fill="#fddcb4"/></g><g><path d="m235.921 161.423c-3.971-3.971-3.971-10.411 0-14.382l15.775-15.775c3.972-3.971 10.41-3.97 14.382 0 3.971 3.971 3.971 10.411 0 14.382l-15.775 15.775c-3.97 3.971-10.41 3.972-14.382 0z" fill="#dc543c"/></g><g><path d="m133.564 133.561c-3.971-3.971-3.971-10.411 0-14.382l15.775-15.775c3.972-3.971 10.41-3.97 14.382 0 3.971 3.971 3.971 10.411 0 14.382l-15.775 15.775c-3.971 3.971-10.411 3.972-14.382 0z" fill="#dc543c"/></g><g><path d="m360.301 138.646c3.971-3.971 3.971-10.411 0-14.382l-15.775-15.775c-3.972-3.971-10.41-3.97-14.382 0-3.971 3.971-3.971 10.411 0 14.382l15.775 15.775c3.97 3.971 10.41 3.972 14.382 0z" fill="#dc543c"/></g><g><path d="m266.079 88.398c3.971-3.971 3.971-10.411 0-14.382l-15.775-15.776c-3.972-3.971-10.41-3.97-14.382 0-3.971 3.971-3.971 10.411 0 14.382l15.775 15.775c3.97 3.972 10.41 3.972 14.382.001z" fill="#fdb0a3"/></g><g><path d="m159.902 54.122c3.971-3.971 3.971-10.411 0-14.382l-15.775-15.775c-3.972-3.971-10.41-3.97-14.382 0-3.971 3.971-3.971 10.411 0 14.382l15.775 15.775c3.97 3.971 10.41 3.972 14.382 0z" fill="#fdb0a3"/></g><g><path d="m84.885 207.798c3.971-3.971 3.971-10.411 0-14.382l-15.776-15.776c-3.972-3.971-10.41-3.97-14.382 0-3.971 3.971-3.971 10.411 0 14.382l15.775 15.775c3.971 3.971 10.411 3.972 14.383.001z" fill="#fdb0a3"/></g><g><path d="m25.162 308.034c3.971 3.971 10.411 3.971 14.382 0l15.775-15.775c3.971-3.972 3.97-10.41 0-14.382-3.971-3.971-10.411-3.971-14.382 0l-15.775 15.775c-3.97 3.971-3.971 10.411 0 14.382z" fill="#dc543c"/></g><g><path d="m342.098 54.122c-3.971-3.971-3.971-10.411 0-14.382l15.775-15.775c3.972-3.971 10.41-3.97 14.382 0 3.971 3.971 3.971 10.411 0 14.382l-15.775 15.775c-3.97 3.971-10.41 3.972-14.382 0z" fill="#fdb0a3"/></g><g><path d="m417.115 207.798c-3.971-3.971-3.971-10.411 0-14.382l15.775-15.775c3.972-3.971 10.41-3.97 14.382 0 3.971 3.971 3.971 10.411 0 14.382l-15.775 15.775c-3.97 3.97-10.41 3.971-14.382 0z" fill="#fdb0a3"/></g><g><path d="m476.838 308.034c-3.971 3.971-10.411 3.971-14.382 0l-15.775-15.775c-3.971-3.972-3.97-10.41 0-14.382 3.971-3.971 10.411-3.971 14.382 0l15.775 15.775c3.97 3.971 3.971 10.411 0 14.382z" fill="#dc543c"/></g><path d="m90.101 298.086c-7.701 0-14.194 5.74-15.139 13.383l-7.657 61.946c2.738 1.521 5.639 2.824 8.694 3.869 7.677 2.627 14.538 6.93 20.179 12.471.125-1.833.302-3.674.53-5.522l8.532-69.021c1.125-9.099-5.972-17.126-15.139-17.126z" fill="#dc543c"/><path d="m246.021 447.21c-.005-.043-.01-.087-.015-.13-.834-7.161-7.021-12.497-14.23-12.497h-1.646c-8.772 0-15.517 7.728-14.362 16.424.608 4.58.792 9.145 1.598 14.117 1.424 12.425-4.201 23.875-13.526 30.62h38.277c10.244-22.011 4.146-39.342 3.904-48.534z" fill="#fddcb4"/><path d="m217.366 465.123-1.655-14.439c-2.443-21.317-20.487-37.411-41.944-37.411-21.457 0-39.501 16.094-41.944 37.411l-1.655 14.439c-2.252 19.65 13.114 36.877 32.892 36.877h21.415c19.777 0 35.143-17.227 32.891-36.877z" fill="url(#SVGID_6_)"/></g></svg>