<svg id="Capa_1" enable-background="new 0 0 502 502" height="512" viewBox="0 0 502 502" width="512" xmlns="http://www.w3.org/2000/svg" xmlns:xlink="http://www.w3.org/1999/xlink"><linearGradient id="SVGID_1_" gradientUnits="userSpaceOnUse" x1="353.225" x2="481.856" y1="330.422" y2="330.422"><stop offset="0" stop-color="#f3c757"/><stop offset="1" stop-color="#f9e09d"/></linearGradient><linearGradient id="lg1"><stop offset="0" stop-color="#f9e09d"/><stop offset="1" stop-color="#f3c757"/></linearGradient><linearGradient id="SVGID_2_" gradientUnits="userSpaceOnUse" x1="20.144" x2="148.775" xlink:href="#lg1" y1="330.422" y2="330.422"/><linearGradient id="SVGID_3_" gradientUnits="userSpaceOnUse" x1="240.462" x2="240.462" y1="112.06" y2="0"><stop offset="0" stop-color="#f7496e"/><stop offset="1" stop-color="#fd869c"/></linearGradient><linearGradient id="SVGID_4_" gradientUnits="userSpaceOnUse" x1="251" x2="251" xlink:href="#lg1" y1="475.475" y2="83.304"/><linearGradient id="lg2"><stop offset="0" stop-color="#fdb58a"/><stop offset="1" stop-color="#fd8943"/></linearGradient><linearGradient id="SVGID_5_" gradientUnits="userSpaceOnUse" x1="251" x2="251" xlink:href="#lg2" y1="276.138" y2="240.63"/><linearGradient id="SVGID_6_" gradientUnits="userSpaceOnUse" x1="251" x2="251" xlink:href="#lg2" y1="247.42" y2="196.783"/><linearGradient id="SVGID_7_" gradientUnits="userSpaceOnUse" x1="199.514" x2="199.514" xlink:href="#lg2" y1="502" y2="432.134"/><linearGradient id="SVGID_8_" gradientUnits="userSpaceOnUse" x1="302.486" x2="302.486" xlink:href="#lg2" y1="502" y2="432.134"/><g><path d="m424.808 221.497c34.44 14.596 57.049 42.366 57.049 87.223 0 71.482-57.407 129.546-128.631 130.628z" fill="url(#SVGID_1_)"/><path d="m77.192 221.497c-34.44 14.596-57.049 42.366-57.049 87.223 0 71.482 57.407 129.546 128.631 130.628z" fill="url(#SVGID_2_)"/><path d="m85.786 323.807-8.593-102.31c-13.518 5.729-25.201 13.498-34.422 23.523-.435 5.488-.659 11.034-.659 16.632 0 21.335 3.297 44.496 9.471 67.958 2.02 7.678 8.919 13.061 16.858 13.061 10.187-.001 18.197-8.712 17.345-18.864z" fill="#f0bf3b"/><path d="m301.081 94.735 3.078-20.219c3.39-22.272-3.492-45.074-19.244-61.181-.358-.366-.717-.725-1.075-1.076-32.018-31.323-82.498 2.628-68.122 42.88-.971-.452-1.956-.881-2.966-1.264-.309-.117-.616-.23-.922-.339-28.182-9.995-49.001 26.257-26.165 45.561 5.815 4.916 14.286 9.466 26.495 12.963z" fill="url(#SVGID_3_)"/><path d="m251 83.304c-98.499 0-178.348 79.849-178.348 178.348 0 39.509 12.848 85.84 34.594 127.165 28.069 53.343 83.476 86.658 143.754 86.658 60.278 0 115.685-33.315 143.754-86.658 21.745-41.325 34.594-87.657 34.594-127.165 0-98.499-79.849-178.348-178.348-178.348z" fill="url(#SVGID_4_)"/><g><ellipse cx="146.372" cy="241.678" fill="#ffaecf" rx="17.782" ry="14.29"/><ellipse cx="355.628" cy="241.678" fill="#ffaecf" rx="17.782" ry="14.29"/><circle cx="176.857" cy="206.418" fill="#fff" r="35.26"/><circle cx="325.143" cy="206.418" fill="#fff" r="35.26"/><g fill="#383842"><path d="m165.212 217.406c-1.222 0-2.46-.299-3.606-.929-3.63-1.995-4.954-6.556-2.959-10.186 3.707-6.743 10.515-10.77 18.21-10.771 7.695 0 14.504 4.026 18.212 10.771 1.995 3.63.671 8.189-2.959 10.186-3.63 1.993-8.19.67-10.186-2.959-1.487-2.705-4.039-2.997-5.067-2.997-1.027.001-3.579.293-5.065 2.997-1.366 2.484-3.933 3.888-6.58 3.888z"/><path d="m336.789 217.406c-2.647.001-5.214-1.404-6.579-3.888-1.487-2.704-4.039-2.997-5.067-2.997-1.027 0-3.579.293-5.066 2.997-1.995 3.629-6.556 4.953-10.186 2.959-3.63-1.996-4.954-6.556-2.959-10.186 3.708-6.744 10.516-10.771 18.211-10.771 7.696 0 14.504 4.026 18.212 10.771 1.995 3.63.671 8.189-2.959 10.186-1.146.63-2.385.929-3.607.929z"/></g></g><path d="m285.053 240.629-.804 6.251c-2.138 16.726-16.38 29.258-33.249 29.258s-31.111-12.532-33.249-29.258l-.804-6.251z" fill="url(#SVGID_5_)"/><path d="m285.827 234.572-.774 6.057c-10.017 4.316-21.643 6.79-34.053 6.79s-24.036-2.474-34.053-6.79l-.774-6.057c-2.576-20.045 13.041-37.789 33.249-37.789h3.156c20.208 0 35.824 17.744 33.249 37.789z" fill="url(#SVGID_6_)"/><g><path d="m155.039 307.017c-4.047 1.186-6.366 5.427-5.181 9.474 3.81 13.005 15.938 22.088 29.495 22.088s25.686-9.083 29.495-22.088c1.185-4.047-1.135-8.288-5.182-9.473-4.045-1.186-8.288 1.135-9.473 5.182-1.916 6.541-8.018 11.11-14.84 11.11-6.821 0-12.924-4.569-14.84-11.11-1.185-4.047-5.425-6.367-9.474-5.183z" fill="#f0bf3b"/></g><g><path d="m226.686 353.561c-4.047 1.186-6.366 5.427-5.181 9.474 3.81 13.005 15.938 22.088 29.495 22.088s25.686-9.083 29.495-22.088c1.185-4.047-1.135-8.288-5.182-9.473-4.045-1.186-8.288 1.135-9.473 5.182-1.916 6.541-8.018 11.11-14.84 11.11-6.821 0-12.924-4.569-14.84-11.11-1.185-4.048-5.425-6.368-9.474-5.183z" fill="#f0bf3b"/></g><g><path d="m346.961 307.017c4.047 1.186 6.366 5.427 5.181 9.474-3.81 13.005-15.938 22.088-29.495 22.088s-25.686-9.083-29.495-22.088c-1.185-4.047 1.135-8.288 5.182-9.473 4.045-1.186 8.288 1.135 9.473 5.182 1.916 6.541 8.018 11.11 14.84 11.11 6.821 0 12.924-4.569 14.84-11.11 1.185-4.047 5.425-6.367 9.474-5.183z" fill="#f0bf3b"/></g><path d="m199.514 432.134c-24.784 0-44.875 20.091-44.875 44.875 0 13.802 11.189 24.99 24.99 24.99h39.77c13.802 0 24.99-11.189 24.99-24.99 0-24.784-20.091-44.875-44.875-44.875z" fill="url(#SVGID_7_)"/><path d="m302.486 432.134c24.784 0 44.875 20.091 44.875 44.875 0 13.802-11.189 24.99-24.99 24.99h-39.77c-13.802 0-24.99-11.189-24.99-24.99 0-24.784 20.091-44.875 44.875-44.875z" fill="url(#SVGID_8_)"/></g></svg>