<svg id="Capa_1" enable-background="new 0 0 502 502" height="512" viewBox="0 0 502 502" width="512" xmlns="http://www.w3.org/2000/svg" xmlns:xlink="http://www.w3.org/1999/xlink"><linearGradient id="lg1"><stop offset="0" stop-color="#b1e6ee"/><stop offset="1" stop-color="#3cc8db"/></linearGradient><linearGradient id="SVGID_1_" gradientUnits="userSpaceOnUse" x1="59.51" x2="126.254" xlink:href="#lg1" y1="51.619" y2="51.619"/><linearGradient id="lg2"><stop offset="0" stop-color="#dc8757"/><stop offset="1" stop-color="#efc4ab"/></linearGradient><linearGradient id="SVGID_2_" gradientUnits="userSpaceOnUse" x1="251" x2="251" xlink:href="#lg2" y1="274.71" y2="26.503"/><linearGradient id="SVGID_3_" gradientUnits="userSpaceOnUse" x1="251" x2="251" xlink:href="#lg2" y1="418.975" y2="209.857"/><linearGradient id="SVGID_4_" gradientUnits="userSpaceOnUse" x1="23.588" x2="98.474" xlink:href="#lg1" y1="73.61" y2="73.61"/><linearGradient id="SVGID_5_" gradientUnits="userSpaceOnUse" x1="251" x2="251" xlink:href="#lg2" y1="488.681" y2="349.269"/><linearGradient id="lg3"><stop offset="0" stop-color="#3cc8db"/><stop offset="1" stop-color="#b1e6ee"/></linearGradient><linearGradient id="SVGID_6_" gradientUnits="userSpaceOnUse" x1="400.235" x2="468.721" xlink:href="#lg3" y1="318.119" y2="318.119"/><linearGradient id="SVGID_7_" gradientUnits="userSpaceOnUse" x1="416.841" x2="493.801" xlink:href="#lg3" y1="351.389" y2="351.389"/><linearGradient id="SVGID_8_" gradientUnits="userSpaceOnUse" x1="86.072" x2="116.96" y1="122.81" y2="69.311"><stop offset="0" stop-color="#77718a"/><stop offset="1" stop-color="#4f4c5f"/></linearGradient><linearGradient id="SVGID_9_" gradientUnits="userSpaceOnUse" x1="395.331" x2="426.219" y1="384.969" y2="331.47"><stop offset="0" stop-color="#4f4c5f"/><stop offset="1" stop-color="#77718a"/></linearGradient><g><path d="m125.437 39.839c3.754 18.01-5.666 45.9-23.676 49.654s-37.789-18.049-41.543-36.058c-3.754-18.01 7.802-35.653 25.812-39.408s35.653 7.802 39.407 25.812z" fill="url(#SVGID_1_)"/><path d="m407.252 138.229c-.795-50.439-32.749-93.305-77.454-110.188-11.721-4.427-24.707 1.005-29.953 12.383-.082.178-.164.355-.247.532-8.516 18.116-26.949 29.489-46.967 29.489h-62.601-24.552c-38.576 0-70.618 30.892-70.75 69.468-.066 19.345 7.755 36.866 20.421 49.532 12.613 12.613 30.04 20.411 49.289 20.411l86.562 64.854 86.563-64.855c37.849 0 68.664-30.166 69.69-67.774.01-.638.021-1.277.021-1.926z" fill="url(#SVGID_2_)"/><path d="m117.069 209.857c-38.498 0-69.706 31.208-69.706 69.706 0 38.498 31.208 69.706 69.706 69.706l133.931 69.706 133.931-69.706c38.498 0 69.706-31.208 69.706-69.706 0-38.497-31.208-69.706-69.706-69.706z" fill="url(#SVGID_3_)"/><g><ellipse cx="140.886" cy="307.73" fill="#f7496e" rx="18.714" ry="15.039"/><ellipse cx="361.114" cy="307.73" fill="#f7496e" rx="18.714" ry="15.039"/><circle cx="172.969" cy="270.621" fill="#fff" r="37.109"/><ellipse cx="187.961" cy="270.621" fill="#383842" rx="22.117" ry="22.117" transform="matrix(.23 -.973 .973 .23 -118.605 391.378)"/><circle cx="329.031" cy="270.621" fill="#fff" r="37.109"/><g fill="#383842"><ellipse cx="343.945" cy="270.621" rx="22.117" ry="22.117" transform="matrix(.707 -.707 .707 .707 -90.619 322.469)"/><ellipse cx="251" cy="298.752" rx="16.604" ry="21.741"/></g></g><path d="m71.222 43.001c16.612 7.906 33.12 32.28 25.214 48.891s-37.233 19.171-53.844 11.265-23.669-27.782-15.763-44.394 27.781-23.668 44.393-15.762z" fill="url(#SVGID_4_)"/><g><path d="m373.181 133.199c-4.683 0-8.946-3.165-10.142-7.912-2.114-8.393-5.562-16.292-10.247-23.477-3.157-4.843-1.791-11.327 3.051-14.485 4.844-3.159 11.328-1.79 14.485 3.051 5.952 9.129 10.329 19.153 13.011 29.796 1.412 5.606-1.987 11.295-7.593 12.707-.858.216-1.718.32-2.565.32z" fill="#f3d3c2"/></g><g><path d="m338.852 78.657c-2.107 0-4.234-.634-6.078-1.953-2.393-1.71-4.907-3.3-7.475-4.725-5.055-2.805-6.878-9.177-4.072-14.232 2.804-5.056 9.177-6.877 14.231-4.072 3.261 1.81 6.454 3.828 9.491 6 4.703 3.362 5.79 9.899 2.428 14.602-2.045 2.856-5.26 4.38-8.525 4.38z" fill="#f3d3c2"/></g><path d="m138.393 114.883c-4.905-4.905-11.848-7.187-18.707-6.149l-18.719 2.833c-3.971 8.64-6.205 18.227-6.24 28.346-.022 6.324.814 12.447 2.372 18.276 1.459.103 2.932.155 4.417.155 12.116 0 23.432-3.48 33.005-9.492 11.895-7.471 13.803-24.037 3.872-33.969z" fill="#dc8757"/><path d="m432.294 349.269h-362.588c-38.498 0-69.706 31.208-69.706 69.706 0 38.498 31.208 69.706 69.706 69.706h362.588c38.498 0 69.706-31.208 69.706-69.706 0-38.498-31.208-69.706-69.706-69.706z" fill="url(#SVGID_5_)"/><path d="m10.541 382.128h163.167c9.074 0 16.43-7.356 16.43-16.43 0-9.074-7.356-16.43-16.43-16.43h-104.002c-24.966.001-46.853 13.134-59.165 32.86z" fill="#dc8757"/><path d="m406.912 297.243c-9.53 15.736-9.922 45.172 5.815 54.702s41.641-4.454 51.171-20.19 4.499-36.218-11.237-45.749c-15.736-9.53-36.218-4.499-45.749 11.237z" fill="url(#SVGID_6_)"/><path d="m456.991 318.255c-18.295 1.931-41.97 19.427-40.039 37.723 1.931 18.295 28.738 30.462 47.033 28.53 18.295-1.931 31.561-18.329 29.629-36.624-1.931-18.295-18.328-31.56-36.623-29.629z" fill="url(#SVGID_7_)"/><circle cx="101.516" cy="96.06" fill="url(#SVGID_8_)" r="30.882"/><circle cx="410.775" cy="358.219" fill="url(#SVGID_9_)" r="30.882"/></g></svg>