<svg id="Capa_1" enable-background="new 0 0 502 502" height="512" viewBox="0 0 502 502" width="512" xmlns="http://www.w3.org/2000/svg" xmlns:xlink="http://www.w3.org/1999/xlink"><linearGradient id="SVGID_1_" gradientUnits="userSpaceOnUse" x1="251" x2="359.174" y1="396.983" y2="396.983"><stop offset="0" stop-color="#fd869c"/><stop offset="1" stop-color="#f7496e"/></linearGradient><linearGradient id="SVGID_2_" gradientUnits="userSpaceOnUse" x1="142.826" x2="251" y1="397.206" y2="397.206"><stop offset="0" stop-color="#3cc8db"/><stop offset="1" stop-color="#b1e6ee"/></linearGradient><linearGradient id="SVGID_3_" gradientUnits="userSpaceOnUse" x1="251" x2="251" y1="454.552" y2="264.184"><stop offset="0" stop-color="#fff5e3"/><stop offset="1" stop-color="#fbe7b4"/></linearGradient><linearGradient id="SVGID_4_" gradientUnits="userSpaceOnUse" x1="251" x2="251" y1="361.763" y2="0"><stop offset="0" stop-color="#f3c757"/><stop offset="1" stop-color="#f9e09d"/></linearGradient><g><path d="m359.174 292.412v181.908c0 20.591-22.002 33.719-40.125 23.927l-29.208-15.783-38.841-76.07 38.841-113.983h69.333z" fill="url(#SVGID_1_)"/><path d="m212.158 292.412 38.842 113.982-38.842 76.385c-9.476 5.172-19.633 10.71-29.178 15.892-18.113 9.831-40.154-3.297-40.154-23.907v-182.352z" fill="url(#SVGID_2_)"/><path d="m289.841 292.412v190.052l-15.388-8.311c-14.609-7.897-32.218-7.847-46.778.128-4.777 2.626-10.029 5.498-15.517 8.499v-190.368z" fill="url(#SVGID_3_)"/><path d="m212.158 292.412h-69.332v67.409c8.346 3.345 17.441 5.186 26.946 5.186 4.988 0 10.01-.522 14.886-1.545l.13-.027c.891-.187 1.801-.281 2.705-.281 3.713 0 7.271 1.579 9.739 4.304l.1.111c4.391 4.85 9.395 9.018 14.827 12.465v-87.622z" fill="#00c6dc"/><path d="m248.421 357.159-36.263-64.747v87.638c3.451 2.193 7.079 4.089 10.841 5.669 13.303 5.589 28.001-4.249 28.001-18.678 0-3.461-.888-6.863-2.579-9.882z" fill="#fddcb4"/><path d="m419.4 202.215-.001-.001c-7.597-13.207-7.597-29.457 0-42.664l.001-.001c12.635-21.966 3.515-50.04-19.618-60.386-13.899-6.217-23.447-19.352-25.071-34.492l-.007-.069c-2.7-25.171-26.545-42.506-51.321-37.309l-.092.019c-14.879 3.121-30.296-1.888-40.499-13.158l-.075-.083c-16.983-18.759-46.449-18.759-63.432 0l-.076.083c-10.203 11.27-25.62 16.279-40.499 13.158l-.092-.019c-24.776-5.197-48.622 12.138-51.321 37.309l-.007.069c-1.624 15.14-11.172 28.275-25.071 34.492-23.133 10.346-32.253 38.42-19.617 60.386l.001.001c7.597 13.207 7.597 29.457 0 42.664l-.001.001c-12.635 21.966-3.515 50.04 19.618 60.386 13.899 6.217 23.447 19.352 25.071 34.492l.007.069c2.7 25.171 26.545 42.506 51.321 37.309l.093-.019c14.879-3.121 30.296 1.888 40.499 13.158l.075.083c16.983 18.759 46.449 18.759 63.432 0l.076-.083c10.203-11.27 25.62-16.279 40.499-13.158l.092.019c24.776 5.197 48.622-12.138 51.321-37.309l.007-.069c1.624-15.139 11.172-28.275 25.071-34.492 23.131-10.346 32.251-38.42 19.616-60.386z" fill="url(#SVGID_4_)"/><g><path d="m386.7 138.042c-1.349 0-2.718-.278-4.028-.865-10.532-4.716-20.178-11.802-27.897-20.492-3.621-4.076-3.251-10.315.825-13.935s10.316-3.251 13.935.825c5.874 6.614 13.207 12.003 21.205 15.585 4.976 2.228 7.203 8.068 4.975 13.043-1.642 3.665-5.243 5.839-9.015 5.839z" fill="#fff5e3"/></g><g><path d="m346.738 86.415c-4.484 0-8.542-3.076-9.604-7.632-.76-3.255-1.327-6.61-1.688-9.971-.582-5.42 3.34-10.286 8.76-10.868 5.402-.585 10.286 3.34 10.868 8.761.275 2.564.708 5.119 1.284 7.595 1.239 5.309-2.062 10.616-7.37 11.855-.754.176-1.508.26-2.25.26z" fill="#fff5e3"/></g><g fill="#f0bf3b"><ellipse cx="168.59" cy="170.074" rx="18.562" ry="24.82" transform="matrix(.801 -.599 .599 .801 -68.279 134.848)"/><path d="m251 267.752c22.877 0 43.119 2.824 58.95 6.12 18.475 3.846 35.681-11.097 35.681-31.12v-.329c0-13.6-8.19-25.562-20.259-30.051-27.513-10.233-30.681-40.606-74.371-40.606s-46.858 30.373-74.371 40.606c-12.069 4.489-20.259 16.451-20.259 30.051v.329c0 20.024 17.206 34.966 35.681 31.12 15.829-3.295 36.071-6.12 58.948-6.12z"/><ellipse cx="283.23" cy="131.729" rx="24.82" ry="18.562" transform="matrix(.148 -.989 .989 .148 111 392.322)"/><ellipse cx="218.77" cy="131.729" rx="18.562" ry="24.82" transform="matrix(.989 -.148 .148 .989 -17.099 33.859)"/><ellipse cx="333.41" cy="170.074" rx="24.82" ry="18.562" transform="matrix(.599 -.801 .801 .599 -2.472 335.213)"/></g></g></svg>