<svg id="Capa_1" enable-background="new 0 0 502 502" height="512" viewBox="0 0 502 502" width="512" xmlns="http://www.w3.org/2000/svg" xmlns:xlink="http://www.w3.org/1999/xlink"><linearGradient id="lg1"><stop offset="0" stop-color="#f3c757"/><stop offset="1" stop-color="#f9e09d"/></linearGradient><linearGradient id="SVGID_1_" gradientUnits="userSpaceOnUse" x1="251" x2="251" xlink:href="#lg1" y1="112.188" y2="0"/><linearGradient id="SVGID_2_" gradientUnits="userSpaceOnUse" x1="307.827" x2="307.827" xlink:href="#lg1" y1="425.653" y2="186.26"/><linearGradient id="SVGID_3_" gradientUnits="userSpaceOnUse" x1="194.174" x2="194.174" xlink:href="#lg1" y1="425.653" y2="186.26"/><linearGradient id="SVGID_4_" gradientUnits="userSpaceOnUse" x1="80.517" x2="80.517" xlink:href="#lg1" y1="425.653" y2="182.237"/><linearGradient id="SVGID_5_" gradientUnits="userSpaceOnUse" x1="421.483" x2="421.483" xlink:href="#lg1" y1="425.653" y2="182.237"/><linearGradient id="SVGID_6_" gradientUnits="userSpaceOnUse" x1="251" x2="251" xlink:href="#lg1" y1="194.62" y2="67.061"/><linearGradient id="SVGID_7_" gradientUnits="userSpaceOnUse" x1="251" x2="251" xlink:href="#lg1" y1="502" y2="413.571"/><g><path d="m251 0c-30.98 0-56.094 25.114-56.094 56.094s25.114 56.094 56.094 56.094 56.094-25.114 56.094-56.094-25.114-56.094-56.094-56.094zm0 77.295c-11.69 0-21.201-9.511-21.201-21.201s9.511-21.2 21.201-21.2 21.2 9.511 21.2 21.2c0 11.69-9.51 21.201-21.2 21.201z" fill="url(#SVGID_1_)"/><path d="m251 112.188c30.98 0 56.094-25.114 56.094-56.094 0-4.583-.562-9.032-1.599-13.296-14.487-3.045-29.42-4.905-44.65-5.464 6.742 3.553 11.355 10.623 11.355 18.76 0 11.69-9.51 21.201-21.2 21.201s-21.201-9.511-21.201-21.201c0-8.136 4.613-15.207 11.356-18.76-15.23.56-30.163 2.419-44.65 5.464-1.037 4.264-1.599 8.713-1.599 13.296 0 30.98 25.114 56.094 56.094 56.094z" fill="#f0bf3b"/><path d="m279.413 186.26h56.827v239.393h-56.827z" fill="url(#SVGID_2_)"/><path d="m165.76 186.26h56.827v239.393h-56.827z" fill="url(#SVGID_3_)"/><path d="m108.931 194.62v218.951l-28.414 12.082-28.413-12.082v-218.951l31.473-12.383z" fill="url(#SVGID_4_)"/><path d="m449.896 194.62v218.951l-28.413 12.082-28.414-12.082v-218.951l28.414-12.383z" fill="url(#SVGID_5_)"/><g fill="#f0bf3b"><path d="m279.413 186.26h56.827v38.269h-56.827z"/><path d="m165.76 186.26h56.827v38.269h-56.827z"/><path d="m52.104 224.528h56.827v-29.908l-25.354-12.383-31.473 12.383z"/><path d="m449.896 224.528v-29.908l-28.413-12.383-28.414 12.383v29.908z"/></g><path d="m449.896 194.62c-27.657-74.103-106.249-127.559-198.896-127.559-92.647 0-171.239 53.456-198.896 127.559z" fill="url(#SVGID_6_)"/><g><ellipse cx="161.203" cy="164.395" fill="#f7496e" rx="15.261" ry="12.265"/><ellipse cx="340.797" cy="164.395" fill="#f7496e" rx="15.261" ry="12.265"/><circle cx="187.367" cy="134.133" fill="#fff" r="30.262"/><circle cx="314.633" cy="134.133" fill="#fff" r="30.262"/><g fill="#383842"><g><circle cx="187.367" cy="134.133" r="18.036"/><circle cx="314.633" cy="134.133" r="18.036"/></g><path d="m251 165.248c-5.335 0-10.671-2.018-15.023-6.053-2.025-1.878-2.145-5.041-.267-7.066s5.042-2.144 7.066-.268c4.843 4.49 11.606 4.49 16.449 0 2.025-1.875 5.188-1.757 7.066.268 1.877 2.025 1.758 5.188-.267 7.066-4.353 4.035-9.689 6.053-15.024 6.053z"/></g></g><path d="m52.104 413.571v28.105c0 33.316 27.008 60.324 60.324 60.324h277.144c33.316 0 60.324-27.008 60.324-60.324v-28.105z" fill="url(#SVGID_7_)"/></g></svg>