<svg id="Capa_1" enable-background="new 0 0 502 502" height="512" viewBox="0 0 502 502" width="512" xmlns="http://www.w3.org/2000/svg" xmlns:xlink="http://www.w3.org/1999/xlink"><linearGradient id="SVGID_1_" gradientUnits="userSpaceOnUse" x1="72.644" x2="16.112" y1="250.525" y2="193.993"><stop offset="0" stop-color="#3cc8db"/><stop offset="1" stop-color="#b1e6ee"/></linearGradient><linearGradient id="lg1"><stop offset="0" stop-color="#fd869c"/><stop offset="1" stop-color="#fdb0bf"/></linearGradient><linearGradient id="SVGID_2_" gradientUnits="userSpaceOnUse" x1="68.636" x2="267.221" xlink:href="#lg1" y1="457.922" y2="113.962"/><linearGradient id="SVGID_3_" gradientUnits="userSpaceOnUse" x1="320.172" x2="320.172" y1="380.703" y2="17.047"><stop offset="0" stop-color="#4f4c5f"/><stop offset="1" stop-color="#77718a"/></linearGradient><linearGradient id="SVGID_4_" gradientUnits="userSpaceOnUse" x1="198.686" x2="441.659" xlink:href="#lg1" y1="198.875" y2="198.875"/><g><path d="m36.211 286.958h-6.033c-18.022 0-32.032-15.691-29.978-33.596 2.684-23.395 11.818-55.275 40.28-83.737 11.782-11.782 30.884-11.782 42.665 0l4.566 4.566z" fill="url(#SVGID_1_)"/><path d="m191.599 70.302-125.221 125.221c-20.341 20.341-31.403 48.171-30.582 76.932 3.653 126.81 3.148 109.256 3.196 110.948 1.621 56.554 47.934 101.55 104.51 101.55 45.368 0 85.297-29.254 99.419-72.174 7.777-23.641 21.325-47.312 44.834-60.949zm-23.229 317.93c-3.556 10.799-13.442 18.244-24.867 18.243-14.207.001-25.655-11.124-26.063-25.325l-3.188-110.948c-.205-7.142 2.574-14.135 7.626-19.186l36.159-36.159 39.421 115.42c-12.15 16.712-21.896 36.112-29.088 57.955z" fill="url(#SVGID_2_)"/><path d="m196.278 331.943c-6.049 8.52-11.488 17.718-16.292 27.57 20.479 17.892 43.583 31.217 67.98 39.956 4.224-9.74 9.606-19.144 16.43-27.495-24.687-7.932-48.007-21.282-68.118-40.031z" fill="#fd748d"/><circle cx="320.172" cy="198.875" fill="url(#SVGID_3_)" r="181.828"/><circle cx="320.172" cy="198.875" fill="url(#SVGID_4_)" r="121.486"/><g><ellipse cx="272.616" cy="281.38" fill="#f7496e" rx="15.63" ry="12.561" transform="matrix(.707 -.707 .707 .707 -119.118 275.183)"/><ellipse cx="402.677" cy="151.319" fill="#f7496e" rx="15.63" ry="12.561" transform="matrix(.707 -.707 .707 .707 10.943 329.056)"/><circle cx="269.648" cy="240.517" fill="#fff" r="30.993"/><circle cx="361.814" cy="148.351" fill="#fff" r="30.993"/><g fill="#383842"><g><ellipse cx="269.648" cy="240.517" rx="18.472" ry="18.472" transform="matrix(.707 -.707 .707 .707 -91.093 261.116)"/><ellipse cx="361.814" cy="148.351" rx="18.472" ry="18.472" transform="matrix(.707 -.707 .707 .707 1.073 299.292)"/></g><path d="m322.805 223.346c-2.675 0-4.892-2.116-4.993-4.812-.104-2.76 2.048-5.081 4.808-5.185 6.824-.258 11.771-5.203 12.028-12.027.104-2.76 2.444-4.926 5.185-4.808 2.76.104 4.912 2.426 4.808 5.185-.456 12.085-9.56 21.188-21.644 21.643-.065.003-.129.004-.192.004z"/></g></g></g></svg>