<svg id="Capa_1" enable-background="new 0 0 502 502" height="512" viewBox="0 0 502 502" width="512" xmlns="http://www.w3.org/2000/svg" xmlns:xlink="http://www.w3.org/1999/xlink"><linearGradient id="lg1"><stop offset="0" stop-color="#3cc8db"/><stop offset="1" stop-color="#b1e6ee"/></linearGradient><linearGradient id="SVGID_1_" gradientUnits="userSpaceOnUse" x1="93.81" x2="408.19" xlink:href="#lg1" y1="422.34" y2="422.34"/><linearGradient id="lg2"><stop offset=".0212" stop-color="#fbc6b9"/><stop offset="1" stop-color="#fbd8ca"/></linearGradient><linearGradient id="SVGID_2_" gradientUnits="userSpaceOnUse" x1="123.97" x2="123.97" xlink:href="#lg2" y1="502" y2="436.561"/><linearGradient id="lg3"><stop offset="0" stop-color="#fbd8ca"/><stop offset=".9788" stop-color="#fbc6b9"/></linearGradient><linearGradient id="SVGID_3_" gradientUnits="userSpaceOnUse" x1="378.03" x2="378.03" xlink:href="#lg3" y1="502" y2="436.561"/><linearGradient id="SVGID_4_" gradientUnits="userSpaceOnUse" x1="251" x2="251" xlink:href="#lg3" y1="417.406" y2="333.309"/><linearGradient id="SVGID_5_" gradientUnits="userSpaceOnUse" x1="251" x2="251" y1="206.294" y2="0"><stop offset="0" stop-color="#dc543c"/><stop offset="1" stop-color="#eb9981"/></linearGradient><linearGradient id="SVGID_6_" gradientUnits="userSpaceOnUse" x1="85.043" x2="85.043" xlink:href="#lg2" y1="251.309" y2="161.279"/><linearGradient id="SVGID_7_" gradientUnits="userSpaceOnUse" x1="416.957" x2="416.957" xlink:href="#lg2" y1="251.309" y2="161.279"/><linearGradient id="SVGID_8_" gradientUnits="userSpaceOnUse" x1="251" x2="251" xlink:href="#lg3" y1="362.943" y2="101.735"/><linearGradient id="SVGID_9_" gradientUnits="userSpaceOnUse" x1="251" x2="251" y1="128.895" y2="74.574"><stop offset="0" stop-color="#4f4c5f"/><stop offset="1" stop-color="#77718a"/></linearGradient><linearGradient id="SVGID_10_" gradientUnits="userSpaceOnUse" x1="251" x2="251" xlink:href="#lg1" y1="167.78" y2="35.689"/><linearGradient id="SVGID_11_" gradientUnits="userSpaceOnUse" x1="251" x2="251" y1="134.607" y2="68.862"><stop offset="0" stop-color="#77718a"/><stop offset="1" stop-color="#4f4c5f"/></linearGradient><g><path d="m339.1 502h-176.2l-69.09-65.439c20.603-70.6 70.341-93.881 70.341-93.881h173.697s49.738 23.282 70.341 93.881z" fill="url(#SVGID_1_)"/><path d="m162.9 436.561v65.439h-77.86c0-25.329 3.392-46.998 8.771-65.439z" fill="url(#SVGID_2_)"/><path d="m416.96 502h-77.86v-65.439h69.09c5.378 18.441 8.77 40.11 8.77 65.439z" fill="url(#SVGID_3_)"/><path d="m168.779 333.309 62.189 74.708c10.421 12.519 29.643 12.519 40.064 0l62.189-74.708z" fill="url(#SVGID_4_)"/><path d="m217.262 391.552c11.01 1.598 22.284 2.419 33.738 2.419 11.453 0 22.727-.821 33.738-2.419l40.682-48.872h-148.84z" fill="#ffbe9c"/><g fill="#00c6dc"><path d="m284.738 391.552c29.189-4.237 56.514-13.973 80.335-28.618-14.911-14.487-27.224-20.254-27.224-20.254h-12.429z"/><path d="m194.507 364.215-17.927-21.535h-12.429s-12.314 5.767-27.225 20.254c23.821 14.645 51.146 24.381 80.335 28.618z"/></g><path d="m44.706 206.294c0-113.751 92.543-206.294 206.294-206.294s206.294 92.543 206.294 206.294z" fill="url(#SVGID_5_)"/><circle cx="85.043" cy="206.294" fill="url(#SVGID_6_)" r="45.015"/><circle cx="416.957" cy="206.294" fill="url(#SVGID_7_)" r="45.015"/><path d="m116.836 101.734c-22.512 28.845-35.93 65.134-35.93 104.559 0 93.941 76.154 156.649 170.094 156.649s170.094-62.708 170.094-156.649c0-39.425-13.418-75.714-35.93-104.559z" fill="url(#SVGID_8_)"/><g><ellipse cx="139.349" cy="239.729" fill="#ffaecf" rx="18.975" ry="15.249"/><ellipse cx="362.651" cy="239.729" fill="#ffaecf" rx="18.975" ry="15.249"/><circle cx="171.88" cy="202.103" fill="#fff" r="37.627"/><circle cx="330.12" cy="202.103" fill="#fff" r="37.627"/><g fill="#383842"><g><circle cx="171.88" cy="202.103" r="22.426"/><circle cx="330.12" cy="202.103" r="22.426"/></g><path d="m251 239.564c-6.34 0-12.681-2.397-17.853-7.192-2.025-1.878-2.145-5.041-.268-7.066 1.879-2.025 5.041-2.144 7.066-.268 6.508 6.033 15.6 6.033 22.107 0 2.023-1.875 5.189-1.757 7.066.268s1.758 5.188-.268 7.066c-5.169 4.795-11.51 7.192-17.85 7.192z"/></g></g><path d="m439.164 105.412c-4.527-8.409-9.602-16.482-15.175-24.171-3.02-4.166-7.825-6.667-12.97-6.667h-320.038c-5.145 0-9.95 2.501-12.97 6.667-5.573 7.689-10.648 15.763-15.175 24.171-5.712 10.612 2 23.482 14.052 23.482h348.225c12.051.001 19.763-12.87 14.051-23.482z" fill="url(#SVGID_9_)"/><circle cx="251" cy="101.734" fill="url(#SVGID_10_)" r="66.045"/><circle cx="251" cy="101.734" fill="url(#SVGID_11_)" r="32.872"/><path d="m169.512 114.012c8.36 0 15.163-6.626 15.498-14.979.339-8.452 2.301-16.736 5.791-24.459h-33.003c-2.263 7.753-3.496 15.605-3.799 23.355-.342 8.785 6.722 16.083 15.513 16.083z" fill="#4a4a5a"/></g></svg>