<svg id="Capa_1" enable-background="new 0 0 502 502" height="512" viewBox="0 0 502 502" width="512" xmlns="http://www.w3.org/2000/svg" xmlns:xlink="http://www.w3.org/1999/xlink"><linearGradient id="SVGID_1_" gradientUnits="userSpaceOnUse" x1="346.508" x2="489.681" y1="148.377" y2="5.204"><stop offset="0" stop-color="#4f4c5f"/><stop offset="1" stop-color="#77718a"/></linearGradient><linearGradient id="lg1"><stop offset="0" stop-color="#3cc8db"/><stop offset="1" stop-color="#b1e6ee"/></linearGradient><linearGradient id="SVGID_2_" gradientUnits="userSpaceOnUse" x1="346.508" x2="380.506" xlink:href="#lg1" y1="148.377" y2="114.378"/><linearGradient id="SVGID_3_" gradientUnits="userSpaceOnUse" x1="247.054" x2="247.054" xlink:href="#lg1" y1="393.209" y2="102.452"/><linearGradient id="SVGID_4_" gradientUnits="userSpaceOnUse" x1="78.523" x2="146.624" y1="416.362" y2="348.26"><stop offset="0" stop-color="#b1e6ee"/><stop offset="1" stop-color="#3cc8db"/></linearGradient><linearGradient id="lg2"><stop offset="0" stop-color="#f7496e"/><stop offset="1" stop-color="#fd869c"/></linearGradient><linearGradient id="SVGID_5_" gradientUnits="userSpaceOnUse" x1="373.441" x2="373.441" xlink:href="#lg2" y1="481.788" y2="224.669"/><linearGradient id="lg3"><stop offset="0" stop-color="#f3c757"/><stop offset="1" stop-color="#f9e09d"/></linearGradient><linearGradient id="SVGID_6_" gradientUnits="userSpaceOnUse" x1="313.723" x2="313.723" xlink:href="#lg3" y1="354.75" y2="321.738"/><linearGradient id="SVGID_7_" gradientUnits="userSpaceOnUse" x1="373.441" x2="373.441" xlink:href="#lg3" y1="413.9" y2="339.47"/><linearGradient id="SVGID_8_" gradientUnits="userSpaceOnUse" x1="396.796" x2="396.796" xlink:href="#lg3" y1="328.357" y2="292.557"/><linearGradient id="SVGID_9_" gradientUnits="userSpaceOnUse" x1="350.085" x2="350.085" xlink:href="#lg3" y1="328.357" y2="292.557"/><linearGradient id="SVGID_10_" gradientUnits="userSpaceOnUse" x1="433.159" x2="433.159" xlink:href="#lg3" y1="354.75" y2="321.738"/><linearGradient id="SVGID_11_" gradientUnits="userSpaceOnUse" x1="122.539" x2="170.709" xlink:href="#lg2" y1="372.346" y2="324.175"/><linearGradient id="SVGID_12_" gradientUnits="userSpaceOnUse" x1="42.151" x2="85.33" y1="452.734" y2="409.555"><stop offset="0" stop-color="#fd869c"/><stop offset="1" stop-color="#f7496e"/></linearGradient><g><path d="m486.575 7.14c-16.173 1.051-31.412 7.951-42.872 19.411l-109.51 109.51 24.63 24.63 135.793-135.792c6.795-6.795 1.548-18.382-8.041-17.759z" fill="url(#SVGID_1_)"/><path d="m388.582 122.454-16.151-16.151c-7.848-7.848-20.572-7.848-28.419 0l-19.789 19.789 44.571 44.571 19.789-19.789c7.846-7.849 7.846-20.572-.001-28.42z" fill="url(#SVGID_2_)"/><path d="m377.841 161.614-44.571-44.571c-19.455-19.455-50.997-19.455-70.452 0l-8.767 8.767-1.821 8.7-8.7 1.821-16.351 16.351-1.821 8.7-8.7 1.821-16.351 16.351-1.821 8.7-8.7 1.821-16.351 16.351-1.821 8.7-8.7 1.821-16.351 16.351-1.821 8.7-8.7 1.821-34.372 34.372 115.023 115.023 161.143-161.143c19.46-19.459 19.46-51.002.005-70.457z" fill="url(#SVGID_3_)"/><g><path d="m254.051 125.811 23.794 23.794c2.905 2.905 2.905 7.615 0 10.521-2.905 2.905-7.615 2.905-10.521 0l-23.794-23.794z" fill="#00c6dc"/></g><g><path d="m227.18 152.681 23.794 23.794c2.905 2.905 2.905 7.615 0 10.521-2.905 2.905-7.615 2.905-10.521 0l-23.794-23.794z" fill="#00c6dc"/></g><g><path d="m200.31 179.552 23.794 23.794c2.905 2.905 2.905 7.615 0 10.521-2.905 2.905-7.615 2.905-10.521 0l-23.794-23.794z" fill="#00c6dc"/></g><g><path d="m173.439 206.422 23.794 23.794c2.905 2.905 2.905 7.615 0 10.521-2.905 2.905-7.615 2.905-10.521 0l-23.794-23.794z" fill="#00c6dc"/></g><g><path d="m146.568 233.294 23.794 23.794c2.905 2.905 2.905 7.615 0 10.521-2.905 2.905-7.615 2.905-10.521 0l-23.794-23.794z" fill="#00c6dc"/></g><path d="m168.909 370.546-44.57-44.571-68.102 68.101 44.571 44.571z" fill="url(#SVGID_4_)"/><path d="m94.692 338.255h60.843v63.032h-60.843z" fill="#00c6dc" transform="matrix(.707 -.707 .707 .707 -224.823 196.772)"/><circle cx="373.441" cy="353.229" fill="url(#SVGID_5_)" r="128.559"/><g><path d="m324.494 330.188c-5.949-7.955-15.595-10.796-21.544-6.347s-5.949 14.505 0 22.459c5.949 7.955 15.595 10.796 21.544 6.347 5.95-4.449 5.95-14.504 0-22.459z" fill="url(#SVGID_6_)"/><path d="m373.441 409.026c16.578 0 31.246 2.047 42.718 4.435 13.388 2.787 25.856-8.041 25.856-22.551v-.238c0-9.855-5.935-18.523-14.681-21.776-19.937-7.416-22.233-29.425-53.893-29.425s-33.956 22.009-53.893 29.425c-8.746 3.253-14.681 11.921-14.681 21.776v.238c0 14.51 12.468 25.338 25.856 22.551 11.471-2.388 26.14-4.435 42.718-4.435z" fill="url(#SVGID_7_)"/><path d="m383.494 308.465c-1.471 9.824 3.292 18.679 10.639 19.78 7.347 1.1 14.496-5.971 15.967-15.795s-3.292-18.679-10.639-19.78c-7.347-1.1-14.496 5.971-15.967 15.795z" fill="url(#SVGID_8_)"/><path d="m363.388 308.465c1.471 9.824-3.292 18.679-10.639 19.78-7.347 1.1-14.496-5.971-15.967-15.795s3.292-18.679 10.639-19.78c7.347-1.1 14.495 5.971 15.967 15.795z" fill="url(#SVGID_9_)"/><path d="m422.387 330.188c5.949-7.955 15.595-10.796 21.544-6.347s5.949 14.505 0 22.459c-5.949 7.955-15.595 10.796-21.544 6.347s-5.949-14.504 0-22.459z" fill="url(#SVGID_10_)"/></g><path d="m265.951 282.646c6.008-9.151.631-21.431-10.205-22.991l-.018-.003c-5.739-.826-11.409 1.779-14.588 6.627-22.815 34.788-30.94 77.309-22.964 117.794.39 1.977 1.17 3.804 2.25 5.407l24.945-24.945c-2.494-28.577 4.601-57.552 20.58-81.889z" fill="#00c6dc"/><path d="m215.862 369.327-90.305-90.305c-17.136-17.135-44.917-17.135-62.053 0-9.468 9.469-9.468 24.82 0 34.288l118.07 118.07c9.468 9.468 24.819 9.468 34.288 0 17.135-17.135 17.135-44.917 0-62.053z" fill="url(#SVGID_11_)"/><path d="m108.26 432.485-45.86-45.86c-15.503-15.503-40.638-15.503-56.141 0-8.344 8.344-8.344 21.872 0 30.216l71.785 71.785c8.344 8.344 21.872 8.344 30.216 0 15.503-15.503 15.503-40.638 0-56.141z" fill="url(#SVGID_12_)"/></g></svg>