<svg id="Capa_1" enable-background="new 0 0 502 502" height="512" viewBox="0 0 502 502" width="512" xmlns="http://www.w3.org/2000/svg" xmlns:xlink="http://www.w3.org/1999/xlink"><linearGradient id="lg1"><stop offset="0" stop-color="#fdb0bf"/><stop offset="1" stop-color="#fd869c"/></linearGradient><linearGradient id="SVGID_1_" gradientUnits="userSpaceOnUse" x1="251" x2="251" xlink:href="#lg1" y1="516.016" y2="409.353"/><linearGradient id="SVGID_2_" gradientUnits="userSpaceOnUse" x1="251" x2="251" xlink:href="#lg1" y1="453.807" y2="313.411"/><linearGradient id="lg2"><stop offset="0" stop-color="#7ecc5c"/><stop offset="1" stop-color="#b8e2a5"/></linearGradient><linearGradient id="SVGID_3_" gradientUnits="userSpaceOnUse" x1="251" x2="251" xlink:href="#lg2" y1="406.475" y2="11.728"/><linearGradient id="SVGID_4_" gradientUnits="userSpaceOnUse" x1="251" x2="251" y1="414.099" y2="145.228"><stop offset="0" stop-color="#fbe7b4"/><stop offset="1" stop-color="#fff5e3"/></linearGradient><linearGradient id="SVGID_5_" gradientUnits="userSpaceOnUse" x1="170.5" x2="170.5" xlink:href="#lg2" y1="429.473" y2="338.574"/><linearGradient id="SVGID_6_" gradientUnits="userSpaceOnUse" x1="331.501" x2="331.501" xlink:href="#lg2" y1="429.473" y2="338.574"/><g><path d="m502 420.074c0 38.769-112.377 70.198-251 70.198s-251-31.428-251-70.198v-36.465h502z" fill="url(#SVGID_1_)"/><ellipse cx="251" cy="383.609" fill="url(#SVGID_2_)" rx="251" ry="70.198"/><path d="m91.286 348.89c-3.758-.783-7.673-.067-10.91 1.997-8.138 5.188-9.144 16.657-2.071 23.223 19.71 18.293 43.873 32.86 71.385 43.072l23.114-51.299z" fill="#fd748d"/><path d="m410.574 120.839c-9.109-11.848-13.854-26.364-13.803-41.308 0-.076 0-.152 0-.228 0-37.261-30.314-67.575-67.576-67.575-24.019 0-45.137 12.607-57.123 31.541-6.926-.721-13.955-1.096-21.072-1.096s-14.146.375-21.072 1.096c-11.987-18.934-33.104-31.541-57.123-31.541-37.261 0-67.575 30.314-67.575 67.575v.228c.05 14.945-4.695 29.46-13.803 41.308-26.078 33.922-41.583 76.396-41.583 122.491 0 88.072 56.605 143.818 135.415 163.145l65.741-22.452 65.742 22.452c78.81-19.327 135.415-75.074 135.415-163.145 0-46.095-15.505-88.569-41.583-122.491z" fill="url(#SVGID_3_)"/><ellipse cx="140.653" cy="116.49" fill="#f7496e" rx="18.754" ry="15.071"/><ellipse cx="361.347" cy="116.49" fill="#f7496e" rx="18.754" ry="15.071"/><circle cx="172.804" cy="79.303" fill="#fff" r="37.187"/><ellipse cx="187.828" cy="79.303" fill="#383842" rx="22.164" ry="22.164" transform="matrix(.23 -.973 .973 .23 67.493 243.886)"/><circle cx="329.196" cy="79.303" fill="#fff" r="37.187"/><ellipse cx="344.141" cy="79.303" fill="#383842" rx="22.164" ry="22.164" transform="matrix(.707 -.707 .707 .707 44.721 266.572)"/><ellipse cx="251" cy="107.493" fill="#383842" rx="16.639" ry="21.787"/><g><path d="m361.213 296.978c-1.596 44.85-18.713 84.37-44.47 109.497-20.603 5.053-42.718 7.624-65.743 7.624s-45.14-2.571-65.743-7.624c-25.758-25.127-42.875-64.647-44.47-109.497l4.785-5.297h23.457l18.325-7.33 11.728-25.918-13.682-27.103-29.321-6.353-7.214-5.088c12.703-44.524 42.188-74.661 102.135-74.661s89.432 30.137 102.135 74.661l-6.716 6.798s-22.479 2.199-23.701 2.688-13.927 13.194-13.927 13.194l-4.887 15.864 4.887 17.61 15.882 12.217 23.701 2.199z" fill="url(#SVGID_4_)"/></g><g><path d="m166.589 296.978h-35.218c-3.701 0-6.701-3-6.701-6.701s3-6.701 6.701-6.701h35.218c13.864 0 25.143-11.279 25.143-25.142s-11.279-25.142-25.143-25.142h-35.218c-3.701 0-6.701-3-6.701-6.701s3-6.701 6.701-6.701h35.218c21.254 0 38.545 17.291 38.545 38.544s-17.292 38.544-38.545 38.544z" fill="#6dc647"/></g><g><path d="m335.411 296.978h35.218c3.701 0 6.701-3 6.701-6.701s-3-6.701-6.701-6.701h-35.218c-13.864 0-25.143-11.279-25.143-25.142s11.279-25.142 25.143-25.142h35.218c3.701 0 6.701-3 6.701-6.701s-3-6.701-6.701-6.701h-35.218c-21.254 0-38.545 17.291-38.545 38.544s17.292 38.544 38.545 38.544z" fill="#6dc647"/></g><path d="m212.017 395.741-2.629-22.549c-2.301-19.736-19.019-34.619-38.889-34.619-19.869 0-36.588 14.883-38.889 34.619l-2.629 22.549c-2.094 17.962 11.945 33.732 30.028 33.732h22.979c18.084 0 32.123-15.77 30.029-33.732z" fill="url(#SVGID_5_)"/><path d="m289.983 395.741 2.629-22.549c2.301-19.736 19.019-34.619 38.889-34.619 19.869 0 36.588 14.883 38.889 34.619l2.629 22.549c2.094 17.962-11.945 33.732-30.028 33.732h-22.979c-18.084 0-32.123-15.77-30.029-33.732z" fill="url(#SVGID_6_)"/></g></svg>