<svg id="Capa_1" enable-background="new 0 0 502 502" height="512" viewBox="0 0 502 502" width="512" xmlns="http://www.w3.org/2000/svg" xmlns:xlink="http://www.w3.org/1999/xlink"><linearGradient id="lg1"><stop offset="0" stop-color="#fd8943"/><stop offset="1" stop-color="#fdb58a"/></linearGradient><linearGradient id="SVGID_1_" gradientUnits="userSpaceOnUse" x1="77.701" x2="77.701" xlink:href="#lg1" y1="425.607" y2="300.245"/><linearGradient id="SVGID_2_" gradientUnits="userSpaceOnUse" x1="302.723" x2="472.977" xlink:href="#lg1" y1="112.404" y2="112.404"/><linearGradient id="lg2"><stop offset="0" stop-color="#fdb58a"/><stop offset="1" stop-color="#fd8943"/></linearGradient><linearGradient id="SVGID_3_" gradientUnits="userSpaceOnUse" x1="79.421" x2="249.675" xlink:href="#lg2" y1="112.404" y2="112.404"/><linearGradient id="SVGID_4_" gradientUnits="userSpaceOnUse" x1="376.553" x2="479.863" y1="130.115" y2="130.115"><stop offset="0" stop-color="#fd869c"/><stop offset="1" stop-color="#fdb0bf"/></linearGradient><linearGradient id="SVGID_6_" gradientUnits="userSpaceOnUse" x1="72.535" x2="175.845" y1="130.115" y2="130.115"><stop offset="0" stop-color="#fdb0bf"/><stop offset="1" stop-color="#fd869c"/></linearGradient><linearGradient id="SVGID_7_" gradientUnits="userSpaceOnUse" x1="276.199" x2="276.199" xlink:href="#lg2" y1="478.162" y2="71.591"/><g><path d="m112.387 310.989c-34.957-16.411-95.615-15.682-109.473 13.838s24.33 76.652 59.288 93.064c34.958 16.411 74.531 5.784 88.389-23.736s-3.246-66.755-38.204-83.166z" fill="url(#SVGID_1_)"/><path d="m63.598 352.479c-11.476 0-20.265 10.271-18.432 21.6.059.362.118.723.177 1.083 2.333 14.074 6.591 27.718 12.554 40.558 1.438.771 2.874 1.499 4.304 2.171 22.953 10.775 47.895 9.894 66.242-.337l-50.736-58.626c-3.544-4.096-8.693-6.449-14.109-6.449z" fill="#fd8943"/><path d="m395.097 200.609c-24.168 2.236-49.103-5.899-67.608-24.394-33.021-33.021-33.021-86.556 0-119.578 33.021-33.021 100.482-46.947 133.503-13.926 5.072 5.072 9.031 10.951 11.985 17.392z" fill="url(#SVGID_2_)"/><path d="m157.301 200.609c24.168 2.236 49.103-5.899 67.608-24.394 33.021-33.021 33.021-86.556 0-119.578-33.021-33.021-100.482-46.947-133.503-13.926-5.072 5.072-9.031 10.951-11.985 17.392z" fill="url(#SVGID_3_)"/><path d="m447.066 176.214c-14.516 14.516-33.011 22.651-51.969 24.394-11.621-14.812-18.544-33.484-18.544-53.772 0-48.168 39.038-87.216 87.206-87.216 3.112 0 6.195.167 9.218.483 16.309 35.523 2.039 88.162-25.911 116.111z" fill="url(#SVGID_4_)"/><path d="m157.301 200.609c24.168 2.236 49.103-5.899 67.608-24.394 33.021-33.021 33.021-86.556 0-119.578-33.021-33.021-100.482-46.947-133.503-13.926-5.072 5.072-9.031 10.951-11.985 17.392z" fill="url(#SVGID_3_)"/><path d="m105.332 176.214c14.516 14.516 33.011 22.651 51.969 24.394 11.621-14.812 18.544-33.484 18.544-53.772 0-48.168-39.038-87.216-87.206-87.216-3.112 0-6.195.167-9.218.483-16.309 35.523-2.039 88.162 25.911 116.111z" fill="url(#SVGID_6_)"/><g fill="#fd8943"><path d="m161.298 195.074.006-.005.005-.011c-.003.006-.007.011-.011.016z"/><path d="m192.839 81.513c-6.01-9.296-18.412-12.106-27.755-6.167-4.815 3.061-9.535 6.312-14.157 9.749l-.4.299c15.649 15.765 25.318 37.474 25.318 61.444l18.781-46.79c2.449-6.103 1.783-13.014-1.787-18.535z"/></g><path d="m150.527 85.393c-15.343 11.447-29.604 24.937-42.616 40.38-7.18 8.521-13.837 17.508-19.957 26.867 4.872 8.876 10.732 16.928 17.378 23.574 13.879 13.879 31.396 21.909 49.476 24.112l6.491-5.252c.004-.006.008-.011.011-.017l11.987-27.268c1.656-6.714 2.549-13.728 2.549-20.953-.001-23.969-9.67-45.678-25.319-61.443z" fill="#fd748d"/><path d="m276.199 71.591c-113.794 0-206.043 115.87-206.043 238.15 0 21.924 1.278 42.153 4.334 60.59 9.888 59.656 60.005 103.901 119.682 107.577l4.959-4.637 11.739 4.891h57.943l7.386-4.407 7.386 4.407h57.943l11.891-4.407 4.801 4.153c59.679-3.674 109.799-47.92 119.687-107.578 3.056-18.438 4.334-38.667 4.334-60.59.001-122.28-92.248-238.149-206.042-238.149z" fill="url(#SVGID_7_)"/><g><ellipse cx="163.72" cy="230.934" fill="#f7496e" rx="19.116" ry="15.362"/><ellipse cx="388.678" cy="230.934" fill="#f7496e" rx="19.116" ry="15.362"/><circle cx="196.493" cy="193.028" fill="#fff" r="37.906"/><circle cx="355.905" cy="193.028" fill="#fff" r="37.906"/><g fill="#383842"><g><circle cx="196.493" cy="193.028" r="22.592"/><circle cx="355.905" cy="193.028" r="22.592"/></g><path d="m288.781 241.61c-4.448 0-8.79-1.485-12.582-4.252-3.792 2.767-8.134 4.252-12.582 4.252-5.96 0-11.727-2.666-16.24-7.508-1.883-2.021-1.771-5.184.249-7.066 2.02-1.884 5.186-1.771 7.066.248 2.639 2.83 5.725 4.326 8.925 4.326s6.286-1.496 8.925-4.326c.945-1.015 2.271-1.591 3.657-1.591s2.712.576 3.657 1.591c2.639 2.83 5.725 4.326 8.925 4.326 3.199 0 6.285-1.496 8.924-4.326 1.882-2.02 5.045-2.132 7.066-.248 2.02 1.883 2.131 5.046.248 7.066-4.512 4.842-10.279 7.508-16.238 7.508z"/></g></g><g><path d="m424.831 227.432c-1.926-3.596-.572-8.072 3.025-9.998 31.369-16.799 66.634-9.537 68.119-9.219 3.989.852 6.533 4.777 5.681 8.766-.852 3.986-4.769 6.526-8.754 5.683-.314-.066-31.573-6.398-58.074 7.793-3.587 1.922-8.069.577-9.997-3.025z" fill="#383842"/></g><g><path d="m491.571 271.379c-.382-.172-29.52-12.984-58.396-4.799-3.919 1.111-8.007-1.168-9.12-5.091-1.113-3.925 1.168-8.008 5.091-9.121 34.242-9.704 67.133 4.926 68.517 5.554 3.715 1.685 5.361 6.063 3.676 9.777-1.68 3.705-6.045 5.361-9.768 3.68z" fill="#383842"/></g><g><path d="m127.567 227.432c1.926-3.596.572-8.072-3.025-9.998-31.369-16.799-66.634-9.537-68.119-9.219-3.989.852-6.533 4.777-5.681 8.766.852 3.986 4.769 6.526 8.754 5.683.314-.066 31.573-6.398 58.074 7.793 3.587 1.922 8.069.577 9.997-3.025z" fill="#383842"/></g><g><path d="m60.827 271.379c.382-.172 29.52-12.984 58.396-4.799 3.919 1.111 8.007-1.168 9.12-5.091 1.113-3.925-1.168-8.008-5.091-9.121-34.242-9.704-67.133 4.926-68.517 5.554-3.715 1.685-5.361 6.063-3.676 9.777 1.68 3.705 6.045 5.361 9.768 3.68z" fill="#383842"/></g><g fill="#fd8943"><path d="m276.199 401.412c-4.079 0-7.386 3.306-7.386 7.386v69.364h14.772v-69.364c0-4.079-3.306-7.386-7.386-7.386z"/><path d="m210.87 478.162c-18.661-34.172-14.614-64.465-15.173-69.364 0-4.08-3.307-7.386-7.386-7.386s-7.386 3.306-7.386 7.386c.534 4.588-3.219 34.239 13.247 69.11 2.666.164 5.351.254 8.053.254z"/><path d="m350.173 478.162c2.7 0 5.383-.09 8.047-.254 16.448-34.872 12.742-64.721 13.252-69.11 0-4.08-3.306-7.386-7.386-7.386s-7.386 3.306-7.386 7.386c-.569 4.981 3.548 35.111-15.172 69.364z"/></g></g></svg>