<svg id="Capa_1" enable-background="new 0 0 502 502" height="512" viewBox="0 0 502 502" width="512" xmlns="http://www.w3.org/2000/svg" xmlns:xlink="http://www.w3.org/1999/xlink"><linearGradient id="SVGID_1_" gradientUnits="userSpaceOnUse" x1="251" x2="251" y1="463.69" y2="124.1"><stop offset=".0223" stop-color="#875ac0"/><stop offset="1" stop-color="#a07ccd"/></linearGradient><linearGradient id="SVGID_2_" gradientUnits="userSpaceOnUse" x1="251" x2="251" y1="147.01" y2="0"><stop offset="0" stop-color="#fd869c"/><stop offset="1" stop-color="#fdb0bf"/></linearGradient><linearGradient id="lg1"><stop offset="0" stop-color="#3cc8db"/><stop offset="1" stop-color="#b1e6ee"/></linearGradient><linearGradient id="SVGID_3_" gradientUnits="userSpaceOnUse" x1="374.706" x2="374.706" xlink:href="#lg1" y1="321.828" y2="266.689"/><linearGradient id="SVGID_4_" gradientUnits="userSpaceOnUse" x1="127.275" x2="127.275" xlink:href="#lg1" y1="341.828" y2="286.689"/><linearGradient id="lg2"><stop offset="0" stop-color="#b1e6ee"/><stop offset="1" stop-color="#3cc8db"/></linearGradient><linearGradient id="SVGID_5_" gradientUnits="userSpaceOnUse" x1="251" x2="251" xlink:href="#lg2" y1="502" y2="352.426"/><linearGradient id="SVGID_6_" gradientUnits="userSpaceOnUse" x1="219.525" x2="219.525" xlink:href="#lg2" y1="419.897" y2="313.102"/><g><path d="m103.04 463.69c-9.89-9.97-18.2-21.65-24.43-34.76-11.77-24.78-18.36-52.5-18.36-81.75 0-40.02 4.48-118.37 18.77-200.17l171.98-22.91 171.98 22.91c14.29 81.8 18.77 160.15 18.77 200.17 0 29.25-6.59 56.97-18.36 81.75-6.23 13.11-14.54 24.79-24.43 34.76z" fill="url(#SVGID_1_)"/><path d="m192.561 142.516-46.113-18.416-67.428 22.91c-1.76 10.074-3.37 20.095-4.842 30h111.749c9.877 0 17.884-8.007 17.884-17.884.001-7.317-4.456-13.896-11.25-16.61z" fill="#875ac0"/><path d="m422.98 147.01h-343.96c4.85-27.7 10.81-55.79 18.12-82.92 10.21-37.89 44.75-64.09 83.99-64.09h139.74c39.24 0 73.78 26.2 83.99 64.09 7.31 27.13 13.27 55.22 18.12 82.92z" fill="url(#SVGID_2_)"/><g><ellipse cx="158.069" cy="104.943" fill="#ffaecf" rx="15.794" ry="12.692"/><ellipse cx="343.931" cy="104.943" fill="#ffaecf" rx="15.794" ry="12.692"/><path d="m251 115.714c-6.817 0-13.634-2.279-19.323-6.836-5.276-4.227-6.126-11.93-1.9-17.205 4.227-5.276 11.93-6.126 17.205-1.9 2.365 1.895 5.669 1.895 8.034 0 5.274-4.226 12.977-3.376 17.205 1.9 4.227 5.276 3.376 12.979-1.9 17.205-5.687 4.558-12.504 6.836-19.321 6.836z" fill="#383842"/><path d="m216.396 71.533c-1.048-16.015-14.383-28.804-30.427-29.215-17.672-.453-32.141 13.738-32.141 31.308 0 .892.038 1.775.111 2.647.446 5.297 6.193 8.453 10.943 6.068.997-.501 2.049-.951 3.126-1.377l-.032-.007 17.169-12.998 17.169 12.998-.032.007c1.075.425 2.126.874 3.121 1.374 4.805 2.412 10.534-.847 10.96-6.207.122-1.506.134-3.041.033-4.598z" fill="#fff"/><path d="m185.146 77.819c6.266 0 12.132 1.144 17.169 3.137.963-2.252 1.496-4.727 1.496-7.331 0-10.309-8.357-18.666-18.666-18.666s-18.666 8.357-18.666 18.666c0 2.604.533 5.079 1.496 7.331 5.039-1.993 10.905-3.137 17.171-3.137z" fill="#383842"/><path d="m348.104 71.533c-1.048-16.015-14.383-28.804-30.427-29.215-17.672-.453-32.141 13.738-32.141 31.308 0 .892.037 1.775.111 2.647.446 5.297 6.193 8.453 10.943 6.068.995-.5 2.046-.949 3.121-1.374l-.026-.009 17.169-12.998 17.169 12.998-.026.009c1.073.424 2.122.873 3.115 1.372 4.805 2.412 10.534-.847 10.96-6.207.121-1.507.133-3.042.032-4.599z" fill="#fff"/><path d="m316.854 77.819c6.266 0 12.132 1.144 17.169 3.137.963-2.252 1.496-4.727 1.496-7.331 0-10.309-8.357-18.666-18.666-18.666s-18.666 8.357-18.666 18.666c0 2.604.533 5.079 1.496 7.331 5.039-1.993 10.905-3.137 17.171-3.137z" fill="#383842"/></g><circle cx="374.706" cy="294.259" fill="url(#SVGID_3_)" r="27.569"/><circle cx="127.275" cy="314.259" fill="url(#SVGID_4_)" r="27.569"/><path d="m398.96 463.69c-23.97 24.19-57.19 38.31-92.4 38.31h-111.12c-35.21 0-68.43-14.12-92.4-38.31-7.74-35.86 19.74-70.76 57.52-70.48h.12c12.07-38.16 58.1-53.12 90.3-29.34l.02.02.02-.02c10.58-7.81 22.65-11.44 34.52-11.44 24.26 0 47.68 15.16 55.78 40.78h.12c37.78-.28 65.26 34.62 57.52 70.48z" fill="url(#SVGID_5_)"/><path d="m302.497 354.946c-5.476-1.649-11.192-2.516-16.957-2.516-11.87 0-23.94 3.63-34.52 11.44l-.02.02-.02-.02-28.538 47.996c-1.909 3.21-2.916 6.876-2.916 10.611 0 14.247 14.054 24.354 27.5 19.644 32.515-11.389 55.897-42.385 55.897-78.739 0-2.848-.146-5.662-.426-8.436z" fill="#00c6dc"/><g fill="#fddbe1"><path d="m264.354 214.638c4.143 0 7.5-3.358 7.5-7.5s-3.357-7.5-7.5-7.5h-26.27c-4.142 0-7.5 3.358-7.5 7.5v62.346c0 4.143 3.358 7.5 7.5 7.5h26.27c4.143 0 7.5-3.357 7.5-7.5s-3.357-7.5-7.5-7.5h-18.77v-16.173h16.833c4.143 0 7.5-3.358 7.5-7.5s-3.357-7.5-7.5-7.5h-16.833v-16.173z"/><path d="m333.931 199.064h-34.748c-4.143 0-7.5 3.358-7.5 7.5s3.357 7.5 7.5 7.5h9.804v55.42c0 4.143 3.357 7.5 7.5 7.5s7.5-3.357 7.5-7.5v-55.42h9.944c4.143 0 7.5-3.358 7.5-7.5s-3.358-7.5-7.5-7.5z"/><path d="m185.589 199.064h-17.52c-4.134 0-7.5 3.369-7.5 7.5v62.92c0 4.143 3.358 7.5 7.5 7.5s7.5-3.357 7.5-7.5v-19.872c3.619-.019 7.697-.037 10.02-.037 14.118 0 25.604-11.33 25.604-25.256s-11.486-25.255-25.604-25.255zm0 35.512c-2.307 0-6.335.018-9.939.036-.019-3.724-.037-7.923-.037-10.292 0-2.005-.011-6.359-.021-10.256h9.998c5.748 0 10.604 4.697 10.604 10.256-.002 5.559-4.858 10.256-10.605 10.256z"/></g><circle cx="219.525" cy="363.382" fill="url(#SVGID_6_)" r="53.398"/><g><path d="m242.153 373.638c-5.664 0-10.257-4.592-10.257-10.257 0-6.821-5.549-12.37-12.37-12.37-5.664 0-10.257-4.592-10.257-10.257s4.593-10.257 10.257-10.257c18.133 0 32.884 14.752 32.884 32.883-.001 5.666-4.593 10.258-10.257 10.258z" fill="#b1e6ee"/></g></g></svg>