<svg id="Capa_1" enable-background="new 0 0 502 502" height="512" viewBox="0 0 502 502" width="512" xmlns="http://www.w3.org/2000/svg" xmlns:xlink="http://www.w3.org/1999/xlink"><linearGradient id="lg1"><stop offset="0" stop-color="#fdb0bf"/><stop offset="1" stop-color="#fd869c"/></linearGradient><linearGradient id="SVGID_1_" gradientUnits="userSpaceOnUse" x1="389.483" x2="493.396" xlink:href="#lg1" y1="263.403" y2="263.403"/><linearGradient id="lg2"><stop offset="0" stop-color="#8b869b"/><stop offset=".9777" stop-color="#bfbdc3"/></linearGradient><linearGradient id="SVGID_2_" gradientUnits="userSpaceOnUse" x1="9.456" x2="140.365" xlink:href="#lg2" y1="62.407" y2="62.407"/><linearGradient id="SVGID_3_" gradientUnits="userSpaceOnUse" x1="8.604" x2="107.658" xlink:href="#lg1" y1="90.476" y2="90.476"/><linearGradient id="SVGID_4_" gradientUnits="userSpaceOnUse" x1="287.253" x2="418.162" xlink:href="#lg2" y1="62.407" y2="62.407"/><linearGradient id="lg3"><stop offset="0" stop-color="#fd869c"/><stop offset="1" stop-color="#fdb0bf"/></linearGradient><linearGradient id="SVGID_5_" gradientUnits="userSpaceOnUse" x1="319.96" x2="419.014" xlink:href="#lg3" y1="90.476" y2="90.476"/><linearGradient id="SVGID_6_" gradientUnits="userSpaceOnUse" x1="213.809" x2="213.809" xlink:href="#lg2" y1="420.655" y2="-39.111"/><linearGradient id="SVGID_7_" gradientUnits="userSpaceOnUse" x1="112.299" x2="112.299" xlink:href="#lg3" y1="502" y2="384.777"/><linearGradient id="SVGID_8_" gradientUnits="userSpaceOnUse" x1="315.32" x2="315.32" xlink:href="#lg3" y1="502" y2="384.777"/><g><path d="m392.857 315.089c9.723-2.938 16.154-6.182 27.822-14.097 6.035-4.521 7.832-6.73 9.129-7.924 26.945-27.394 14.417-57.681 13.064-68.129-4.161-20.843-8.222-41.712-12.198-62.604-1.64-8.619 4.017-16.936 12.636-18.576 7.859-1.496 15.465 3.079 17.99 10.431 6.928 20.107 13.771 40.236 20.514 60.392 1.343 5.065 11.912 29.334 11.542 53.923.908 32.719-13.879 70.502-42.253 92.327-22.222 18.074-45.864 22.115-61.62 22.497z" fill="url(#SVGID_1_)"/><path d="m433.832 316.661-2.797-24.904c-.409.437-.799.875-1.227 1.31-1.297 1.194-3.094 3.403-9.129 7.924-11.669 7.915-18.099 11.159-27.822 14.097l-3.374 68.24c11.087-.268 26.08-2.357 41.735-9.864 3.817-18.503 4.764-37.666 2.614-56.803z" fill="#fd748d"/><path d="m9.456 52.109c2.183-13.877 8.626-27.216 19.318-37.919 26.889-26.889 55.592-11.979 82.48 14.91 26.899 26.899 41.81 55.591 14.921 82.491-5.557 5.557-11.831 9.965-18.516 13.223z" fill="url(#SVGID_2_)"/><path d="m107.658 124.815c-25.687 12.527-57.553 8.119-78.885-13.223-16.207-16.208-22.649-38.467-19.317-59.483 6.717-1.898 13.803-2.921 21.121-2.921 42.084 0 76.301 33.722 77.081 75.627z" fill="url(#SVGID_3_)"/><path d="m418.162 52.109c-2.183-13.877-8.626-27.216-19.318-37.919-26.889-26.889-55.592-11.979-82.48 14.91-26.899 26.899-41.81 55.591-14.921 82.491 5.557 5.557 11.831 9.965 18.516 13.223z" fill="url(#SVGID_4_)"/><path d="m319.96 124.815c25.687 12.527 57.553 8.119 78.885-13.223 16.207-16.207 22.65-38.467 19.318-59.482-6.717-1.898-13.803-2.921-21.121-2.921-42.085-.001-76.302 33.721-77.082 75.626z" fill="url(#SVGID_5_)"/><path d="m90.702 77.775c11.184-11.19 23.863-20.852 37.706-28.657 0-.001-.001-.001-.001-.002-5.955-8.527-13.828-16.998-21.423-24.164 0 0-.001-.001-.001-.001-15.054 9.149-28.839 20.202-41.045 32.828 9.553 4.941 17.935 11.819 24.637 20.118z" fill="#918ca1"/><path d="m65.926 57.773c-6.218 6.427-12.028 13.262-17.379 20.467-5.397 7.266-3.587 17.579 3.941 22.604 7.009 4.677 16.454 3.048 21.482-3.714 5.07-6.818 10.625-13.242 16.605-19.233-6.705-8.302-15.091-15.182-24.649-20.124z" fill="#fd748d"/><path d="m402.396 320.192-15.59-138.802c-9.892-88.07-84.372-154.653-172.997-154.653-88.625 0-163.104 66.582-172.996 154.654l-15.59 138.802c-9.961 88.684 59.435 166.31 148.676 166.31h79.821c89.241 0 158.637-77.627 148.676-166.311z" fill="url(#SVGID_6_)"/><g><ellipse cx="100.394" cy="185.616" fill="#ffaecf" rx="19.275" ry="15.49"/><ellipse cx="327.224" cy="185.616" fill="#ffaecf" rx="19.275" ry="15.49"/><circle cx="133.44" cy="147.395" fill="#fff" r="38.221"/><circle cx="294.179" cy="147.395" fill="#fff" r="38.221"/><g fill="#383842"><g><circle cx="133.44" cy="147.395" r="22.78"/><circle cx="294.179" cy="147.395" r="22.78"/></g><path d="m226.496 196.34c-.001 0-.001 0 0 0-4.486 0-8.864-1.502-12.687-4.298-3.823 2.796-8.201 4.298-12.687 4.298-.001 0-.001 0-.001 0-5.997 0-11.802-2.685-16.344-7.558-1.883-2.021-1.771-5.185.249-7.067 2.021-1.881 5.184-1.771 7.067.249 2.667 2.863 5.789 4.376 9.027 4.376 3.239 0 6.361-1.513 9.03-4.376.945-1.015 2.271-1.591 3.657-1.591 1.388 0 2.712.576 3.658 1.591 2.667 2.863 5.789 4.376 9.027 4.376 3.239 0 6.361-1.513 9.03-4.376 1.882-2.021 5.045-2.133 7.066-.248 2.02 1.882 2.131 5.046.248 7.066-4.538 4.874-10.343 7.558-16.34 7.558z"/></g></g><path d="m234.754 154.614c0 6.745-9.377 12.213-20.945 12.213s-20.945-5.468-20.945-12.213 9.377-7.547 20.945-7.547 20.945.802 20.945 7.547z" fill="#383842"/><path d="m166.401 453.933c0 32.37-24.223 48.067-54.103 48.067s-54.103-15.697-54.103-48.067 24.223-69.156 54.103-69.156 54.103 36.786 54.103 69.156z" fill="url(#SVGID_7_)"/><path d="m261.217 453.933c0 32.37 24.223 48.067 54.103 48.067s54.103-15.697 54.103-48.067-24.223-69.156-54.103-69.156-54.103 36.786-54.103 69.156z" fill="url(#SVGID_8_)"/><g><path d="m148.55 308.836h-36.443c-3.83 0-6.934-3.105-6.934-6.934 0-3.83 3.105-6.934 6.934-6.934h36.443c14.346 0 26.018-11.671 26.018-26.017s-11.671-26.017-26.018-26.017h-36.443c-3.83 0-6.934-3.105-6.934-6.934 0-3.83 3.105-6.934 6.934-6.934h36.443c21.993 0 39.886 17.893 39.886 39.886s-17.893 39.884-39.886 39.884z" fill="#898499"/></g><g><path d="m279.069 308.836h36.443c3.83 0 6.934-3.105 6.934-6.934 0-3.83-3.105-6.934-6.934-6.934h-36.443c-14.346 0-26.018-11.671-26.018-26.017s11.671-26.017 26.018-26.017h36.443c3.83 0 6.934-3.105 6.934-6.934 0-3.83-3.105-6.934-6.934-6.934h-36.443c-21.993 0-39.886 17.893-39.886 39.886s17.892 39.884 39.886 39.884z" fill="#898499"/></g></g></svg>