<svg id="Capa_1" enable-background="new 0 0 502 502" height="512" viewBox="0 0 502 502" width="512" xmlns="http://www.w3.org/2000/svg" xmlns:xlink="http://www.w3.org/1999/xlink"><linearGradient id="lg1"><stop offset="0" stop-color="#fd869c"/><stop offset="1" stop-color="#fdb0bf"/></linearGradient><linearGradient id="SVGID_1_" gradientUnits="userSpaceOnUse" x1="251" x2="251" xlink:href="#lg1" y1="502" y2="220.782"/><linearGradient id="lg2"><stop offset="0" stop-color="#fd869c"/><stop offset="1" stop-color="#f7496e"/></linearGradient><linearGradient id="SVGID_2_" gradientUnits="userSpaceOnUse" x1="15.757" x2="151.517" xlink:href="#lg2" y1="131.463" y2="131.463"/><linearGradient id="SVGID_3_" gradientUnits="userSpaceOnUse" x1="29.574" x2="161.729" xlink:href="#lg2" y1="222.037" y2="222.037"/><linearGradient id="SVGID_4_" gradientUnits="userSpaceOnUse" x1="55.631" x2="172.974" xlink:href="#lg2" y1="52.88" y2="52.88"/><linearGradient id="lg3"><stop offset="0" stop-color="#f7496e"/><stop offset="1" stop-color="#fd869c"/></linearGradient><linearGradient id="SVGID_5_" gradientUnits="userSpaceOnUse" x1="329.026" x2="446.369" xlink:href="#lg3" y1="52.88" y2="52.88"/><linearGradient id="SVGID_6_" gradientUnits="userSpaceOnUse" x1="350.483" x2="486.243" xlink:href="#lg3" y1="131.463" y2="131.463"/><linearGradient id="SVGID_7_" gradientUnits="userSpaceOnUse" x1="340.271" x2="472.426" xlink:href="#lg3" y1="222.037" y2="222.037"/><linearGradient id="SVGID_8_" gradientUnits="userSpaceOnUse" x1="251" x2="251" xlink:href="#lg1" y1="267.811" y2="3.424"/><linearGradient id="SVGID_9_" gradientUnits="userSpaceOnUse" x1="181.502" x2="181.502" xlink:href="#lg3" y1="439.927" y2="376.379"/><linearGradient id="SVGID_10_" gradientUnits="userSpaceOnUse" x1="320.499" x2="320.499" xlink:href="#lg3" y1="439.927" y2="376.379"/><g><path d="m252.048 220.787c-57.098-.565-104.329 45.844-104.72 102.943-.226 32.935 14.908 62.343 38.661 81.487 6.234 5.025 9.571 12.726 9.551 20.733v.135c0 30.629 24.83 75.914 55.46 75.914s55.46-45.284 55.46-75.914c0-.046 0-.093 0-.139-.02-8.044 3.379-15.743 9.636-20.797 23.53-19.005 38.579-48.091 38.579-80.693 0-56.908-45.852-103.107-102.627-103.669z" fill="url(#SVGID_1_)"/><g><path d="m211.257 368.023h-19.934c-2.824 0-5.114-2.289-5.114-5.114s2.29-5.114 5.114-5.114h19.934c9.865 0 17.891-8.026 17.891-17.89 0-9.865-8.026-17.89-17.891-17.89h-19.934c-2.824 0-5.114-2.289-5.114-5.114 0-2.824 2.29-5.114 5.114-5.114h19.934c15.504 0 28.118 12.613 28.118 28.118s-12.613 28.118-28.118 28.118z" fill="#fd748d"/></g><g><path d="m290.743 368.023h19.934c2.824 0 5.114-2.289 5.114-5.114s-2.29-5.114-5.114-5.114h-19.934c-9.865 0-17.891-8.026-17.891-17.89 0-9.865 8.026-17.89 17.891-17.89h19.934c2.824 0 5.114-2.289 5.114-5.114 0-2.824-2.29-5.114-5.114-5.114h-19.934c-15.504 0-28.118 12.613-28.118 28.118s12.613 28.118 28.118 28.118z" fill="#fd748d"/></g><path d="m225.45 267.775-61.004-.168c-5.899 8.923-10.459 18.801-13.383 29.343 6.323 1.01 12.802 1.543 19.405 1.543h54.945c8.482 0 15.359-6.876 15.359-15.359.001-8.469-6.854-15.339-15.322-15.359z" fill="#fd748d"/><path d="m146.665 132.974c-4.222-4.647-10.82-8.704-16.577-11.218-4.717-2.097-22.759-8.457-29.282-10.684-14.308-4.865-32.595-10.497-47.556-13.677-.067-.014-.301-.063-.368-.076-16.807-3.361-33.156 7.539-36.517 24.346s7.539 33.156 24.346 36.517c14.998 2.999 34.021 5.063 49.086 6.258 6.652.519 25.867 1.836 31.119 1.775 6.369-.03 13.997-1.168 19.663-3.742 11.545-5.311 14.57-20.161 6.086-29.499z" fill="url(#SVGID_2_)"/><path d="m148.188 183.064c-6.04-1.717-13.784-1.679-20.001-.774-5.113.71-23.794 4.835-30.509 6.387-14.72 3.424-33.224 8.296-47.608 13.494-.064.024-.289.106-.353.13-16.047 6.02-24.177 23.909-18.157 39.956s23.909 24.177 39.956 18.157c14.32-5.372 31.565-13.663 44.991-20.602 5.923-3.072 22.937-12.099 27.366-14.923 5.393-3.389 11.27-8.382 14.723-13.56 6.999-10.605 1.727-24.814-10.408-28.265z" fill="url(#SVGID_3_)"/><path d="m172.387 82.54c-1.546-6.086-5.466-12.765-9.369-17.688-3.18-4.066-16.124-18.153-20.836-23.182-10.349-11.013-23.85-24.573-35.565-34.405-.052-.044-.237-.197-.289-.24-13.261-10.86-32.814-8.913-43.673 4.348s-8.912 32.813 4.349 43.672c11.833 9.69 27.66 20.445 40.4 28.574 5.63 3.581 21.976 13.766 26.642 16.179 5.637 2.964 12.906 5.541 19.118 5.929 12.686.732 22.33-10.959 19.223-23.187z" fill="url(#SVGID_4_)"/><path d="m111.758 39.033c-7.912-6.539-19.282-6.778-27.462-.577l-19.388 14.7c.666.653 1.361 1.287 2.097 1.889 11.372 9.313 26.425 19.602 38.89 27.605 2.839-4.409 5.873-8.68 9.091-12.801 7.416-9.5 6.062-23.138-3.228-30.816z" fill="#f7496e"/><path d="m329.613 82.54c1.546-6.086 5.466-12.765 9.369-17.688 3.18-4.066 16.124-18.153 20.836-23.182 10.349-11.013 23.85-24.573 35.565-34.405.053-.044.237-.197.289-.24 13.261-10.859 32.813-8.912 43.672 4.349s8.912 32.813-4.349 43.672c-11.833 9.69-27.66 20.445-40.4 28.574-5.63 3.581-21.976 13.766-26.642 16.179-5.637 2.964-12.906 5.541-19.118 5.929-12.685.731-22.329-10.96-19.222-23.188z" fill="url(#SVGID_5_)"/><path d="m355.335 132.974c4.222-4.647 10.82-8.704 16.577-11.218 4.717-2.097 22.759-8.457 29.282-10.684 14.308-4.865 32.595-10.497 47.556-13.677.067-.014.301-.063.368-.076 16.807-3.361 33.156 7.539 36.517 24.346s-7.539 33.156-24.346 36.517c-14.998 2.999-34.021 5.063-49.086 6.258-6.652.519-25.867 1.836-31.119 1.775-6.369-.03-13.997-1.168-19.663-3.742-11.545-5.311-14.57-20.161-6.086-29.499z" fill="url(#SVGID_6_)"/><path d="m353.812 183.064c6.04-1.717 13.784-1.679 20.001-.774 5.113.71 23.794 4.835 30.509 6.387 14.72 3.424 33.224 8.296 47.608 13.494.064.024.289.106.353.13 16.047 6.02 24.177 23.909 18.157 39.956s-23.909 24.177-39.956 18.157c-14.32-5.372-31.565-13.663-44.991-20.602-5.923-3.072-22.937-12.099-27.366-14.923-5.393-3.389-11.27-8.382-14.723-13.56-6.999-10.605-1.727-24.814 10.408-28.265z" fill="url(#SVGID_7_)"/><path d="m251 3.424c-95.247 0-172.46 77.213-172.46 172.459 0 50.771 41.158 91.928 91.928 91.928h161.062c50.771 0 91.928-41.158 91.928-91.928.002-95.247-77.211-172.459-172.458-172.459z" fill="url(#SVGID_8_)"/><path d="m431.191 212.03c-7.088-2.495-14.989.492-18.536 7.117-4.978 9.299-11.515 17.638-19.249 24.685 9.403 4.693 19.859 9.608 29.582 13.619 6.466-7.243 12.088-15.255 16.707-23.88 4.404-8.223.295-18.444-8.504-21.541z" fill="#f7496e"/><g><ellipse cx="151.601" cy="210.171" fill="#ffaecf" rx="16.893" ry="13.576"/><ellipse cx="350.399" cy="210.171" fill="#ffaecf" rx="16.893" ry="13.576"/><path d="m251 221.692c-7.292 0-14.583-2.437-20.667-7.312-5.643-4.521-6.553-12.76-2.032-18.403 4.521-5.644 12.76-6.552 18.403-2.032 2.53 2.027 6.064 2.027 8.593 0 5.641-4.52 13.881-3.611 18.403 2.032 4.521 5.643 3.611 13.882-2.032 18.403-6.085 4.875-13.376 7.312-20.668 7.312z" fill="#383842"/><path d="m213.987 174.435c-1.121-17.13-15.384-30.809-32.545-31.249-18.902-.485-34.378 14.694-34.378 33.487 0 .954.04 1.898.119 2.831.477 5.666 6.624 9.042 11.705 6.49 1.066-.535 2.192-1.017 3.344-1.472l-.034-.008 18.364-13.903 18.364 13.903-.034.008c1.15.454 2.274.935 3.338 1.47 5.139 2.58 11.267-.906 11.723-6.639.129-1.609.143-3.251.034-4.918z" fill="#fff"/><path d="m180.563 181.159c6.702 0 12.977 1.224 18.364 3.356 1.03-2.408 1.6-5.056 1.6-7.841 0-11.026-8.939-19.965-19.965-19.965s-19.965 8.939-19.965 19.965c0 2.785.57 5.433 1.6 7.841 5.389-2.132 11.664-3.356 18.366-3.356z" fill="#383842"/><path d="m354.863 174.435c-1.121-17.13-15.384-30.809-32.545-31.249-18.902-.485-34.378 14.694-34.378 33.487 0 .954.04 1.898.119 2.831.477 5.666 6.624 9.042 11.705 6.49 1.064-.534 2.188-1.015 3.338-1.47l-.028-.01 18.364-13.903 18.365 13.903-.028.01c1.148.454 2.27.934 3.332 1.467 5.139 2.58 11.267-.906 11.723-6.639.128-1.608.142-3.25.033-4.917z" fill="#fff"/><path d="m321.438 181.159c6.702 0 12.977 1.224 18.364 3.356 1.03-2.408 1.6-5.056 1.6-7.841 0-11.026-8.939-19.965-19.965-19.965s-19.965 8.939-19.965 19.965c0 2.785.57 5.433 1.601 7.841 5.388-2.132 11.663-3.356 18.365-3.356z" fill="#383842"/></g><path d="m210.554 417.661c0 17.548-14.507 22.266-29.052 22.266s-29.052-4.717-29.052-22.266c0-17.548 13.007-41.282 29.052-41.282s29.052 23.734 29.052 41.282z" fill="url(#SVGID_9_)"/><path d="m291.447 417.661c0 17.548 14.507 22.266 29.052 22.266s29.052-4.717 29.052-22.266c0-17.548-13.007-41.282-29.052-41.282s-29.052 23.734-29.052 41.282z" fill="url(#SVGID_10_)"/></g></svg>