<svg id="Capa_1" enable-background="new 0 0 502 502" height="512" viewBox="0 0 502 502" width="512" xmlns="http://www.w3.org/2000/svg" xmlns:xlink="http://www.w3.org/1999/xlink"><linearGradient id="lg1"><stop offset="0" stop-color="#f9e09d"/><stop offset="1" stop-color="#f3c757"/></linearGradient><linearGradient id="SVGID_1_" gradientUnits="userSpaceOnUse" x1="251" x2="251" xlink:href="#lg1" y1="502" y2="390.773"/><linearGradient id="SVGID_2_" gradientUnits="userSpaceOnUse" x1="251" x2="251" xlink:href="#lg1" y1="226.188" y2="54.913"/><linearGradient id="SVGID_3_" gradientUnits="userSpaceOnUse" x1="251" x2="251" y1="465.563" y2="247.449"><stop offset="0" stop-color="#3cc8db"/><stop offset="1" stop-color="#b1e6ee"/></linearGradient><linearGradient id="SVGID_4_" gradientUnits="userSpaceOnUse" x1="251" x2="251" y1="109.816" y2="0"><stop offset=".0223" stop-color="#875ac0"/><stop offset="1" stop-color="#a07ccd"/></linearGradient><linearGradient id="SVGID_5_" gradientUnits="userSpaceOnUse" x1="115.807" x2="386.193" y1="308.968" y2="308.968"><stop offset="0" stop-color="#fbe7b4"/><stop offset="1" stop-color="#fff5e3"/></linearGradient><g><path d="m446.967 418.026c-.994 4.807-2.318 9.543-3.964 14.16-4.024 11.27-9.975 21.857-17.672 31.26-19.98 24.404-49.855 38.554-81.395 38.554h-185.872c-15.765 0-31.119-3.532-45.028-10.126-13.909-6.593-26.372-16.227-36.367-28.43-10.848-13.256-18.224-28.861-21.636-45.419l195.967-27.252z" fill="url(#SVGID_1_)"/><path d="m438.568 199.911-187.568 26.277-187.567-26.277c4.737-15.143 11.059-29.825 18.866-43.783l25.931-46.312 142.77-54.903 142.771 54.902 25.931 46.312c7.807 13.959 14.129 28.641 18.866 43.784z" fill="url(#SVGID_2_)"/><path d="m449.135 268.973v127.828c0 7.175-.733 14.29-2.168 21.224h-391.934c-1.435-6.934-2.168-14.049-2.168-21.224v-127.828c0-23.512 3.593-46.794 10.567-69.062h375.135c6.975 22.268 10.568 45.55 10.568 69.062z" fill="url(#SVGID_3_)"/><path d="m331.39 0h-160.78c-34.451 0-62.378 27.928-62.378 62.378v47.438h285.537v-47.438c-.001-34.45-27.928-62.378-62.379-62.378z" fill="url(#SVGID_4_)"/><path d="m374.575 242.031c-11.982-12.771-29.738-16.583-45.179-11.459 5.124-15.441 1.312-33.197-11.459-45.179-16.429-15.414-42.351-15.502-58.877-.193-12.323 11.416-16.432 28.168-12.337 43.149 2.124 7.772.125 16.084-5.572 21.781l-48.989 48.989c-5.697 5.697-14.009 7.696-21.781 5.572-14.981-4.094-31.733.014-43.149 12.337-15.31 16.526-15.221 42.448.193 58.877 11.982 12.771 29.738 16.582 45.179 11.459-5.124 15.441-1.312 33.197 11.459 45.179 16.429 15.414 42.351 15.502 58.877.193 12.323-11.416 16.431-28.168 12.337-43.149-2.124-7.772-.125-16.084 5.572-21.781l48.989-48.989c5.697-5.697 14.009-7.696 21.781-5.572 14.981 4.094 31.733-.014 43.149-12.337 15.31-16.527 15.221-42.448-.193-58.877z" fill="url(#SVGID_5_)"/><g><path d="m191.867 240.475h-81.436c-2.771 0-5.018-2.247-5.018-5.018s2.247-5.018 5.018-5.018h81.436c2.771 0 5.018 2.247 5.018 5.018s-2.247 5.018-5.018 5.018z" fill="#00c6dc"/></g><g><path d="m191.867 271.937h-81.436c-2.771 0-5.018-2.247-5.018-5.018s2.247-5.018 5.018-5.018h81.436c2.771 0 5.018 2.247 5.018 5.018s-2.247 5.018-5.018 5.018z" fill="#00c6dc"/></g><g><path d="m310.133 376.303h81.436c2.771 0 5.018-2.247 5.018-5.018s-2.247-5.018-5.018-5.018h-81.436c-2.771 0-5.018 2.247-5.018 5.018s2.247 5.018 5.018 5.018z" fill="#00c6dc"/></g><path d="m202.146 109.816h-93.917l-17.209 30.735h111.126c8.487 0 15.367-6.88 15.367-15.367 0-8.488-6.88-15.368-15.367-15.368z" fill="#f0bf3b"/></g></svg>