<svg id="Capa_1" enable-background="new 0 0 502 502" height="512" viewBox="0 0 502 502" width="512" xmlns="http://www.w3.org/2000/svg" xmlns:xlink="http://www.w3.org/1999/xlink"><linearGradient id="SVGID_1_" gradientUnits="userSpaceOnUse" x1="236.178" x2="236.178" y1="502" y2="368.816"><stop offset="0" stop-color="#8b869b"/><stop offset=".9777" stop-color="#bfbdc3"/></linearGradient><linearGradient id="lg1"><stop offset="0" stop-color="#b1e6ee"/><stop offset="1" stop-color="#3cc8db"/></linearGradient><linearGradient id="SVGID_2_" gradientUnits="userSpaceOnUse" x1="251" x2="251" xlink:href="#lg1" y1="229.555" y2="110.646"/><linearGradient id="SVGID_3_" gradientUnits="userSpaceOnUse" x1="251" x2="251" y1="120.52" y2="0"><stop offset="0" stop-color="#fd869c"/><stop offset="1" stop-color="#fdb0bf"/></linearGradient><linearGradient id="SVGID_4_" gradientUnits="userSpaceOnUse" x1="251" x2="251" xlink:href="#lg1" y1="405.367" y2="197.588"/><linearGradient id="lg2"><stop offset="0" stop-color="#3cc8db"/><stop offset="1" stop-color="#b1e6ee"/></linearGradient><linearGradient id="SVGID_5_" gradientUnits="userSpaceOnUse" x1="210.404" x2="210.404" xlink:href="#lg2" y1="365.496" y2="283.531"/><linearGradient id="SVGID_6_" gradientUnits="userSpaceOnUse" x1="291.761" x2="291.761" xlink:href="#lg2" y1="280.124" y2="230.404"/><g><path d="m221.381 368.816v45.036c0 10.715-4.172 20.788-11.749 28.365l-12.207 12.207c-7.584 7.584-7.584 19.881 0 27.465l14.423 14.423c7.584 7.584 19.881 7.584 27.465 0l12.207-12.207c18.765-18.765 29.1-43.714 29.1-70.253v-45.036z" fill="url(#SVGID_1_)"/><path d="m280.359 421.095c.172-2.399.26-4.814.26-7.243v-45.036h-59.238v45.036c0 2.456-.23 4.876-.659 7.243z" fill="#918ca1"/><path d="m96.23 195.653v-85.007h309.54v85.007l-154.77 33.902z" fill="url(#SVGID_2_)"/><path d="m183.616 120.52-87.386-9.873v39.786h87.386c8.26 0 14.956-6.696 14.956-14.956s-6.696-14.957-14.956-14.957z" fill="#00c6dc"/><path d="m352.554 0h-203.108c-45.25 0-81.933 36.682-81.933 81.933 0 21.311 17.276 38.587 38.587 38.587h289.8c21.311 0 38.587-17.276 38.587-38.587 0-45.251-36.682-81.933-81.933-81.933z" fill="url(#SVGID_3_)"/><g><ellipse cx="157.875" cy="87.478" fill="#f7496e" rx="15.827" ry="12.719"/><ellipse cx="344.125" cy="87.478" fill="#f7496e" rx="15.827" ry="12.719"/><circle cx="185.008" cy="56.094" fill="#fff" r="31.384"/><circle cx="316.992" cy="56.094" fill="#fff" r="31.384"/><g fill="#383842"><g><circle cx="185.008" cy="56.094" r="18.705"/><circle cx="316.992" cy="56.094" r="18.705"/></g><path d="m251 88.176c-5.488 0-10.977-2.075-15.454-6.228-2.025-1.877-2.145-5.041-.267-7.065 1.876-2.025 5.042-2.145 7.065-.267 5.096 4.725 12.215 4.725 17.311 0 2.024-1.877 5.188-1.758 7.065.267 1.878 2.024 1.759 5.188-.267 7.065-4.476 4.153-9.965 6.228-15.453 6.228z"/></g></g><path d="m405.77 195.653v105.287c0 50.007-40.529 90.536-90.536 90.536h-128.468c-50.007 0-90.536-40.529-90.536-90.536v-105.287l9.685-4.956c9.113-4.67 19.065-7 29.017-7s19.904 2.33 29.017 7 19.065 7 29.017 7 19.904-2.33 29.017-7 19.065-7 29.017-7 19.904 2.33 29.017 7 19.065 7 29.017 7 19.904-2.33 29.017-7c18.216-9.33 39.818-9.33 58.034 0z" fill="url(#SVGID_4_)"/><g><path d="m376.151 316.99c-5.452 0-9.873-4.421-9.873-9.873v-30.588c0-5.453 4.421-9.873 9.873-9.873s9.873 4.42 9.873 9.873v30.588c0 5.452-4.421 9.873-9.873 9.873z" fill="#b1e6ee"/></g><g><path d="m376.151 252.165c-5.452 0-9.873-4.42-9.873-9.873v-7.736c0-5.453 4.421-9.873 9.873-9.873s9.873 4.42 9.873 9.873v7.736c0 5.453-4.421 9.873-9.873 9.873z" fill="#b1e6ee"/></g><circle cx="210.404" cy="320.299" fill="url(#SVGID_5_)" r="40.983"/><circle cx="291.761" cy="255.264" fill="url(#SVGID_6_)" r="24.86"/><g><path d="m227.771 328.171c-4.347 0-7.872-3.524-7.872-7.872 0-5.235-4.259-9.494-9.494-9.494-4.347 0-7.872-3.524-7.872-7.872s3.525-7.872 7.872-7.872c13.917 0 25.238 11.322 25.238 25.238 0 4.347-3.525 7.872-7.872 7.872z" fill="#b1e6ee"/></g></g></svg>