<svg id="Capa_1" enable-background="new 0 0 502 502" height="512" viewBox="0 0 502 502" width="512" xmlns="http://www.w3.org/2000/svg" xmlns:xlink="http://www.w3.org/1999/xlink"><linearGradient id="lg1"><stop offset="0" stop-color="#77718a"/><stop offset="1" stop-color="#4f4c5f"/></linearGradient><linearGradient id="SVGID_1_" gradientUnits="userSpaceOnUse" x1="103.395" x2="103.395" xlink:href="#lg1" y1="472.439" y2="377.768"/><linearGradient id="lg2"><stop offset="0" stop-color="#efc4ab"/><stop offset="1" stop-color="#dc8757"/></linearGradient><linearGradient id="SVGID_2_" gradientUnits="userSpaceOnUse" x1="267.768" x2="267.768" xlink:href="#lg2" y1="455.316" y2="259.352"/><linearGradient id="lg3"><stop offset="0" stop-color="#4f4c5f"/><stop offset="1" stop-color="#77718a"/></linearGradient><linearGradient id="SVGID_3_" gradientUnits="userSpaceOnUse" x1="105.002" x2="199.246" xlink:href="#lg3" y1="47.122" y2="47.122"/><linearGradient id="SVGID_4_" gradientUnits="userSpaceOnUse" x1="336.291" x2="430.535" xlink:href="#lg1" y1="47.122" y2="47.122"/><linearGradient id="SVGID_5_" gradientUnits="userSpaceOnUse" x1="267.768" x2="267.768" xlink:href="#lg2" y1="329.103" y2="12.289"/><linearGradient id="SVGID_6_" gradientUnits="userSpaceOnUse" x1="267.769" x2="267.769" xlink:href="#lg3" y1="214.996" y2="149.007"/><linearGradient id="SVGID_7_" gradientUnits="userSpaceOnUse" x1="170.008" x2="223.729" xlink:href="#lg1" y1="71.085" y2="71.085"/><linearGradient id="SVGID_8_" gradientUnits="userSpaceOnUse" x1="311.807" x2="365.529" xlink:href="#lg3" y1="71.085" y2="71.085"/><g><circle cx="103.395" cy="391.411" fill="url(#SVGID_1_)" r="47.335"/><g><path d="m86.559 407.304c-.379 0-.764-.043-1.149-.135-2.655-.632-4.294-3.297-3.663-5.952 2.216-9.306 7.923-17.193 16.07-22.207 8.148-5.015 17.761-6.556 27.066-4.34l8.184 1.949c2.655.632 4.294 3.297 3.663 5.952-.632 2.655-3.296 4.294-5.952 3.663l-8.184-1.949c-6.739-1.606-13.699-.488-19.597 3.141-5.899 3.631-10.032 9.341-11.636 16.081-.54 2.269-2.566 3.797-4.802 3.797z" fill="#383842"/></g><path d="m383.775 306.035h-232.014s-77.848 88.31-11.673 167.806c14.923 17.928 37.152 28.159 60.478 28.159h5.76l5.09-4.276 13.547 4.276h35.394l7.412-4.276 7.411 4.276h35.394l11.794-4.276 6.842 4.276h5.76c23.326 0 45.555-10.231 60.478-28.158 66.175-79.496-11.673-167.807-11.673-167.807z" fill="url(#SVGID_2_)"/><path d="m181.958 17.287c-17.756-17.756-38.596-25.706-59.477-4.825s-23.414 52.202-5.657 69.959c17.756 17.756 49.078 15.223 69.959-5.657 20.881-20.881 12.932-41.721-4.825-59.477z" fill="url(#SVGID_3_)"/><path d="m353.578 17.287c17.756-17.756 38.596-25.706 59.477-4.825s23.414 52.202 5.657 69.959c-17.756 17.756-49.078 15.223-69.959-5.657-20.881-20.881-12.932-41.721 4.825-59.477z" fill="url(#SVGID_4_)"/><path d="m445.94 190.461c0 103.86-74.312 138.642-178.172 138.642s-178.172-34.782-178.172-138.642 74.312-178.172 178.172-178.172 178.172 74.312 178.172 178.172z" fill="url(#SVGID_5_)"/><path d="m246.436 187.203v35.601c0 11.781 9.551 21.332 21.332 21.332s21.332-9.551 21.332-21.332v-35.601z" fill="#fd748d"/><path d="m293.152 149.007c4.082.683 8.057 1.54 11.898 2.561 15.46 4.091 24.056 17.635 24.056 31.343 0 9.655-4.264 19.397-13.39 25.981-7.778 5.602-17.635 7.499-26.905 5.063-5.477-1.434-12.562-2.532-21.043-2.532s-15.566 1.097-21.043 2.532c-2.657.703-5.371 1.04-8.067 1.04-6.7 0-13.303-2.108-18.838-6.103-22.092-15.941-15.671-50.355 10.666-57.324 3.841-1.02 7.816-1.877 11.898-2.561z" fill="url(#SVGID_6_)"/><path d="m293.152 149.007c-1.059 13.092-12.023 23.372-25.384 23.372s-24.325-10.281-25.384-23.372c8.086-1.386 16.605-2.108 25.384-2.108s17.298.722 25.384 2.108z" fill="#383842"/><g><ellipse cx="151.761" cy="187.679" fill="#f7496e" rx="18.876" ry="15.169"/><ellipse cx="383.775" cy="187.679" fill="#f7496e" rx="18.876" ry="15.169"/><circle cx="184.122" cy="150.249" fill="#fff" r="37.43"/><circle cx="351.414" cy="150.249" fill="#fff" r="37.43"/><g fill="#383842"><circle cx="184.122" cy="150.249" r="22.308"/><circle cx="351.414" cy="150.249" r="22.308"/></g></g><g><path d="m170.748 78.958c-2.756-9.145 2.423-18.793 11.569-21.549l19.123-5.763c9.143-2.756 18.793 2.423 21.55 11.568 2.756 9.145-2.423 18.793-11.569 21.55l-19.123 5.763c-9.114 2.744-18.784-2.39-21.55-11.569z" fill="url(#SVGID_7_)"/></g><g><path d="m364.788 78.958c2.756-9.145-2.423-18.793-11.569-21.549l-19.123-5.763c-9.143-2.756-18.793 2.423-21.55 11.568-2.756 9.145 2.423 18.793 11.569 21.55l19.123 5.763c9.115 2.744 18.784-2.39 21.55-11.569z" fill="url(#SVGID_8_)"/></g><g fill="#dc8757"><path d="m234.418 327.774c-31.804-2.671-59.877-9.514-82.636-21.739h-.021s-8.173 9.279-16.971 24.517c25.989 14.694 58.093 23.548 97.197 26.786 8.628.714 16.018-6.132 16.018-14.789-.001-7.707-5.907-14.13-13.587-14.775z"/><path d="m267.768 414.748c-4.093 0-7.412 3.318-7.412 7.412v79.84h14.824v-79.84c0-4.094-3.318-7.412-7.412-7.412z"/><path d="m191.397 414.748c-4.093 0-7.412 3.318-7.412 7.412v7.927c0 26.065 7.821 50.924 22.341 71.913h18.637c-16.927-20.123-26.154-45.307-26.154-71.913v-7.927c0-4.094-3.319-7.412-7.412-7.412z"/><path d="m329.211 502c14.52-20.988 22.341-45.848 22.341-71.913v-7.927c0-4.094-3.318-7.412-7.412-7.412s-7.412 3.318-7.412 7.412v7.927c0 26.606-9.227 51.79-26.154 71.913z"/></g></g></svg>