<svg width="15" height="19" viewBox="0 0 15 19" fill="none" xmlns="http://www.w3.org/2000/svg">
<path d="M14.5121 9.98186L1.71075 18.7319C1.61241 18.7989 1.49778 18.8334 1.38315 18.8334C1.29005 18.8334 1.19637 18.8112 1.11141 18.7657C0.920556 18.6648 0.80127 18.4664 0.80127 18.25V0.750022C0.80127 0.533605 0.920556 0.335272 1.11141 0.234355C1.30227 0.132855 1.53269 0.146855 1.71133 0.268188L14.5127 9.01819C14.671 9.12669 14.7664 9.30694 14.7664 9.50002C14.7664 9.69311 14.671 9.87336 14.5121 9.98186Z" fill="black"/>
<path d="M14.5121 9.98186L1.71075 18.7319C1.61241 18.7989 1.49778 18.8334 1.38315 18.8334C1.29005 18.8334 1.19637 18.8112 1.11141 18.7657C0.920556 18.6648 0.80127 18.4664 0.80127 18.25V0.750022C0.80127 0.533605 0.920556 0.335272 1.11141 0.234355C1.30227 0.132855 1.53269 0.146855 1.71133 0.268188L14.5127 9.01819C14.671 9.12669 14.7664 9.30694 14.7664 9.50002C14.7664 9.69311 14.671 9.87336 14.5121 9.98186Z" fill="black"/>
</svg>
